<?xml version="1.0" encoding="UTF-8" standalone="no"?>
<svg
   xmlns:dc="http://purl.org/dc/elements/1.1/"
   xmlns:cc="http://creativecommons.org/ns#"
   xmlns:rdf="http://www.w3.org/1999/02/22-rdf-syntax-ns#"
   xmlns:svg="http://www.w3.org/2000/svg"
   xmlns="http://www.w3.org/2000/svg"
   xmlns:sodipodi="http://sodipodi.sourceforge.net/DTD/sodipodi-0.dtd"
   xmlns:inkscape="http://www.inkscape.org/namespaces/inkscape"
   viewBox="0 0 348 348"
   fill="none"
   version="1.1"
   id="svg20"
   sodipodi:docname="module.svg"
   inkscape:version="1.0 (4035a4fb49, 2020-05-01)"><metadata
   id="metadata26">
  <rdf:RDF>
    <cc:Work
       rdf:about="">
      <dc:format>image/svg+xml</dc:format>
      <dc:type
         rdf:resource="http://purl.org/dc/dcmitype/StillImage" />
    </cc:Work>
  </rdf:RDF>
</metadata>
<defs
   id="defs24" />
<sodipodi:namedview
   inkscape:document-rotation="0"
   pagecolor="#ffffff"
   bordercolor="#666666"
   borderopacity="1"
   objecttolerance="10"
   gridtolerance="10"
   guidetolerance="10"
   inkscape:pageopacity="0"
   inkscape:pageshadow="2"
   inkscape:window-width="1920"
   inkscape:window-height="1017"
   id="namedview22"
   showgrid="false"
   inkscape:zoom="2.2729885"
   inkscape:cx="174"
   inkscape:cy="174"
   inkscape:window-x="-8"
   inkscape:window-y="-8"
   inkscape:window-maximized="1"
   inkscape:current-layer="svg20" />
<path
   d="M5 6h337v337H5z"
   stroke-width="2"
   stroke="#000"
   id="path10" /><circle
   data-selectable="button"
   cx="165.8"
   cy="179.5"
   r="138.8"
   fill="#fff"
   stroke="#000"
   stroke-width="2.5"
   id="circle14" />
<g
   aria-label="PUSH IT!"
   style="line-height:1.25;-inkscape-font-specification:'Special Elite'"
   font-weight="700"
   font-size="58.4"
   font-family="Special Elite"
   letter-spacing="0"
   word-spacing="0"
   fill="#000"
   stroke-width="1.8"
   id="g18" class="simpleton-text-1">
  <path
     d="M53 165v1l-1-1h1zm8 21v-1 1zm20-14v5l-1 1-1 2-1 1h-1l-1 1-4 2h-4-1-1-1-1l-1 1h-1l-1 1h2v1l-1 1v7l1 2h1l2 1v1h1l1 1-1 1v1H54l-1-1 1-2 1-1h1l1-1h1v-1-1-1-1-1-1-1-3-2-1-1-1-1-1-1-1-1-1-1-1-1-2-2-1h1l1-1h-1-2v-1h-1v-1h-1l-1 1v-1-1h-1l1-1 1-1h15l2 1h2l1 1h1l1 1 1 1h1v1l1 1v1h1v3zm-4 2l-1-3-1-3-3-1-3-1h-5l-1 1h-1l-1 1v1l1 1v5h-1v1l1 2 1 1h1l1 1h1l2-1h4v-1h3l1-1 1-1v-2zM119 163l-1 1-1 1h-1l-1 1h-2v2l-1 1-1 1 1 1v5l1 2h-1v3l1 3v2l-1 1v1l1 1v2l-1 2v1l-2 1v1l1 1h-1v1h-1v1h-1v1h-1l-1 1h-1l-2 1h-3l-1-1h-1-2-1l-1-1h-1l-1-1-1-1v-2l-1-2v-2-2l-1-2v-1-1-3l1-2-1-4v-3-1l1-1v-1-1l-1-1v-2-1l-1-1-2-1h-1l-1-1 1-1 1-1h10l2 1v2l-1 1-1 1-2 1v2l-1 1v14l-1 1h1v-1 1h1v7l1 1v1l1 1 1 1 1 1h1l1 1 1 1v1l1-1h1v1h1v-1-1h-1v-1h1l1-1h1l1-1v-1l1-1v-2-1-1l1-1-1-2v-1-1l1-1-1-1v-2-2l1-2-1-3v-2-1-1h1l-1-1h-1v-1-1h-1-1l-1-1h-1v-1l-1-2h1v-1h7l1-1 1 1h4l1 1h1v1h1zM151 188v5h-2v1h1v1l-1 1-1 1v1h-3v2h-2l-1 1h-2l-2 1-3 1-2-1h-1l-2-1h-2-1-1v1h-1l-1-1-1-1-1-2v-1-1l1-1-1-1v-2-1l1-1h-1v-1l1-1v-1-1-1l1 1 1 1 1 2v5l1 1h1l2 1 1 2h8l2-1 1-1 1-1 1-1h1l1-1v-1l1-1v-2-2l-1-1-1-1h-1l-1-1-1-1h-3l-1-1-1 1h-1l-1-1h-1-1-1l-1-1h-1l-3-2-1-1v-1h-1v-1l-1-1v-2l-1-1 1-1v-1-1h0v-1l1-1 1-1 1-1 1-1 1-1h2l1-1h9l1 1h2v-1h3v2l1 1v4h1l-1 1v6h-1-1v-1l-1-1v-1-1l-1-1-1-1v-1l-1-1h-1l-1-1h-1-1-1l-1-1-2 1h-1l-2 1-2 1v5l1 2 1 1h1l2 1h4l1 1h5v1h2l1 1 1 1 1 1v1l1 1v1h1v2zM190 200v1h-2l-1 1h-3-3l-1 1h-2v-1h-2l-1-1v-1l1-1 1-1h2l1 1v-1-1h1v-1-2-1-1-1-1-1-1-1-1l-1-1v-1l-1-1h-4-2-1l-1 1h-2-2l-1 1v4l-1 1v1l1 1-1 1v1l1 1v1l1 1 1 1h1l2 1v3h-1l-1 1h-1l-1-1-4 1h-3-1l-1-1h-2v-1-1-1h1v-1h2l1-1 1-1 1-2v-2-1-1-1-2l-1-3 1-1v-1l-1-1v-1-1l1-1v-1-1-1-1-1-1h-1v-1h1v-1-1l-1-1v-1h-1l-1-1h-2l-1-1v-1-1l1-1h12v1l1 1v1h-1-1l-2 1-1 1v4l1 2-1 2v1l1 2 1 1h7l1 1h3v-1h2v-1l1-1v-1-1-1l-1-1v-1-1-1-1-2l-1-1h-3l-1-1-1-1v-1l1-1h12l2 1v2l-1 1h-2l-1 1h-1v20l1 2-1 1v1l1 1-1 2v1l1 1v1l1 1h1l1 1h2v1zM236 164v1h-1v1h-1-1-1-1-2-1v1l-1 1h-1v28l1 1h1l1 1 3-1h2l1 1 1 1v2l-1 1-1 1h-16l-1-1h-1l-1 1h-1-1l-2-1-1-1 1-1v-1l1-1 1-1v1h4l2-1 2-1 1-2-1-1v-1-3-3-2l1-2-1-1v-1-1-1-1-2l1-2-1-1v-2-1-1-1h-1v-1h-1l-1-1v1h-1l-1 1h-2-1l-1-1h-1l-1-1 1-1v-1l1-1 1-1h11v-1l1 1h2v-1l1 1v1l1-1h1l1 1h1l-1-1h1l1-1v1h2v2h1v1zm-14 2v-1h-1v2h1v-1zM271 172v2l-1 1-1 1h-1v-1-1h-1v-1l-1-1v-1-1l-1-2 1-1v-1-1l-1-1h-4-1l-2 1h-1v10l1 2v2l-1 3 1 1v5h-1l1 1v1l-1 1 1 1v2l1 1 1 1h4l1 1v3h-1v1l-1-1h-1l-3 1h-3l-3 1h-3-1l-1-1h-2v-1-1-1h2l-1-1h3l1-1h2v-1-1l1-1-1-3v-2-1l1-1-1-1v-1-1-2-1-1-4-4-5-1h-1l-2-1h-4l-1 1-2 1v8h-1v2h-1-1v-1-1-1-1-1-1-1l-1-2v-2l1-2 1-2h27l2 1v6l1 2v2zM285 169l-1 1v5l-1 1v9l-1 1v2h1l-1 1v1l-1 1h-1l-1-1v-1-1-1-2-1-1l-1-1v-1-3-2-3-2l-1-2v-2-1l1-1v-2l1-1 1-1h2v1h1l1 1v5l1 1zm-2 29v2l-1 1-1 1h-2l-1-1-1-1v-2l1-2 3-1h1l1 1v2z"
     id="path16" />
</g>
<g
   aria-label="VICTORY"
   id="text30"
   style="font-size:59.6018px;line-height:1.25;font-family:'Special Elite';-inkscape-font-specification:'Special Elite';text-align:center;text-anchor:middle;stroke-width:0.745023" class="simpleton-text-2">
  <path
     d="m 82.696288,161.97555 q 0,1.04769 -0.349229,1.65884 -0.320127,0.58205 -0.873073,0.96038 -0.523844,0.34923 -1.222303,0.58205 -0.698458,0.20372 -1.426019,0.46564 -0.698459,0.23282 -1.396917,0.64026 -0.698459,0.37833 -1.251405,1.07679 -0.494742,0.64025 -0.756664,1.42602 -0.261922,0.75666 -0.465639,1.57153 -0.203717,0.81487 -0.465639,1.62973 -0.232819,0.78577 -0.756663,1.48423 -0.145513,0.20372 -0.261922,0.40743 -0.08731,0.17462 -0.08731,0.43654 0,0.34923 0.08731,0.69846 0.08731,0.32013 0.08731,0.64025 0,0.29103 -0.11641,1.01859 -0.08731,0.69846 -0.261922,1.60063 -0.174614,0.87307 -0.436536,1.83346 -0.23282,0.96038 -0.523844,1.77524 -0.261922,0.81487 -0.582049,1.36782 -0.291024,0.55295 -0.582049,0.64025 0.465639,1.30961 0.465639,2.85204 0,0.93128 -0.08731,1.28051 -0.05821,0.32013 -0.203717,0.43654 -0.11641,0.11641 -0.291025,0.23282 -0.145512,0.11641 -0.291024,0.58204 -0.349229,1.1059 -0.814868,2.18269 -0.436537,1.07679 -0.436537,2.24089 0,0.29102 -0.145512,0.87307 -0.11641,0.55294 -0.34923,1.13499 -0.232819,0.58205 -0.523843,1.01859 -0.291025,0.43654 -0.640254,0.43654 0.0291,0.29102 0.145512,0.55294 0.145512,0.26192 0.291024,0.52385 0.174615,0.23282 0.291025,0.52384 0.145512,0.26192 0.145512,0.55295 0,0.0873 -0.174615,0.52384 -0.145512,0.43654 -0.407434,0.96038 -0.261922,0.52384 -0.582049,1.01859 -0.320126,0.49474 -0.669356,0.69845 -0.232819,0.14552 -0.582049,0.29103 -0.320126,0.17461 -0.669356,0.29102 -0.349229,0.14552 -0.727561,0.23282 -0.349229,0.0873 -0.640253,0.0873 -0.145513,0 -0.611152,-0.17461 -0.436536,-0.14552 -0.96038,-0.37834 -0.494742,-0.20371 -0.960381,-0.40743 -0.436536,-0.23282 -0.523844,-0.32013 -0.232819,-0.23282 -0.494741,-0.93127 -0.23282,-0.72757 -0.494742,-1.57154 -0.232819,-0.87307 -0.436536,-1.65884 -0.203717,-0.81486 -0.34923,-1.2223 -0.378331,-1.01858 -0.727561,-2.00807 -0.349229,-1.01858 -0.640253,-2.03717 -0.145513,-0.46564 -0.261922,-0.90217 -0.11641,-0.46564 -0.320127,-0.87308 v -0.17461 q 0,-0.43654 0.145512,-0.81487 0.174615,-0.40743 0.174615,-0.84397 0,-0.29102 -0.145512,-0.64025 -0.34923,-1.1059 -0.640254,-2.21179 -0.291025,-1.10589 -0.611151,-2.21179 -0.145513,-0.52384 -0.407435,-1.07679 -0.232819,-0.55294 -0.465639,-1.10589 -0.232819,-0.58205 -0.407434,-1.13499 -0.145512,-0.58205 -0.145512,-1.1059 0,-0.84397 0.436537,-1.54243 -0.261922,-0.69845 -0.552947,-1.36781 -0.261922,-0.69846 -0.465639,-1.42602 -0.291024,-1.07679 -0.378332,-2.09538 -0.08731,-1.01858 -0.232819,-2.00806 -0.11641,-0.98949 -0.407434,-1.94987 -0.261922,-0.98948 -0.931278,-1.97896 -0.465639,-0.66936 -0.843971,-0.96038 -0.378332,-0.32013 -0.785766,-0.43654 -0.407434,-0.14551 -0.902176,-0.17462 -0.494741,-0.0291 -1.1932,-0.14551 -0.96038,-0.17461 -1.746146,-0.78576 -0.785766,-0.61115 -0.785766,-1.68795 0,-0.55294 0.349229,-0.90217 0.378332,-0.34923 0.960381,-0.55295 0.582048,-0.20371 1.309609,-0.29102 0.727561,-0.11641 1.42602,-0.17462 0.698459,-0.0873 1.30961,-0.14551 0.611151,-0.0582 0.96038,-0.20372 0.436537,-0.14551 0.843971,-0.26192 0.436537,-0.11641 0.931278,-0.11641 0.611152,0 1.1932,0.0873 0.582049,0.0873 1.193201,0.14551 0.698458,0.0582 1.338712,0.11641 0.669356,0.0582 1.222302,0.26192 0.582049,0.20372 1.018586,0.64026 0.436536,0.40743 0.669356,1.1932 0.145512,0.43653 0.145512,0.81487 0,0.61115 -0.349229,1.04768 -0.320127,0.40744 -0.814869,0.72757 -0.465639,0.29102 -1.018585,0.55294 -0.552946,0.23282 -0.989483,0.46564 l 0.0291,0.26192 q 0,0.52385 -0.174614,1.01859 -0.174615,0.49474 -0.669356,0.78576 0.494741,0.32013 0.611151,0.84397 0.11641,0.49475 0.11641,1.07679 0.0291,0.58205 0.08731,1.19321 0.05821,0.58204 0.436537,1.04768 0.494741,0.61115 0.611151,1.28051 0.145512,0.66936 0.145512,1.39692 v 1.07679 q 0,0.49474 0.0291,0.98948 0.0582,0.46564 0.232819,0.93128 0.08731,0.26192 0.203717,0.52384 0.11641,0.23282 0.11641,0.52385 0,0.26192 -0.145512,0.43653 -0.145512,0.17462 -0.378332,0.29103 0.320127,0.75666 0.640254,1.60063 0.320127,0.81487 1.018585,1.30961 -0.0291,0.14551 -0.0291,0.32013 0,0.17461 0,0.32013 0,0.40743 0.05821,0.87307 0.0582,0.46564 0.145512,0.93128 0.11641,0.46564 0.261922,0.90217 0.145512,0.43654 0.349229,0.78577 l 0.05821,0.0291 v 0.14551 q 0,0.37833 -0.23282,0.69846 -0.203717,0.29103 -0.203717,0.66936 0,0.29102 0.174615,0.66935 0.203717,0.34923 0.465639,0.72757 0.261922,0.34922 0.552946,0.69845 0.291025,0.32013 0.465639,0.52385 h 0.174615 q 0.640254,0 1.07679,-0.26192 0.436537,-0.29103 0.698459,-0.72757 0.291024,-0.43653 0.436537,-0.98948 0.174614,-0.55294 0.320126,-1.10589 0.08731,-0.29103 0.23282,-1.135 0.145512,-0.84397 0.378332,-1.74614 0.232819,-0.90218 0.523844,-1.60064 0.320126,-0.72756 0.669356,-0.72756 h 0.05821 q -0.05821,-0.26192 -0.203717,-0.49474 -0.145513,-0.23282 -0.320127,-0.46564 -0.145512,-0.26192 -0.261922,-0.49474 -0.11641,-0.23282 -0.11641,-0.49474 0,-0.23282 0.05821,-0.43654 0.08731,-0.23282 0.203717,-0.43653 0.349229,-0.75667 0.552946,-1.28051 0.23282,-0.55295 0.34923,-1.04769 0.145512,-0.52384 0.232819,-1.07679 0.08731,-0.58205 0.174615,-1.39692 0.0291,-0.23282 0.261922,-0.87307 0.232819,-0.66936 0.523844,-1.36782 0.320127,-0.72756 0.611151,-1.33871 0.291024,-0.64025 0.436537,-0.84397 v 0.0291 q 0.0291,-0.14551 0.0291,-0.23282 0.0291,-0.11641 0.0291,-0.26192 0,-0.17461 -0.08731,-0.34923 -0.05821,-0.17461 -0.05821,-0.34923 0,-0.40743 0.261922,-0.69845 0.261922,-0.32013 0.261922,-0.72757 0,-0.40743 -0.232819,-0.78576 -0.23282,-0.40744 -0.552947,-0.75667 -0.320127,-0.34922 -0.698458,-0.66935 -0.34923,-0.32013 -0.611152,-0.58205 H 67.3302 q -0.320127,-0.37833 -0.494742,-0.81487 -0.145512,-0.46564 -0.465639,-0.84397 -0.174615,-0.17461 -0.349229,-0.37833 -0.174615,-0.20372 -0.174615,-0.46564 0,-0.32013 0.145512,-0.72756 0.174615,-0.40744 0.261922,-0.72756 0.11641,-0.49474 0.203717,-0.69846 0.11641,-0.23282 0.261922,-0.32013 0.174615,-0.11641 0.407435,-0.14551 0.261922,-0.0582 0.698458,-0.20372 0.465639,-0.17461 0.931278,-0.17461 0.261922,0 0.494742,0.0291 0.261922,0.0291 0.494741,0.0291 0.320127,0 0.785766,-0.11641 0.465639,-0.14551 0.989483,-0.29102 0.552947,-0.17462 1.164098,-0.29103 0.611151,-0.14551 1.222302,-0.14551 0.698459,0 1.338713,0.23282 0.640253,0.23282 1.338712,0.23282 0.232819,0 0.465639,-0.0291 0.261922,-0.0291 0.494741,-0.0291 0.407435,0 0.756664,0.11641 0.378332,0.11641 0.727561,0.29102 0.436537,0.20372 0.902176,0.34923 0.465639,0.11641 0.931278,0.26192 0.494741,0.11641 0.96038,0.29103 0.465639,0.17461 0.873073,0.43653 v 0.49474 z"
     style="fill:#000000;stroke-width:0.745023"
     id="path32" />
  <path
     d="m 110.51822,164.01273 q 0,0.32012 -0.23282,0.58204 -0.20371,0.26193 -0.52384,0.52385 -0.29103,0.23282 -0.61115,0.43653 -0.32013,0.20372 -0.52385,0.37834 -0.49474,0.40743 -1.1932,0.40743 -0.46564,0 -0.90217,-0.11641 -0.40744,-0.11641 -0.87308,-0.11641 -0.20371,0 -0.32012,0.0873 -0.37833,0.23282 -0.72756,0.26192 -0.34923,0.0291 -0.75667,0.0291 -0.23282,0 -0.64025,-0.20371 -0.37833,-0.23282 -0.40743,-0.46564 l 0.20371,-0.20372 q -0.32012,0.11641 -0.43653,0.26192 -0.11641,0.14551 -0.17462,0.32013 -0.0291,0.17461 -0.0582,0.37833 -0.0291,0.20372 -0.14552,0.40743 -0.14551,0.29103 -0.46563,0.34923 -0.29103,0.0582 -0.61116,0.26193 -0.29102,0.20371 -0.52384,0.75666 -0.23282,0.52384 -0.23282,1.77525 0,0.55294 0.0582,1.07679 0.0582,0.52384 0.0582,1.04769 0,1.04768 -0.17461,2.09537 -0.17462,1.01859 -0.17462,2.09538 0,0.64025 -0.203716,1.2223 -0.174615,0.58205 -0.174615,1.2223 0,0.90218 0.756661,1.25141 -0.20371,0.0873 -0.32012,0.46564 -0.11641,0.34923 -0.203721,0.81487 -0.05821,0.43653 -0.08731,0.87307 0,0.40743 0,0.58205 0,0.11641 0,0.32012 0,0.20372 0.0291,0.43654 0.0291,0.20372 0.05821,0.40743 0.0291,0.17462 0.116411,0.26193 0.23282,0.23282 0.23282,0.58205 0,0.34922 -0.11641,0.69845 -0.11641,0.32013 -0.11641,0.66936 0,1.42602 0.17461,2.85204 0.20372,1.39692 0.20372,2.82294 0,0.93127 -0.20372,1.86255 -0.17461,0.93128 -0.17461,1.86256 0,0.84397 0.29102,1.33871 0.29103,0.49474 0.78577,0.75666 0.49474,0.26193 1.13499,0.34923 0.64026,0.0873 1.33872,0.0873 1.10589,0 2.18268,-0.17461 1.10589,-0.20372 2.18268,-0.20372 1.07679,0 1.65884,0.66936 0.61115,0.66935 0.61115,1.71704 0,0.78577 -0.26192,1.48422 -0.23282,0.66936 -0.69846,1.1641 -0.43653,0.52385 -1.07679,0.81487 -0.64025,0.29102 -1.45512,0.29102 -0.58205,0 -1.30961,-0.14551 -1.1641,-0.23282 -2.3282,-0.34923 -1.16409,-0.0873 -2.3864,-0.0873 -1.018581,0 -2.037166,0.0291 -1.018586,0.0582 -2.037171,0.0582 -1.222303,0 -2.415503,-0.0291 -1.1932,-0.0291 -2.415502,-0.0291 -0.436537,0 -0.843971,-0.14551 -0.407434,-0.14552 -0.814868,-0.14552 -0.291025,0 -0.669357,0.0873 -0.378331,0.11641 -0.814868,0.23282 -0.407434,0.11641 -0.873073,0.20372 -0.465639,0.11641 -0.931278,0.11641 -1.076791,0 -1.862556,-0.49474 -0.785766,-0.46564 -0.785766,-1.65884 0,-0.37833 0.08731,-0.72756 0.0291,-0.26193 0.261922,-0.72757 0.261922,-0.46563 0.582049,-0.90217 0.349229,-0.46564 0.698458,-0.78577 0.378332,-0.32012 0.669356,-0.32012 0.23282,0 0.436537,0.11641 0.23282,0.11641 0.494742,0.29102 0.291024,0.14551 0.669356,0.26192 0.378331,0.11641 0.902175,0.11641 1.047688,0 2.182683,-0.20371 1.134996,-0.20372 2.066274,-0.69846 0.96038,-0.52385 1.571532,-1.33872 0.611151,-0.84397 0.611151,-2.09537 0,-0.46564 -0.05821,-0.90218 -0.05821,-0.46564 -0.11641,-0.93128 -0.174614,-1.51332 -0.203717,-3.05575 -0.0291,-1.54243 -0.0291,-3.08486 0,-1.01859 0.261922,-1.94986 0.261922,-0.96038 0.261922,-1.97897 0,-0.58205 -0.203717,-1.10589 -0.203718,-0.52385 -0.203718,-1.07679 0,-0.26192 0.05821,-0.52385 0.08731,-0.26192 0.08731,-0.55294 0,-0.64026 -0.145513,-1.22231 -0.116409,-0.61115 -0.116409,-1.2223 0,-1.01858 0.203717,-2.03717 0.232819,-1.01858 0.232819,-2.03717 0,-0.61115 -0.145512,-1.2223 -0.145512,-0.61115 -0.320127,-1.1932 -0.145512,-0.58205 -0.291024,-1.1932 -0.145512,-0.61115 -0.145512,-1.22231 0,-0.37833 0.08731,-0.78576 -0.174615,-0.40744 -0.494742,-0.64025 -0.320126,-0.23282 -0.698458,-0.43654 -0.378332,-0.20372 -0.756664,-0.40744 -0.349229,-0.20371 -0.552946,-0.58204 -0.23282,0.0291 -0.291024,0.23282 -0.05821,0.17461 -0.08731,0.40743 -0.0291,0.20372 -0.116409,0.40743 -0.05821,0.17462 -0.320127,0.20372 -0.814869,0.0873 -1.658839,0.14551 -0.814869,0.0582 -1.629737,0.0582 -0.465639,0 -1.164098,-0.0582 -0.669356,-0.0582 -1.30961,-0.26192 -0.611151,-0.20372 -1.047688,-0.58205 -0.436536,-0.37833 -0.436536,-1.04769 0,-0.40743 0.174615,-0.84397 0.203717,-0.46564 0.465639,-0.90217 0.291024,-0.43654 0.611151,-0.81487 0.349229,-0.40743 0.611151,-0.69846 0.203717,-0.20372 0.611151,-0.34923 0.407435,-0.14551 0.902176,-0.20372 0.523844,-0.0582 1.105893,-0.0873 0.582049,-0.0291 1.164097,-0.0291 0.727561,0 1.338713,0.0291 0.640253,0 1.047688,0 0.727561,0 1.775248,-0.0291 1.076791,-0.0582 2.037171,-0.14551 0.989483,-0.0873 1.687942,-0.17461 0.727561,-0.11641 0.756663,-0.23282 0.174615,0.0873 0.407435,0.29102 0.261922,0.17462 0.523843,0.34923 0.291025,0.17462 0.552947,0.32013 0.261926,0.14551 0.407436,0.14551 0.17461,0 0.26192,-0.11641 0.11641,-0.14551 0.17461,-0.32013 0.0873,-0.17461 0.11641,-0.34922 0.0291,-0.20372 0.0291,-0.32013 h 0.20371 q 0.64026,0 0.84397,0.37833 0.23282,0.37833 0.23282,0.90218 0,0.11641 -0.0291,0.20371 0,0.0873 0,0.17462 0.29103,-0.0582 0.40744,-0.26192 0.14551,-0.23282 0.23282,-0.46564 0.0873,-0.23282 0.20371,-0.40744 0.14551,-0.17461 0.46564,-0.17461 0.11641,0 0.34923,0.0582 h 0.20372 q 0.64025,0.52385 0.98948,0.81487 0.37833,0.29103 0.58205,0.43654 0.20372,0.11641 0.26192,0.14551 0.0582,0.0291 0.0873,0.0291 0.0582,0 0.20372,0.0291 0.17461,0.0291 0.17461,0 0,-0.11641 -0.14551,-0.20371 -0.11641,-0.11641 -0.29103,-0.23282 -0.14551,-0.11641 -0.29102,-0.26192 -0.11641,-0.14552 -0.11641,-0.32013 0.34923,0 0.55295,-0.0873 0.20371,-0.11641 0.34923,-0.23282 0.14551,-0.14551 0.29102,-0.26192 0.17461,-0.11641 0.43654,-0.11641 0.37833,0 0.58205,0.11641 0.20371,0.11641 0.34922,0.26192 0.14552,0.11641 0.26193,0.23282 0.11641,0.11641 0.32012,0.11641 0.14552,0 0.23282,-0.0291 0.11641,-0.0291 0.26193,-0.0291 0.20371,0 0.26192,0.17461 0.0582,0.17462 0.0873,0.32013 0.0873,0.43653 0.14552,0.66935 0.0582,0.23282 0.14551,0.40744 0.0873,0.17461 0.20372,0.37833 0.14551,0.17461 0.37833,0.52384 0.17461,0.23282 0.17461,0.49475 z m -14.580321,1.92076 q 0.174615,-0.23282 -0.08731,-0.52385 -0.261922,-0.29102 -0.582049,-0.29102 -0.349229,0 -0.465639,0.34923 -0.08731,0.32012 -0.08731,0.58205 0.05821,0.20371 0.174615,0.32012 0.08731,0.11641 0.203717,0.20372 0.116409,0.0873 0.261922,0.0873 0.232819,0 0.349229,-0.0873 0.11641,-0.11641 0.174615,-0.26192 0.0582,-0.14551 0.0582,-0.37833 z"
     style="fill:#000000;stroke-width:0.745023"
     id="path34" />
  <path
     d="m 143.75321,187.00365 q 0,0.58205 -0.0582,1.1932 -0.0291,0.58205 -0.17461,1.1641 -0.11641,0.49474 -0.32013,0.93128 -0.17461,0.40743 -0.23282,0.90218 -0.0582,0.29102 -0.11641,0.64025 -0.0582,0.32013 -0.43654,0.32013 l -0.23281,-0.0291 q -0.46564,0 -0.69846,0.37834 -0.23282,0.34922 -0.37834,0.87307 -0.1164,0.49474 -0.20371,1.01858 -0.0582,0.52385 -0.14551,0.84397 -0.0873,0.32013 -0.11641,0.58205 0,0.23282 -0.0291,0.43654 0,0.17461 -0.11641,0.37833 -0.11641,0.20372 -0.40743,0.43654 -0.46564,0.34923 -0.90218,0.66935 -0.43653,0.32013 -0.78576,0.75667 -0.26192,0.32012 -0.34923,0.55294 -0.0873,0.23282 -0.17462,0.43654 -0.0873,0.20372 -0.29102,0.37833 -0.17462,0.14551 -0.61115,0.29103 -0.66936,0.23282 -1.28051,0.52384 -0.61115,0.29103 -1.2514,0.52385 -0.75667,0.29102 -1.42602,0.66935 -0.66936,0.34923 -1.36782,0.66936 -0.69846,0.32012 -1.45512,0.52384 -0.72756,0.23282 -1.57153,0.23282 -0.75667,0 -1.51333,-0.23282 -0.72756,-0.23282 -1.36781,-0.64025 -0.61116,-0.0582 -0.93128,-0.43654 -0.32013,-0.37833 -0.52385,-0.90217 -0.17461,-0.40744 -0.34923,-0.58205 -0.14551,-0.17462 -0.34922,-0.23282 -0.17462,-0.0873 -0.40744,-0.14552 -0.23282,-0.0582 -0.55295,-0.26192 -1.3096,-0.84397 -2.3864,-2.09537 -1.07679,-1.28051 -2.00806,-2.56102 -0.20372,-0.29102 -0.32013,-0.66935 -0.0873,-0.40744 -0.17462,-0.78577 -0.0873,-0.40743 -0.20371,-0.75666 -0.0873,-0.37834 -0.29103,-0.58205 -0.37833,-0.37833 -0.66935,-0.40744 -0.29103,-0.0291 -0.49474,-0.11641 -0.17462,-0.11641 -0.29103,-0.49474 -0.0873,-0.40743 -0.0873,-1.48422 0,-0.66936 -0.11641,-1.39692 -0.11641,-0.72756 -0.29102,-1.48422 -0.14551,-0.78577 -0.26192,-1.57154 -0.11641,-0.81486 -0.11641,-1.60063 0,-0.84397 0.0873,-1.68794 0.11641,-0.84397 0.26192,-1.68794 0.14551,-0.84397 0.29102,-1.65884 0.14551,-0.84397 0.20372,-1.68794 0.0582,-0.78577 0.0582,-1.60064 0.0291,-0.81487 0.0582,-1.62973 0.0582,-0.81487 0.17461,-1.60064 0.11641,-0.78576 0.40744,-1.54243 0.29102,-0.81487 0.72756,-1.54243 0.46564,-0.72756 0.90217,-1.45512 0.43654,-0.72756 0.81487,-1.48422 0.37833,-0.75667 0.58205,-1.62974 0.11641,-0.55295 0.72756,-1.01859 0.61115,-0.49474 1.51333,-0.90217 0.90217,-0.43654 1.94986,-0.75667 1.07679,-0.34922 2.12448,-0.58204 1.04769,-0.26193 1.92076,-0.37834 0.90218,-0.14551 1.45512,-0.14551 1.45513,0 2.73563,0.37833 1.28051,0.34923 2.59012,0.93128 0.58205,0.26192 1.25141,0.43654 0.69845,0.14551 1.30961,0.14551 0.61115,0 0.90217,-0.20372 0.32013,-0.23282 0.49474,-0.52384 0.17462,-0.32013 0.29103,-0.58205 0.11641,-0.29102 0.34923,-0.43654 l -0.0873,0.0291 q 0.0582,-0.0582 0.20372,-0.0582 0.14551,-0.0291 0.32012,-0.0291 0.23282,0.0291 0.55295,0.11641 0.34923,0.0873 0.69846,0.20372 0.34923,0.11641 0.64025,0.26192 0.32013,0.11641 0.46564,0.23282 0.0873,0.0582 0.29103,0.37833 0.20371,0.32013 0.40743,0.69846 0.23282,0.37833 0.37833,0.69846 0.17462,0.32012 0.17462,0.40743 0,0.72756 0.20371,1.36782 0.23282,0.64025 0.23282,1.36781 0,0.75666 -0.23282,1.48422 -0.20371,0.72757 -0.20371,1.48423 0,0.93128 0.0291,1.83345 0.0582,0.87308 0.0582,1.80435 0,0.84397 -0.0873,1.68795 -0.0582,0.81486 -0.23282,1.62973 -0.0582,0.23282 -0.11641,0.55295 -0.0582,0.32013 -0.17462,0.61115 -0.0873,0.29102 -0.26192,0.49474 -0.14551,0.20372 -0.40743,0.20372 -0.26193,0 -0.46564,-0.0873 -0.14552,0.0291 -0.26193,0.0582 -0.11641,0 -0.26192,0 -0.26192,0 -0.32012,-0.0873 -0.0582,-0.0873 -0.0582,-0.20372 0,-0.14551 -0.0582,-0.29102 -0.0291,-0.17462 -0.29103,-0.32013 -0.17461,-0.11641 -0.46564,-0.14551 -0.29102,-0.0291 -0.58205,-0.0582 -0.26192,-0.0582 -0.46564,-0.17461 -0.20371,-0.14551 -0.20371,-0.43654 0,-0.32012 0.11641,-0.32012 0.14551,-0.0291 0.32012,0.0873 0.20372,0.11641 0.43654,0.23282 0.23282,0.0873 0.43654,0 -0.40744,-0.46564 -0.72756,-0.96038 -0.29103,-0.52384 -0.61115,-1.04769 -0.29103,-0.52384 -0.61116,-1.04768 -0.32012,-0.52385 -0.72756,-0.96038 -0.34923,-0.37834 -0.58205,-0.87308 -0.23282,-0.49474 -0.46563,-0.98948 -0.20372,-0.52384 -0.46564,-0.96038 -0.23282,-0.46564 -0.61116,-0.75666 -1.33871,-1.01859 -2.96844,-1.77525 -1.60064,-0.78577 -3.34678,-0.78577 -1.22231,0 -2.27,0.37833 -1.01858,0.34923 -2.03717,0.96038 -0.40743,0.23282 -0.78576,0.40744 -0.34923,0.17461 -0.69846,0.40743 -0.32013,0.20372 -0.58205,0.52384 -0.23282,0.29103 -0.34923,0.81487 -0.14551,0.52385 -0.14551,1.07679 0.0291,0.55295 -0.26192,1.01859 -0.14552,0.23282 -0.46564,0.37833 -0.29103,0.14551 -0.37833,0.43654 -0.23282,0.66935 -0.29103,1.39691 -0.0291,0.72757 -0.0582,1.48423 0,0.75666 -0.0291,1.54243 -0.0291,0.75666 -0.23282,1.45512 -0.17461,0.58205 -0.26192,1.1641 -0.0582,0.58205 -0.0582,1.1641 0,1.10589 0.0582,2.18268 0.0873,1.04769 0.0873,2.12448 0,1.30961 0.11641,2.56101 0.14551,1.25141 0.49474,2.50281 0.26192,0.93128 0.72756,1.80435 0.46564,0.84397 0.69846,1.77525 0.11641,0.49474 0.40744,1.04769 0.32012,0.55295 0.72756,1.01859 0.43653,0.46563 0.96038,0.78576 0.52384,0.29103 1.07679,0.29103 0.40743,0 0.78576,-0.0873 0.37833,-0.11641 0.78577,-0.11641 0.43654,0 0.87307,0.0873 0.43654,0.0582 0.87308,0.0582 0.78576,0 1.62973,-0.20372 0.87308,-0.20371 1.45512,-0.81486 0.40744,-0.43654 0.93128,-0.61116 0.52385,-0.17461 1.04769,-0.29102 0.55295,-0.11641 1.04769,-0.29102 0.49474,-0.20372 0.87307,-0.69846 0.23282,-0.32013 0.46564,-0.98949 0.26192,-0.66935 0.52384,-1.39691 0.26193,-0.72756 0.52385,-1.30961 0.29102,-0.61115 0.58205,-0.75667 0.26192,-0.14551 0.32012,-0.72756 0.0873,-0.61115 0.0873,-1.42602 v -1.33871 q 0,-0.58205 0.0291,-1.135 0.0291,-0.55294 0.11641,-0.98948 0.11641,-0.43653 0.32013,-0.69846 0.20372,-0.26192 0.55295,-0.26192 0.32012,0 0.49474,0.23282 0.20372,0.20372 0.49474,0.20372 0.29102,0 0.55295,-0.17462 0.29102,-0.20371 0.61115,-0.20371 0.43653,0 0.78576,0.37833 0.37833,0.37833 0.66936,0.84397 0.32013,0.46564 0.49474,0.87307 0.20372,0.37833 0.29103,0.40744 0.29102,0.0582 0.32012,0.49474 0.0582,0.40743 0.0582,0.66935 z"
     style="fill:#000000;stroke-width:0.745023"
     id="path36" />
  <path
     d="m 180.33498,172.16141 q 0,0.52384 -0.0291,1.07679 0,0.52384 -0.11641,1.01858 -0.0582,0.26193 -0.26192,0.58205 -0.20372,0.29103 -0.49474,0.58205 -0.26192,0.26192 -0.58205,0.46564 -0.32013,0.17462 -0.58205,0.17462 -0.43653,0 -0.55294,-0.34923 -0.11641,-0.34923 -0.17462,-0.75667 -0.0291,-0.40743 -0.17461,-0.75666 -0.11641,-0.34923 -0.58205,-0.34923 -0.14551,0 -0.26192,0.0582 -0.0873,0.0582 -0.23282,0.0582 -0.0582,0 -0.11641,-0.34923 -0.0582,-0.34923 -0.14552,-0.84397 -0.0873,-0.49474 -0.20371,-0.98948 -0.11641,-0.52385 -0.26192,-0.87308 -0.26193,-0.55294 -0.55295,-1.13499 -0.26192,-0.61115 -0.26192,-1.28051 0,-0.46564 0.17461,-0.78576 0.17462,-0.34923 0.37833,-0.64026 0.20372,-0.29102 0.37833,-0.58205 0.17462,-0.29102 0.17462,-0.69846 0,-0.58204 -0.37833,-1.01858 -0.37833,-0.43654 -0.96038,-0.69846 -0.55295,-0.29102 -1.1932,-0.40743 -0.61115,-0.14552 -1.07679,-0.14552 -0.78577,0 -1.54243,0.20372 -0.72756,0.17462 -1.48423,0.43654 -0.72756,0.26192 -1.45512,0.55294 -0.72756,0.29103 -1.45512,0.49475 0.14551,0.40743 0.17461,0.84397 0.0582,0.43653 0.0582,0.87307 0,0.98948 -0.0873,1.97897 -0.0873,0.96038 -0.0873,1.94986 0,1.07679 0.11641,2.15358 0.11641,1.04769 0.23282,2.09538 0.14552,1.04768 0.26192,2.12447 0.11641,1.04769 0.11641,2.09538 0,1.28051 -0.43653,2.50281 -0.0873,0.23282 -0.0873,0.37833 0,0.32013 0.14551,0.64025 0.14552,0.29103 0.32013,0.64026 0.20372,0.32013 0.34923,0.66935 0.14551,0.34923 0.14551,0.72757 0,0.34922 -0.11641,0.66935 -0.11641,0.32013 -0.11641,0.64026 0,0.46563 0.11641,0.90217 0.14551,0.43654 0.14551,0.90218 0,0.26192 -0.14551,0.32012 -0.11641,0.0582 -0.29102,0.0582 -0.17462,0 -0.32013,0.0291 -0.11641,0 -0.11641,0.14551 0,0.43654 0.17462,0.84397 0.20371,0.37834 0.20371,0.81487 0,0.37833 -0.17461,0.72756 -0.14551,0.32013 -0.14551,0.69846 0,0.37833 0.32012,0.66936 0.34923,0.29102 0.49474,0.69846 0.14552,0.49474 0.23282,1.13499 0.11641,0.64026 0.40744,1.2223 0.32012,0.58205 0.96038,0.98949 0.64025,0.37833 1.89166,0.37833 h 0.84397 q 0.34923,0 0.84397,0.0582 0.52384,0.0582 0.98948,0.23282 0.49474,0.14552 0.81487,0.46564 0.34923,0.29103 0.34923,0.75667 0,0.46564 -0.17462,0.90217 -0.17461,0.43654 -0.17461,0.90218 0,0.14551 0.0582,0.43653 -0.43653,0 -0.78576,0.20372 -0.32013,0.17462 -0.46564,0.61115 -0.58205,-0.11641 -1.1932,-0.14551 -0.58205,-0.0582 -1.1641,-0.0582 -1.48422,0 -2.93934,0.23281 -1.45513,0.20372 -2.93935,0.46564 -1.45512,0.23282 -2.93935,0.46564 -1.45512,0.20372 -2.93934,0.20372 -0.49475,0 -1.22231,-0.0291 -0.72756,-0.0291 -1.39691,-0.20372 -0.66936,-0.17461 -1.1641,-0.52384 -0.46564,-0.37834 -0.46564,-1.07679 0,-0.81487 0.14551,-1.1932 0.17462,-0.40744 0.40744,-0.55295 0.23282,-0.17461 0.52384,-0.20372 0.32013,-0.0291 0.61115,-0.11641 0.0873,-0.0873 0.0873,-0.17461 0,-0.14551 -0.14551,-0.23282 -0.11641,-0.11641 -0.26193,-0.17462 0.49475,-0.43653 1.1059,-0.61115 0.64025,-0.17461 1.2805,-0.23282 0.66936,-0.0582 1.33872,-0.11641 0.66935,-0.0582 1.2514,-0.29102 0.23282,-0.0873 0.49474,-0.49474 0.26192,-0.40744 0.46564,-0.90218 0.23282,-0.49474 0.34923,-0.98948 0.14551,-0.49474 0.14551,-0.75666 v -0.0582 q -0.20371,-1.39692 -0.32012,-2.73563 -0.11641,-1.33871 -0.11641,-2.73563 0,-0.11641 0.0873,-0.37833 0.0873,-0.29102 0.23282,-0.58205 0.11641,-0.32013 0.32013,-0.72756 -0.23282,-0.37833 -0.40743,-0.69846 -0.14552,-0.29102 -0.26193,-0.55294 -0.11641,-0.26193 -0.11641,-0.40744 0,-0.34923 0.11641,-0.66936 0.11641,-0.32012 0.17462,-0.64025 0.17461,-1.2223 0.17461,-2.47371 0,-0.52384 -0.0873,-1.01858 -0.0582,-0.52385 -0.17462,-1.01859 -0.37833,-1.77525 -0.37833,-3.6669 0,-2.21179 0.29102,-4.39447 0.29103,-2.18269 0.29103,-4.39447 0,-0.75667 -0.26192,-1.1641 -0.26193,-0.43654 -1.01859,-0.66936 -1.01858,-0.29102 -2.12448,-0.46563 -1.07679,-0.17462 -2.15358,-0.17462 -0.81487,0 -1.71704,0.20372 -0.87307,0.17461 -1.62974,0.61115 -0.72756,0.40743 -1.2223,1.10589 -0.46564,0.66936 -0.46564,1.62974 0,0.49474 0.0582,0.96038 0.0582,0.46564 0.0582,0.96038 0,0.46564 -0.20372,0.81487 -0.17461,0.32012 -0.17461,0.64025 0,0.43654 0.23282,0.81487 0.23282,0.37833 0.23282,0.81487 0,0.29102 -0.14551,0.64025 -0.11641,0.34923 -0.29103,0.72756 -0.17461,0.34923 -0.34923,0.69846 -0.14551,0.34923 -0.23282,0.64026 -0.14551,0.43653 -0.37833,0.75666 -0.23282,0.32013 -0.72756,0.32013 -0.40743,0 -0.75666,-0.26193 -0.34923,-0.29102 -0.34923,-0.69845 0,-0.32013 0.14551,-0.49475 0.17461,-0.20371 0.17461,-0.46564 0,-0.29102 -0.11641,-0.58204 -0.11641,-0.32013 -0.29102,-0.61116 -0.14551,-0.32012 -0.26192,-0.64025 -0.11641,-0.32013 -0.11641,-0.64025 0,-0.40744 0.11641,-0.78577 0.14551,-0.37833 0.14551,-0.78576 0,-0.87308 -0.29102,-1.71705 -0.26193,-0.84397 -0.26193,-1.71704 0,-0.78577 0.17462,-1.86256 0.17461,-1.07679 0.58205,-2.06627 0.43653,-0.98949 1.10589,-1.65884 0.69846,-0.69846 1.74615,-0.69846 0.72756,0 1.42602,0.17461 0.72756,0.14552 1.48422,0.14552 0.84397,0 1.68794,-0.14552 0.84397,-0.14551 1.68794,-0.14551 0.58205,0 1.07679,0.20372 0.52385,0.17461 1.1059,0.17461 0.34923,0 0.58204,-0.14551 0.26193,-0.17461 0.58205,-0.17461 0.34923,0 0.66936,0.17461 0.34923,0.14551 0.69846,0.14551 0.32013,0 0.58205,-0.0873 0.29102,-0.0873 0.58205,-0.0873 0.43653,0 0.84397,0.11641 0.43653,0.11641 0.84397,0.11641 l 3.52139,-0.43654 q 0.78577,-0.0582 1.57153,-0.11641 0.78577,-0.0582 1.60064,-0.0582 1.39692,0 2.76473,0.23282 1.39692,0.20371 2.79384,0.52384 v 0.0291 q 0.96038,0.23282 1.36781,0.98949 0.40743,0.75666 0.52384,1.74614 0.14552,0.96038 0.11641,1.97897 -0.0291,1.01858 0.0291,1.74615 0.0873,1.10589 0.20371,2.24088 0.14552,1.1059 0.14552,2.21179 z"
     style="fill:#000000;stroke-width:0.745023"
     id="path38" />
  <path
     d="m 216.2765,182.95841 q 0,0.61116 -0.11641,1.1932 -0.11641,0.55295 -0.26192,1.135 -0.14551,0.55295 -0.26192,1.135 -0.11641,0.58204 -0.11641,1.16409 0,0.23282 0.0291,0.46564 0.0582,0.20372 0.0582,0.43654 0,0.58205 -0.20372,1.10589 -0.17462,0.52385 -0.43654,1.01859 -0.23282,0.43653 -0.29102,0.90217 -0.0291,0.46564 -0.0582,0.93128 0,0.46564 -0.0873,0.93128 -0.0873,0.46564 -0.34923,0.87307 -0.0582,0.29103 -0.17462,0.87307 -0.0873,0.55295 -0.23282,0.78577 -0.0291,0.0582 -0.17461,0.0873 -0.14551,0.0291 -0.32013,0.0582 -0.17461,0.0291 -0.37833,0.11641 -0.20372,0.0873 -0.34923,0.26192 -0.14551,0.14552 -0.23282,0.40744 -0.0873,0.26192 -0.20372,0.52384 -0.11641,0.26192 -0.29102,0.46564 -0.14551,0.17462 -0.40744,0.17462 -0.26192,0 -0.46563,-0.0873 -0.20372,-0.11641 -0.40744,-0.20372 -0.20372,-0.11641 -0.40743,-0.17461 -0.20372,-0.0582 -0.49474,0.0291 0.0873,0.0582 0.0582,0.29102 -0.0291,0.20372 0,0.43654 0.0582,0.23282 0.26192,0.43654 0.20372,0.20371 0.72756,0.20371 0.26193,0 0.49474,-0.0291 0.26193,-0.0291 0.52385,-0.0873 -0.23282,0.64026 -0.55295,1.01859 -0.32012,0.34923 -0.72756,0.64025 -0.37833,0.26193 -0.81487,0.55295 -0.40743,0.26192 -0.81487,0.69846 -0.49474,0.49474 -0.96038,0.61115 -0.43653,0.11641 -1.04768,0.29102 -0.69846,0.20372 -0.98949,0.49475 -0.29102,0.29102 -0.64025,0.55294 -0.34923,0.26192 -0.96038,0.43654 -0.58205,0.20372 -1.86256,0.20372 -1.16409,0 -2.32819,-0.0873 -1.135,-0.0873 -2.26999,-0.23282 -0.52385,-0.0582 -0.87308,-0.20372 -0.32012,-0.11641 -0.61115,-0.29102 -0.29102,-0.14551 -0.58205,-0.32013 -0.29102,-0.17461 -0.72756,-0.34923 -0.23282,-0.0873 -0.55294,-0.23282 -0.32013,-0.11641 -0.66936,-0.26192 -0.34923,-0.14551 -0.64025,-0.29102 -0.29103,-0.17462 -0.46564,-0.32013 -0.20372,-0.17462 -0.29103,-0.37833 -0.0582,-0.23282 -0.11641,-0.46564 -0.0582,-0.26192 -0.14551,-0.46564 -0.0582,-0.23282 -0.26192,-0.37833 -0.43654,-0.0582 -0.84397,-0.14551 -0.40744,-0.11641 -0.81487,-0.26193 -0.11641,-0.32012 -0.23282,-0.61115 -0.0873,-0.32012 -0.20372,-0.64025 -0.37833,-0.40744 -0.72756,-0.66936 -0.34923,-0.29102 -0.61115,-0.58205 -0.26192,-0.29102 -0.46564,-0.66935 -0.17461,-0.40744 -0.23282,-1.04769 -0.0873,-0.75666 -0.34923,-1.45512 -0.26192,-0.72756 -0.55294,-1.42602 -0.26192,-0.69846 -0.49474,-1.42602 -0.20372,-0.72756 -0.20372,-1.48423 0,-0.78576 0.32013,-1.60063 -0.84398,-1.1932 -1.04769,-2.59012 -0.20372,-1.42602 -0.20372,-2.85204 0,-0.46564 0,-0.90217 0.0291,-0.46564 0.0291,-0.90218 0,-0.49474 -0.23282,-0.75666 -0.20371,-0.29103 -0.20371,-0.69846 0,-0.64025 0.17461,-1.25141 0.20372,-0.61115 0.26192,-1.2514 -0.37833,-0.0582 -0.49474,-0.29102 l 0.0582,-0.11641 q 0.20371,-0.34923 0.32012,-0.64026 0.14552,-0.29102 0.20372,-0.55294 0.0582,-0.26193 0.11641,-0.55295 0.0582,-0.29103 0.14551,-0.66936 0.23282,-1.1932 0.58205,-2.32819 0.37833,-1.135 0.72756,-2.2991 0.37833,-1.33871 0.93128,-2.35729 0.55295,-1.01859 1.71704,-1.89166 0.49475,-0.40744 0.90218,-0.87307 0.40743,-0.46564 0.58205,-1.1059 0.14551,-0.11641 0.32013,-0.14551 0.17461,-0.0291 0.34922,-0.0291 h 0.23282 q 0.20372,0 0.37834,-0.0291 0.20371,-0.0582 0.37833,-0.20372 0.43653,-0.40744 0.75666,-0.58205 0.34923,-0.17462 0.93128,-0.17462 0.40743,0 0.78577,0.0873 0.37833,0.0582 0.78576,0.14551 0.14551,-0.14551 0.40744,-0.37833 0.29102,-0.26192 0.49474,-0.34923 v 0.0873 q 0,0.11641 0.0291,0.23282 0.0582,0.0873 0.20372,0.0873 0.37833,0 0.72756,-0.17462 0.34923,-0.17461 0.72756,-0.23282 0.84397,-0.14551 1.68794,-0.43653 0.84397,-0.32013 1.71704,-0.32013 0.93128,0 1.97897,0.11641 1.07679,0.11641 2.09538,0.43654 1.01858,0.32012 1.89165,0.90217 0.87308,0.55295 1.39692,1.45512 0.23282,0.40744 0.46564,0.64026 0.23282,0.20371 0.46564,0.37833 0.23282,0.14551 0.46564,0.32013 0.23282,0.14551 0.49474,0.43653 0.55295,0.64026 0.87307,1.39692 0.34923,0.72756 0.96038,1.30961 0.75667,0.69846 1.1059,1.68794 0.37833,0.98948 0.37833,2.00807 0,0.32013 -0.0873,0.64025 -0.0873,0.32013 -0.0873,0.66936 0,0.29102 0.11641,0.61115 0.14552,0.32013 0.32013,0.66936 0.17461,0.34923 0.32013,0.72756 0.14551,0.37833 0.20371,0.72756 0.0873,0.78576 0.26193,1.54243 0.17461,0.72756 0.34923,1.51333 0.23281,0.98948 0.34922,2.00806 0.11641,1.01859 0.0873,2.03717 z m -4.7437,-0.20371 q 0,-1.62974 -0.29102,-3.23037 -0.26192,-1.60064 -0.52384,-3.20127 -0.11641,-0.58205 -0.37834,-1.10589 -0.23282,-0.52385 -0.40743,-1.0768 -0.34923,-1.04768 -0.66936,-2.09537 -0.32012,-1.04769 -0.64025,-2.09538 -0.20372,-0.64025 -0.81487,-1.10589 -0.61115,-0.49474 -1.42602,-0.81487 -0.81487,-0.34923 -1.77525,-0.55294 -0.93127,-0.23282 -1.80435,-0.34923 -0.87307,-0.14552 -1.62973,-0.17462 -0.72757,-0.0582 -1.1059,-0.0582 l 0.37833,-0.0291 -0.32012,0.0291 q -0.64026,0 -1.28051,-0.0582 -0.61115,-0.0582 -1.2514,-0.0582 -0.52385,0 -1.04769,0.0873 -0.49474,0.0582 -0.90218,0.37834 -0.96038,0.75666 -1.80435,1.42602 -0.84397,0.64025 -1.39692,1.77524 -0.17461,0.37834 -0.37833,0.55295 -0.20372,0.14551 -0.40743,0.32013 -0.17462,0.14551 -0.32013,0.34923 -0.14551,0.20371 -0.20372,0.66935 -0.14551,0.84397 -0.34923,1.68795 -0.17461,0.81486 -0.17461,1.65883 0,0.90218 -0.17462,1.80436 -0.14551,0.87307 -0.49474,1.71704 -0.0873,0.23282 -0.17461,0.43654 -0.0582,0.20371 -0.0582,0.43653 0,0.43654 0.20372,0.75667 0.20372,0.29102 0.20372,0.52384 0,0.11641 -0.0873,0.14551 -0.0582,0 -0.14551,0.0582 -0.0582,0.0291 -0.14551,0.17461 -0.0582,0.14551 -0.0582,0.52385 0,0.84397 0,1.71704 0.0291,0.87307 0.17462,1.71704 0.0873,0.49475 0.29102,0.96038 0.23282,0.43654 0.23282,0.93128 0,0.32013 -0.14551,0.64026 -0.14551,0.32012 -0.14551,0.66935 0,0.40744 0.23281,0.66936 0.23282,0.23282 0.46564,0.55295 0.17462,0.23281 0.29103,0.61115 0.14551,0.34923 0.26192,0.66935 0.14551,0.32013 0.26192,0.55295 0.11641,0.23282 0.26192,0.23282 0.11641,0 0.20372,-0.0291 0.0873,-0.0582 0.20372,-0.0582 0.58205,0 0.87307,0.52384 0.32013,0.49475 0.32013,0.98949 0,0.40743 0.23282,0.69846 0.23282,0.26192 0.55294,0.49474 0.32013,0.23282 0.64026,0.46564 0.34923,0.20371 0.58205,0.46564 0.37833,0.43653 0.58205,0.58204 0.23282,0.14552 0.40743,0.20372 0.17461,0.0291 0.32013,0.0582 0.17461,0.0291 0.43653,0.20371 0.32013,0.23282 0.64026,0.52385 0.34923,0.26192 0.66935,0.49474 0.90218,0.64025 2.00807,0.78577 1.135,0.11641 2.21179,0.11641 0.43653,0 0.81487,-0.20372 0.37833,-0.20372 0.75666,-0.43654 0.37833,-0.26192 0.75666,-0.46564 0.40744,-0.20371 0.87308,-0.20371 0.37833,0 0.78576,0.17461 0.66936,-1.01859 1.28051,-1.62974 0.61115,-0.61115 1.10589,-1.1932 0.49474,-0.58205 0.84397,-1.33871 0.34923,-0.75666 0.49474,-2.06627 0.0582,-0.55295 0.29103,-1.01859 0.26192,-0.49474 0.32013,-1.01858 0.14551,-1.1641 0.14551,-2.3282 0.0291,-1.1641 0.20371,-2.32819 0.0582,-0.46564 0.0873,-0.93128 0.0291,-0.46564 0.0291,-0.96038 z"
     style="fill:#000000;stroke-width:0.745023"
     id="path40" />
  <path
     d="m 256.05953,197.94617 q 0,0.26192 -0.0291,0.69846 -0.0291,0.43654 -0.29103,0.58205 -0.29102,0.14551 -0.37833,0.49474 -0.0582,0.34923 -0.0582,0.69846 0,0.34923 -0.0291,0.64025 -0.0291,0.26192 -0.23282,0.26192 -0.14551,0 -0.23281,-0.0582 -0.0873,-0.0873 -0.23282,-0.0873 -0.14552,0 -0.29103,0.14551 -0.14551,0.14552 -0.14551,0.29103 0,0.14551 0.0873,0.23282 0.11641,0.0582 0.11641,0.20372 0,0.11641 -0.43654,0.29102 -0.43654,0.14551 -0.98948,0.29102 -0.55295,0.17462 -1.07679,0.26193 -0.52385,0.11641 -0.69846,0.11641 -1.04769,0 -2.09538,-0.37834 -1.04769,-0.37833 -2.03717,-0.69845 -1.1932,-0.40744 -1.77525,-1.33872 -0.55294,-0.93127 -0.81487,-2.09537 -0.26192,-1.1641 -0.40743,-2.3864 -0.11641,-1.2223 -0.46564,-2.18269 -0.14551,-0.43653 -0.14551,-0.72756 0,-0.29102 0.0582,-0.46564 0.0873,-0.20371 0.17462,-0.32012 0.11641,-0.14551 0.17461,-0.23282 0.0873,-0.11641 0.0873,-0.23282 0,-0.34923 -0.20372,-0.69846 -0.20371,-0.34923 -0.20371,-0.93128 0,-0.32012 0,-0.61115 0.0291,-0.32013 0.0291,-0.64025 0,-1.07679 -0.20372,-1.77525 -0.17461,-0.69846 -0.52384,-1.28051 -0.32013,-0.58205 -0.78577,-1.1641 -0.43654,-0.58205 -0.98948,-1.39691 -0.26192,0.0582 -0.55295,0.0582 -0.26192,0 -0.55294,0 -0.58205,0 -1.1641,-0.0582 -0.55295,-0.0582 -1.135,-0.0582 -0.61115,0 -1.2514,0.11641 -0.61115,0.11641 -1.25141,0.11641 -0.40743,0 -0.81487,-0.11641 -0.40743,-0.14551 -0.81486,-0.14551 -0.49475,0 -0.98949,0.20372 -0.49474,0.17461 -0.90217,0.52384 -0.40744,0.32013 -0.66936,0.78577 -0.23282,0.43653 -0.23282,0.96038 v 0.93127 q 0,2.53192 -0.43653,4.97652 -0.0582,0.37833 -0.11641,0.75667 -0.0582,0.34922 -0.0582,0.75666 0,1.1932 0.46564,1.92076 0.49474,0.72756 1.1932,1.1932 0.69846,0.43654 1.54243,0.72756 0.84397,0.29103 1.54243,0.61115 0.69846,0.29103 1.1641,0.72756 0.49474,0.43654 0.49474,1.1932 0,0.29103 -0.11641,0.55295 -0.0873,0.23282 -0.23282,0.46564 -0.37833,0.61115 -0.72756,0.93128 -0.32013,0.29102 -0.72756,0.46564 -0.37834,0.17461 -0.84397,0.26192 -0.46564,0.0873 -1.1059,0.23282 -0.49474,0.11641 -1.04769,0.14551 -0.52384,0.0582 -1.04768,0.0582 -0.81487,0 -1.60064,-0.20371 -0.78576,-0.17462 -1.60063,-0.17462 -0.61115,0 -1.25141,0.11641 -0.61115,0.0873 -1.2223,0.20372 -0.61115,0.14551 -1.2223,0.23282 -0.61115,0.11641 -1.2223,0.11641 -0.40744,0 -0.90218,-0.0873 -0.46564,-0.0873 -0.87307,-0.32013 -0.40744,-0.20371 -0.69846,-0.55294 -0.26192,-0.34923 -0.26192,-0.84397 0,-0.40744 0.20371,-0.72756 0.20372,-0.32013 0.52385,-0.55295 0.34923,-0.23282 0.72756,-0.37833 0.37833,-0.14551 0.72756,-0.17462 0.32013,-0.0291 0.52384,-0.0291 0.23282,0 0.37834,-0.0582 0.17461,-0.0582 0.34922,-0.17462 0.17462,-0.11641 0.40744,-0.34923 0.14551,-0.14551 0.26192,-0.23282 0.14551,-0.0873 0.34923,-0.0873 0.14551,0 0.29102,0.0291 0.14552,0.0291 0.29103,0.0291 0.23282,0 0.46564,-0.14551 0.61115,-0.34923 0.87307,-0.90218 0.26192,-0.55294 0.34923,-1.1932 0.0873,-0.66935 0.0873,-1.36781 0.0291,-0.69846 0.17461,-1.28051 0.14551,-0.64025 0.14551,-1.1932 0,-1.01859 -0.26192,-2.00807 -0.23282,-0.98948 -0.23282,-2.00807 0,-1.2223 0.17462,-2.4446 0.17461,-1.2223 0.17461,-2.44461 0,-0.32012 -0.0291,-0.61115 0,-0.29102 0,-0.61115 0,-2.09537 0.26192,-4.13255 0.26192,-2.03717 0.26192,-4.13254 0,-0.58205 -0.0291,-1.135 -0.0291,-0.55294 -0.0873,-1.13499 -0.0582,-0.46564 -0.11641,-1.135 -0.0582,-0.69846 -0.17461,-1.42602 -0.11641,-0.72756 -0.32013,-1.45512 -0.17461,-0.72756 -0.52384,-1.28051 -0.32013,-0.58205 -0.81487,-0.93128 -0.46564,-0.37833 -1.13499,-0.37833 -0.14552,0 -0.32013,0.0291 -0.14551,0.0291 -0.29103,0.0291 -0.32012,0 -0.52384,-0.17462 -0.20372,-0.20371 -0.32013,-0.46564 -0.11641,-0.29102 -0.17461,-0.61115 -0.0291,-0.32012 -0.0291,-0.55294 0,-0.98949 0.49474,-1.45513 0.52384,-0.46563 1.2514,-0.64025 0.75667,-0.17461 1.60064,-0.14551 0.87307,0 1.54243,-0.0582 0.75666,-0.0582 1.48422,-0.26192 0.75666,-0.20372 1.54243,-0.20372 1.135,0 2.24089,0.29103 1.10589,0.29102 2.24089,0.29102 0.93127,0 1.80435,-0.14551 0.87307,-0.17461 1.74614,-0.46564 0.43654,-0.14551 0.78577,-0.14551 1.13499,0 2.24089,0.29102 1.10589,0.29103 2.21178,0.34923 0.75667,0.0582 1.57153,0.29103 0.81487,0.20372 1.51333,0.61115 0.72756,0.37833 1.25141,0.98948 0.52384,0.61115 0.66935,1.42602 0.0873,0.49474 0.40744,0.96038 0.32012,0.43654 0.66935,0.81487 0.37833,0.34923 0.64026,0.66936 0.29102,0.29102 0.29102,0.49474 0,0.20372 -0.20372,0.32013 -0.17461,0.0873 -0.17461,0.32012 0,0.14551 0.17461,0.32013 0.20372,0.17461 0.43654,0.40743 0.23282,0.23282 0.40743,0.52385 0.20372,0.26192 0.20372,0.58205 0,0.43653 -0.29102,0.78576 -0.26192,0.32013 -0.26192,0.75667 l 0.0582,0.0873 0.40743,-0.11641 0.0582,0.0582 q 0.11641,0.46564 0.0873,0.98948 0,0.49474 0,0.90218 0,0.55294 -0.0291,1.2223 -0.0291,0.66936 -0.14551,1.30961 -0.11641,0.64025 -0.34923,1.1932 -0.23282,0.55295 -0.66935,0.87307 -0.26193,0.20372 -0.55295,0.32013 -0.26192,0.0873 -0.52384,0.23282 -0.26193,0.11641 -0.46564,0.32013 -0.20372,0.20371 -0.32013,0.55294 -0.14551,0.49474 -0.49474,0.93128 -0.34923,0.43654 -0.72756,0.87307 -0.34923,0.40744 -0.64026,0.84397 -0.26192,0.43654 -0.26192,0.96038 0,0.84398 0.37833,1.57154 0.40744,0.72756 0.72757,1.48422 0.32012,0.78577 0.46563,1.60064 0.14552,0.78576 0.20372,1.60063 0.0873,0.81487 0.11641,1.62974 0.0582,0.81486 0.17462,1.62973 0.0582,0.34923 0.26192,1.1641 0.23282,0.78577 0.55294,1.60063 0.32013,0.81487 0.72757,1.42602 0.40743,0.61116 0.84397,0.61116 0.37833,0 0.61115,-0.40744 0.23282,-0.40743 0.43653,-0.93128 0.23282,-0.52384 0.49475,-1.01858 0.29102,-0.49474 0.75666,-0.66936 0.90217,0.0873 1.48422,0.34923 0.61115,0.26192 0.93128,0.72756 0.32013,0.43654 0.43654,1.10589 0.14551,0.64026 0.14551,1.51333 z m -8.70163,-26.77424 q 0,-0.40744 -0.17461,-0.93128 -0.17462,-0.55295 -0.43654,-1.10589 -0.26192,-0.55295 -0.58205,-1.04769 -0.29102,-0.49474 -0.58205,-0.81487 -0.61115,0 -0.81487,-0.0873 -0.20371,-0.0873 -0.26192,-0.20372 -0.0582,-0.14551 -0.14551,-0.32012 -0.0582,-0.17462 -0.40744,-0.34923 -1.01858,-0.49474 -1.83345,-0.75667 -0.81487,-0.26192 -1.94986,-0.26192 -0.32013,0 -0.64026,0.17462 -0.29102,0.17461 -0.52384,0.17461 -0.66936,0 -1.30961,-0.14551 -0.64025,-0.17461 -1.30961,-0.17461 -0.96038,0 -1.97897,0.23281 -0.66935,0.17462 -1.33871,0.32013 -0.66935,0.14551 -1.1932,0.43654 -0.52384,0.29102 -0.87307,0.78576 -0.32013,0.49475 -0.32013,1.36782 0,0.90217 0.17462,1.77525 0.20371,0.87307 0.20371,1.77525 0,0.43653 -0.14551,0.84397 -0.11641,0.40743 -0.26192,0.81487 -0.14551,0.37833 -0.29103,0.78576 -0.1164,0.40744 -0.1164,0.84397 0,0.52385 0.0873,1.07679 0.11641,0.52385 0.37833,0.96038 0.26193,0.40744 0.66936,0.66936 0.43654,0.26192 1.07679,0.26192 0.61115,0 1.1641,-0.23282 0.55294,-0.26192 1.1641,-0.26192 0.32012,0 0.61115,0.17461 0.29102,0.14552 0.58205,0.32013 0.29102,0.17462 0.61115,0.34923 0.32012,0.14551 0.69846,0.14551 0.29102,0 0.55294,-0.0582 0.26192,-0.0873 0.49474,-0.20372 1.1059,-0.49474 2.3282,-0.87307 1.2514,-0.40744 2.47371,-0.40744 0.32012,0 0.75666,-0.34923 0.43654,-0.37833 0.90218,-0.93127 0.46563,-0.58205 0.93127,-1.25141 0.46564,-0.69846 0.81487,-1.36781 0.37833,-0.69846 0.58205,-1.25141 0.23282,-0.58205 0.23282,-0.90217 z"
     style="fill:#000000;stroke-width:0.745023"
     id="path42" />
  <path
     d="m 270.43614,164.65298 q -0.34923,0.0873 -0.61115,0.26192 -0.26192,0.14551 -0.52384,0.37833 -0.26192,0.20372 -0.58205,0.49474 -0.29102,0.29103 -0.72756,0.66936 -0.0873,0.58205 -0.0873,1.1641 0,0.61115 0.14551,0.98948 0.14552,0.34923 0.32013,0.61115 0.17462,0.23282 0.32013,0.46564 0.14551,0.20372 0.14551,0.49474 0,0.64026 0.34923,1.33872 0.37833,0.69845 0.90217,1.36781 0.52385,0.64025 1.0768,1.2514 0.55294,0.58205 0.96038,1.01859 h 0.0873 q 0.26192,0 0.58205,-0.23282 0.34923,-0.23282 0.66936,-0.55295 0.32012,-0.34922 0.52384,-0.72756 0.23282,-0.37833 0.23282,-0.64025 0,-0.29102 0.20372,-0.52384 0.20372,-0.26193 0.46564,-0.49475 0.29102,-0.26192 0.55294,-0.46563 0.29103,-0.23282 0.43654,-0.49475 v -1.2514 q 0.17462,-0.17462 0.32013,-0.32013 0.17461,-0.14551 0.29102,-0.32012 0.11641,-0.17462 0.17462,-0.40744 0.0582,-0.23282 0.0582,-0.61115 0,-0.23282 -0.0291,-0.40743 0,-0.20372 0,-0.43654 0.20372,-0.32013 0.40743,-0.61115 0.20372,-0.32013 0.43654,-0.61115 0.26192,-0.61115 0,-0.87308 -0.23282,-0.26192 -0.72756,-0.34923 -0.46564,-0.0873 -1.01859,-0.0873 -0.55294,-0.0291 -0.90217,-0.11641 l -0.34923,-0.0582 q -0.34923,-0.0582 -0.78577,-0.20372 -0.43653,-0.17461 -0.75666,-0.84397 -0.34923,-0.69845 -0.23282,-1.2223 0.14551,-0.55294 0.52384,-0.93128 0.37833,-0.37833 0.90218,-0.61115 0.52384,-0.23282 0.96038,-0.34923 0.75666,-0.23282 1.48422,-0.40743 0.75667,-0.17462 1.51333,-0.17462 0.87307,0 1.71704,0.17462 0.87308,0.14551 1.74615,0.14551 0.93128,0 1.83346,-0.17461 0.93127,-0.17462 1.86255,-0.17462 0.61115,0 1.1641,0.0873 0.55295,0.0873 0.98948,0.32013 0.46564,0.20371 0.78577,0.64025 0.32012,0.40743 0.46564,1.04769 0.14551,0.66935 0.0582,1.07679 -0.0873,0.40743 0,0.64025 -0.40743,1.04769 -1.10589,1.51333 -0.66936,0.46564 -1.45512,0.66935 -0.78577,0.20372 -1.60064,0.34923 -0.81487,0.11641 -1.45512,0.49475 -0.64025,0.37833 -1.07679,1.1932 -0.40743,0.81486 -0.40743,2.35729 -0.40744,0.26192 -0.84397,0.72756 -0.43654,0.43654 -0.84398,0.96038 -0.37833,0.52385 -0.72756,1.07679 -0.32012,0.52385 -0.49474,0.96039 0.32013,0.11641 0.34923,0.34922 -0.23282,0.40744 -0.37833,0.87308 -0.14551,0.46564 -0.37833,0.87307 -0.17462,0.32013 -0.37833,0.49474 -0.17462,0.14551 -0.34923,0.34923 -0.14552,0.17462 -0.26193,0.49474 -0.0873,0.29103 -0.0873,0.87308 0,0.26192 -0.0582,0.52384 -0.0582,0.23282 -0.32012,0.43654 -0.72757,0.58205 -1.1932,1.48422 -0.43654,0.87307 -0.69846,1.89166 -0.23282,0.98948 -0.32013,2.03717 -0.0873,1.01859 -0.0873,1.89166 0,0.78577 0.23282,1.54243 0.26192,0.75666 0.26192,1.54243 0,0.78576 -0.11641,1.60063 -0.1164,0.78577 -0.1164,1.57153 0,0.40744 0.0582,0.78577 0.0582,0.34923 0.0582,0.72756 0,0.40744 -0.0291,0.66936 0,0.26192 0,0.46564 0,0.32012 0.14551,0.55294 0.14552,0.23282 0.64026,0.81487 0.11641,0.14551 0.32013,0.46564 0.23281,0.32013 0.40743,0.32013 0.49474,0 0.96038,-0.11641 0.49474,-0.14551 0.96038,-0.29103 0.49474,-0.17461 0.96038,-0.29102 0.49474,-0.14551 1.01859,-0.14551 0.0582,0 0.32012,0.0582 0.29103,0.0582 0.61115,0.14551 0.34923,0.0873 0.66936,0.17462 0.34923,0.0582 0.55295,0.0873 0.11641,0.20371 0.20371,0.40743 0.11641,0.17461 0.20372,0.40743 0.26192,0.11641 0.58205,0.26193 0.34923,0.11641 0.64025,0.32012 0.29103,0.17462 0.49475,0.43654 0.20371,0.26192 0.20371,0.61115 0,0.43654 -0.14551,0.87307 -0.11641,0.40744 -0.11641,0.84397 0,0.37834 -0.66936,0.58205 -0.66935,0.20372 -1.54243,0.32013 -0.87307,0.0873 -1.68794,0.11641 -0.81487,0.0291 -1.10589,0.0291 -1.97897,0 -3.92883,-0.14551 -1.92076,-0.14551 -3.89973,-0.14551 -1.2514,0 -2.4737,0.23282 -1.1932,0.20371 -2.41551,0.20371 -0.66935,0 -1.30961,-0.17461 -0.64025,-0.17461 -1.30961,-0.17461 -0.75666,0 -1.48422,0.26192 -0.69846,0.23282 -1.45512,0.23282 -0.43654,0 -0.78577,-0.11641 0,-0.37833 -0.17461,-0.69846 -0.14552,-0.32013 -0.34923,-0.61115 -0.17462,-0.32013 -0.34923,-0.64026 -0.14551,-0.32012 -0.14551,-0.69845 0,-0.69846 0.61115,-1.135 0.64025,-0.46564 1.60063,-0.72756 0.96038,-0.29103 2.12448,-0.43654 1.1932,-0.14551 2.3282,-0.20371 1.13499,-0.0873 2.06627,-0.11641 0.93128,-0.0291 1.42602,-0.11641 0.29102,-0.55295 0.46564,-1.36782 0.17461,-0.81487 0.26192,-1.74615 0.11641,-0.96038 0.14551,-1.97896 0.0291,-1.01859 0.0291,-2.00807 0,-1.33871 0.0291,-2.47371 0.0291,-1.16409 -0.0582,-2.21178 -0.0582,-1.04769 -0.26192,-2.00807 -0.17462,-0.98948 -0.61115,-1.97897 -0.37833,-0.84397 -1.01859,-1.48422 -0.61115,-0.64026 -1.07679,-1.42602 -0.49474,-0.84397 -0.78576,-1.77525 -0.29103,-0.96038 -0.78577,-1.83345 -1.01858,-1.83346 -1.89166,-3.69601 -0.84397,-1.89166 -1.51333,-3.89973 -0.40743,-0.0582 -0.61115,-0.20372 -0.20371,-0.14551 -0.34923,-0.32013 -0.11641,-0.17461 -0.26192,-0.34922 -0.14551,-0.20372 -0.43653,-0.34923 -0.34923,-0.17462 -0.98949,-0.26193 -0.64025,-0.11641 -1.39691,-0.20371 -0.75667,-0.11641 -1.54243,-0.26192 -0.75667,-0.14552 -1.39692,-0.34923 -0.64025,-0.23282 -1.04769,-0.58205 -0.40743,-0.37833 -0.40743,-0.93128 0,-0.61115 0.40743,-1.2223 0.40744,-0.61115 0.81487,-1.04769 0.46564,-0.49474 1.2223,-0.78577 0.78577,-0.29102 1.62974,-0.43653 0.87307,-0.17462 1.74615,-0.20372 0.90217,-0.0582 1.62973,-0.0582 h 0.61115 l 1.86256,0.0291 q 0.75666,0 1.42602,0.14551 0.66936,0.11641 1.30961,0.29102 0.64025,0.17462 1.28051,0.37834 0.66935,0.17461 1.42602,0.29102 0.55294,0.0291 0.90217,0.55295 0.34923,0.49474 0.46564,1.13499 0.11641,0.64025 0,1.25141 -0.0873,0.61115 -0.43654,0.87307 z"
     style="fill:#000000;stroke-width:0.745023"
     id="path44" />
</g>
<path
   id="path23"
   fill-rule="nonzero"
   d="m 282.734,40.554352 v 0 c 0,-8.375591 6.96603,-15.165352 15.55905,-15.165352 v 0 c 4.12653,0 8.08402,1.597773 11.00192,4.441828 2.91788,2.844057 4.55713,6.701422 4.55713,10.723524 v 0 c 0,8.375595 -6.966,15.165356 -15.55905,15.165356 v 0 c -8.59302,0 -15.55905,-6.789761 -15.55905,-15.165356 z"
   stroke-linecap="butt"
   stroke-linejoin="round"
   stroke-width="2"
   stroke="#000000" data-statuslight />
</svg>
