<?xml version="1.0" encoding="UTF-8" standalone="no"?>
<svg
   xmlns:dc="http://purl.org/dc/elements/1.1/"
   xmlns:cc="http://creativecommons.org/ns#"
   xmlns:rdf="http://www.w3.org/1999/02/22-rdf-syntax-ns#"
   xmlns:svg="http://www.w3.org/2000/svg"
   xmlns="http://www.w3.org/2000/svg"
   xmlns:sodipodi="http://sodipodi.sourceforge.net/DTD/sodipodi-0.dtd"
   xmlns:inkscape="http://www.inkscape.org/namespaces/inkscape"
   height="115"
   width="288"
   inkscape:version="1.0 (4035a4fb49, 2020-05-01)"
   sodipodi:docname="indicator.svg"
   version="1.1"
   viewBox="0 0 288 115"
   fill="none"
   stroke="none"
   stroke-linecap="square"
   stroke-miterlimit="10"
   id="svg25">
  <sodipodi:namedview
     inkscape:current-layer="svg25"
     inkscape:window-maximized="1"
     inkscape:window-y="-8"
     inkscape:window-x="-8"
     inkscape:cy="68.341576"
     inkscape:cx="149.51409"
     inkscape:zoom="2.3705448"
     showgrid="false"
     id="namedview1388"
     inkscape:window-height="1017"
     inkscape:window-width="1920"
     inkscape:pageshadow="2"
     inkscape:pageopacity="0"
     guidetolerance="10"
     gridtolerance="10"
     objecttolerance="10"
     borderopacity="1"
     bordercolor="#666666"
     pagecolor="#ffffff" />
  <metadata
     id="metadata31">
    <rdf:RDF>
      <cc:Work
         rdf:about="">
        <dc:format>image/svg+xml</dc:format>
        <dc:type
           rdf:resource="http://purl.org/dc/dcmitype/StillImage" />
        <dc:title></dc:title>
      </cc:Work>
    </rdf:RDF>
  </metadata>
  <defs
     id="defs29" />
  <clipPath
     id="p.0">
    <path
       d="M 0,0 H 288 V 115 H 0 Z"
       clip-rule="nonzero"
       id="path2" />
  </clipPath>
  <g
     clip-path="url(#p.0)"
     id="g19">
    <path
       fill="#000000"
       fill-opacity="0"
       d="M 0,0 H 288 V 115 H 0 Z"
       fill-rule="nonzero"
       id="path5" />
    <path
       fill="#ffffff"
       d="M 12,8.503937 H 276 V 107.49607 H 12 Z"
       fill-rule="nonzero"
       id="path7" />
    <path
       stroke="#000000"
       stroke-width="2"
       stroke-linejoin="round"
       stroke-linecap="butt"
       d="M 12,8.503937 H 276 V 107.49607 H 12 Z"
       fill-rule="nonzero"
       id="path9" />
    <path
       fill="#000000"
       d="M 114,32 H 259.00787 V 85.984253 H 114 Z"
       fill-rule="nonzero"
       id="path11" />
    <path
       stroke="#000000"
       stroke-width="2"
       stroke-linejoin="round"
       stroke-linecap="butt"
       d="M 114,32 H 259.00787 V 85.984253 H 114 Z"
       fill-rule="nonzero"
       id="path13" />
    <path
       fill="#ffffff"
       d="m 36,58 v 0 C 36,43.092659 48.084785,31.007874 62.992126,31.007874 v 0 c 7.15876,0 14.024307,2.843807 19.086311,7.905811 C 87.140449,43.975689 89.984252,50.841244 89.984252,58 v 0 c 0,14.907341 -12.084785,26.992126 -26.992126,26.992126 v 0 C 48.084785,84.992126 36,72.907341 36,58 Z"
       fill-rule="nonzero"
       id="path15" class="indicator-led" />
    <path
       stroke="#000000"
       stroke-width="2"
       stroke-linejoin="round"
       stroke-linecap="butt"
       d="m 36,58 v 0 C 36,43.092659 48.084785,31.007874 62.992126,31.007874 v 0 c 7.15876,0 14.024307,2.843807 19.086311,7.905811 C 87.140449,43.975689 89.984252,50.841244 89.984252,58 v 0 c 0,14.907341 -12.084785,26.992126 -26.992126,26.992126 v 0 C 48.084785,84.992126 36,72.907341 36,58 Z"
       fill-rule="nonzero"
       id="path17" />
  </g>
  <text
     id="text1468"
     y="70.404846"
     x="187.17038"
     style="font-size:32.3578px;line-height:1.25;font-family:Arial;-inkscape-font-specification:Arial;text-align:center;text-anchor:middle;stroke-width:0.404473"
     xml:space="preserve"><tspan
       style="fill:#ffffff;stroke-width:0.404473"
       y="70.404846"
       x="187.17038"
       id="tspan1466"
       sodipodi:role="line" class="indicator-label">ABC</tspan></text>
</svg>
