<?xml version="1.0" encoding="UTF-8" standalone="no"?>
<svg
   xmlns:dc="http://purl.org/dc/elements/1.1/"
   xmlns:cc="http://creativecommons.org/ns#"
   xmlns:rdf="http://www.w3.org/1999/02/22-rdf-syntax-ns#"
   xmlns:svg="http://www.w3.org/2000/svg"
   xmlns="http://www.w3.org/2000/svg"
   xmlns:sodipodi="http://sodipodi.sourceforge.net/DTD/sodipodi-0.dtd"
   xmlns:inkscape="http://www.inkscape.org/namespaces/inkscape"
   sodipodi:docname="port.svg"
   inkscape:version="1.0 (4035a4fb49, 2020-05-01)"
   id="svg3190"
   version="1.1"
   viewBox="0 0 100.46462 45.789604"
   height="45.789604mm"
   width="100.46462mm">
  <defs
     id="defs3184" />
  <sodipodi:namedview
     fit-margin-bottom="0"
     fit-margin-right="0"
     fit-margin-left="0"
     fit-margin-top="0"
     inkscape:snap-global="false"
     inkscape:window-maximized="1"
     inkscape:window-y="-8"
     inkscape:window-x="-8"
     inkscape:window-height="1017"
     inkscape:window-width="1920"
     showgrid="false"
     inkscape:document-rotation="0"
     inkscape:current-layer="layer1"
     inkscape:document-units="mm"
     inkscape:cy="415.76726"
     inkscape:cx="96.616618"
     inkscape:zoom="0.6572224"
     inkscape:pageshadow="2"
     inkscape:pageopacity="0.0"
     borderopacity="1.0"
     bordercolor="#666666"
     pagecolor="#ffffff"
     id="base" />
  <metadata
     id="metadata3187">
    <rdf:RDF>
      <cc:Work
         rdf:about="">
        <dc:format>image/svg+xml</dc:format>
        <dc:type
           rdf:resource="http://purl.org/dc/dcmitype/StillImage" />
        <dc:title></dc:title>
      </cc:Work>
    </rdf:RDF>
  </metadata>
  <g
     transform="translate(-51.261223,-40.262868)"
     id="layer1"
     inkscape:groupmode="layer"
     inkscape:label="Layer 1">
    <rect
       y="41.57552"
       x="53.611008"
       height="41.074028"
       width="92.718735"
       id="rect3767"
       style="fill:none;stroke:#000000;stroke-width:1.3;stroke-miterlimit:4;stroke-dasharray:none;paint-order:markers fill stroke" />
    <g
       transform="matrix(0.26458333,0,0,0.26458333,77.943277,59.329319)"
       id="g3913"
       style="fill:none;stroke:none;stroke-linecap:square;stroke-miterlimit:10">
      <g
         clip-path="url(#p.0)"
         id="g3877">
        <path
           fill="#000000"
           fill-opacity="0"
           d="M 0,0 H 167.47244 V 100 H 0 Z"
           fill-rule="nonzero"
           id="path3827" />
        <path
           fill="#ffffff"
           d="m 13.704724,37.446194 v 0 c 0,-3.818157 3.095229,-6.913385 6.913386,-6.913385 v 0 c 1.833544,0 3.591992,0.728372 4.888502,2.024885 1.296511,1.296509 2.024884,3.054958 2.024884,4.8885 v 0 c 0,3.818157 -3.095229,6.913387 -6.913386,6.913387 v 0 c -3.818157,0 -6.913386,-3.09523 -6.913386,-6.913387 z"
           fill-rule="nonzero"
           id="path3829" />
        <path
           stroke="#000000"
           stroke-width="2"
           stroke-linejoin="round"
           stroke-linecap="butt"
           d="m 13.704724,37.446194 v 0 c 0,-3.818157 3.095229,-6.913385 6.913386,-6.913385 v 0 c 1.833544,0 3.591992,0.728372 4.888502,2.024885 1.296511,1.296509 2.024884,3.054958 2.024884,4.8885 v 0 c 0,3.818157 -3.095229,6.913387 -6.913386,6.913387 v 0 c -3.818157,0 -6.913386,-3.09523 -6.913386,-6.913387 z"
           fill-rule="nonzero"
           id="path3831" />
        <path
           fill="#ffffff"
           d="m 134.39764,37.446194 v 0 c 0,-3.818157 3.09521,-6.913385 6.91338,-6.913385 v 0 c 1.83354,0 3.59199,0.728372 4.8885,2.024885 1.29651,1.296509 2.02489,3.054958 2.02489,4.8885 v 0 c 0,3.818157 -3.09523,6.913387 -6.91339,6.913387 v 0 c -3.81816,0 -6.91338,-3.09523 -6.91338,-6.913387 z"
           fill-rule="nonzero"
           id="path3833" />
        <path
           stroke="#000000"
           stroke-width="2"
           stroke-linejoin="round"
           stroke-linecap="butt"
           d="m 134.39764,37.446194 v 0 c 0,-3.818157 3.09521,-6.913385 6.91338,-6.913385 v 0 c 1.83354,0 3.59199,0.728372 4.8885,2.024885 1.29651,1.296509 2.02489,3.054958 2.02489,4.8885 v 0 c 0,3.818157 -3.09523,6.913387 -6.91339,6.913387 v 0 c -3.81816,0 -6.91338,-3.09523 -6.91338,-6.913387 z"
           fill-rule="nonzero"
           id="path3835" />
        <path
           fill="#ffffff"
           d="m 40.816273,31.156204 v 0 c 0,-0.997322 0.808491,-1.805811 1.805809,-1.805811 h 7.223026 v 0 c 0.478932,0 0.938248,0.190254 1.276902,0.52891 0.338653,0.338655 0.528907,0.79797 0.528907,1.276901 v 7.223026 c 0,0.997319 -0.808487,1.805809 -1.805809,1.805809 h -7.223026 c -0.997318,0 -1.805809,-0.80849 -1.805809,-1.805809 z"
           fill-rule="nonzero"
           id="path3837" />
        <path
           stroke="#000000"
           stroke-width="2"
           stroke-linejoin="round"
           stroke-linecap="butt"
           d="m 40.816273,31.156204 v 0 c 0,-0.997322 0.808491,-1.805811 1.805809,-1.805811 h 7.223026 v 0 c 0.478932,0 0.938248,0.190254 1.276902,0.52891 0.338653,0.338655 0.528907,0.79797 0.528907,1.276901 v 7.223026 c 0,0.997319 -0.808487,1.805809 -1.805809,1.805809 h -7.223026 c -0.997318,0 -1.805809,-0.80849 -1.805809,-1.805809 z"
           fill-rule="nonzero"
           id="path3839" />
        <path
           fill="#ffffff"
           d="m 58.182415,31.156204 v 0 c 0,-0.997322 0.808487,-1.805811 1.805809,-1.805811 h 7.223026 v 0 c 0.478928,0 0.938248,0.190254 1.276901,0.52891 0.338654,0.338655 0.528908,0.79797 0.528908,1.276901 v 7.223026 c 0,0.997319 -0.808487,1.805809 -1.805809,1.805809 h -7.223026 c -0.997322,0 -1.805809,-0.80849 -1.805809,-1.805809 z"
           fill-rule="nonzero"
           id="path3841" />
        <path
           stroke="#000000"
           stroke-width="2"
           stroke-linejoin="round"
           stroke-linecap="butt"
           d="m 58.182415,31.156204 v 0 c 0,-0.997322 0.808487,-1.805811 1.805809,-1.805811 h 7.223026 v 0 c 0.478928,0 0.938248,0.190254 1.276901,0.52891 0.338654,0.338655 0.528908,0.79797 0.528908,1.276901 v 7.223026 c 0,0.997319 -0.808487,1.805809 -1.805809,1.805809 h -7.223026 c -0.997322,0 -1.805809,-0.80849 -1.805809,-1.805809 z"
           fill-rule="nonzero"
           id="path3843" />
        <path
           fill="#ffffff"
           d="m 75.54855,31.156204 v 0 c 0,-0.997322 0.808495,-1.805811 1.805817,-1.805811 h 7.223022 v 0 c 0.478928,0 0.938248,0.190254 1.276901,0.52891 0.338654,0.338655 0.528908,0.79797 0.528908,1.276901 v 7.223026 c 0,0.997319 -0.808487,1.805809 -1.805809,1.805809 h -7.223022 c -0.997322,0 -1.805817,-0.80849 -1.805817,-1.805809 z"
           fill-rule="nonzero"
           id="path3845" />
        <path
           stroke="#000000"
           stroke-width="2"
           stroke-linejoin="round"
           stroke-linecap="butt"
           d="m 75.54855,31.156204 v 0 c 0,-0.997322 0.808495,-1.805811 1.805817,-1.805811 h 7.223022 v 0 c 0.478928,0 0.938248,0.190254 1.276901,0.52891 0.338654,0.338655 0.528908,0.79797 0.528908,1.276901 v 7.223026 c 0,0.997319 -0.808487,1.805809 -1.805809,1.805809 h -7.223022 c -0.997322,0 -1.805817,-0.80849 -1.805817,-1.805809 z"
           fill-rule="nonzero"
           id="path3847" />
        <path
           fill="#ffffff"
           d="m 92.914696,31.156204 v 0 c 0,-0.997322 0.808495,-1.805811 1.805809,-1.805811 h 7.223025 v 0 c 0.47893,0 0.93825,0.190254 1.27691,0.52891 0.33865,0.338655 0.5289,0.79797 0.5289,1.276901 v 7.223026 c 0,0.997319 -0.80848,1.805809 -1.80581,1.805809 h -7.223025 c -0.997314,0 -1.805809,-0.80849 -1.805809,-1.805809 z"
           fill-rule="nonzero"
           id="path3849" />
        <path
           stroke="#000000"
           stroke-width="2"
           stroke-linejoin="round"
           stroke-linecap="butt"
           d="m 92.914696,31.156204 v 0 c 0,-0.997322 0.808495,-1.805811 1.805809,-1.805811 h 7.223025 v 0 c 0.47893,0 0.93825,0.190254 1.27691,0.52891 0.33865,0.338655 0.5289,0.79797 0.5289,1.276901 v 7.223026 c 0,0.997319 -0.80848,1.805809 -1.80581,1.805809 h -7.223025 c -0.997314,0 -1.805809,-0.80849 -1.805809,-1.805809 z"
           fill-rule="nonzero"
           id="path3851" />
        <path
           fill="#ffffff"
           d="m 110.28084,31.156204 v 0 c 0,-0.997322 0.80849,-1.805811 1.80581,-1.805811 h 7.22303 v 0 c 0.47893,0 0.93824,0.190254 1.2769,0.52891 0.33865,0.338655 0.52891,0.79797 0.52891,1.276901 v 7.223026 c 0,0.997319 -0.80849,1.805809 -1.80581,1.805809 h -7.22303 c -0.99732,0 -1.80581,-0.80849 -1.80581,-1.805809 z"
           fill-rule="nonzero"
           id="path3853" />
        <path
           stroke="#000000"
           stroke-width="2"
           stroke-linejoin="round"
           stroke-linecap="butt"
           d="m 110.28084,31.156204 v 0 c 0,-0.997322 0.80849,-1.805811 1.80581,-1.805811 h 7.22303 v 0 c 0.47893,0 0.93824,0.190254 1.2769,0.52891 0.33865,0.338655 0.52891,0.79797 0.52891,1.276901 v 7.223026 c 0,0.997319 -0.80849,1.805809 -1.80581,1.805809 h -7.22303 c -0.99732,0 -1.80581,-0.80849 -1.80581,-1.805809 z"
           fill-rule="nonzero"
           id="path3855" />
        <path
           fill="#ffffff"
           d="m 47.452755,53.07353 v 0 c 0,-0.997322 0.808491,-1.805813 1.805813,-1.805813 h 7.223022 v 0 c 0.478932,0 0.938248,0.190254 1.276901,0.528912 0.338658,0.338653 0.528912,0.79797 0.528912,1.276901 v 7.223022 c 0,0.997323 -0.808491,1.805813 -1.805813,1.805813 h -7.223022 c -0.997322,0 -1.805813,-0.80849 -1.805813,-1.805813 z"
           fill-rule="nonzero"
           id="path3857" />
        <path
           stroke="#000000"
           stroke-width="2"
           stroke-linejoin="round"
           stroke-linecap="butt"
           d="m 47.452755,53.07353 v 0 c 0,-0.997322 0.808491,-1.805813 1.805813,-1.805813 h 7.223022 v 0 c 0.478932,0 0.938248,0.190254 1.276901,0.528912 0.338658,0.338653 0.528912,0.79797 0.528912,1.276901 v 7.223022 c 0,0.997323 -0.808491,1.805813 -1.805813,1.805813 h -7.223022 c -0.997322,0 -1.805813,-0.80849 -1.805813,-1.805813 z"
           fill-rule="nonzero"
           id="path3859" />
        <path
           fill="#ffffff"
           d="m 64.8189,53.07353 v 0 c 0,-0.997322 0.808487,-1.805813 1.805809,-1.805813 h 7.223022 v 0 c 0.478928,0 0.938248,0.190254 1.276902,0.528912 0.338653,0.338653 0.528907,0.79797 0.528907,1.276901 v 7.223022 c 0,0.997323 -0.808486,1.805813 -1.805809,1.805813 h -7.223022 c -0.997322,0 -1.805809,-0.80849 -1.805809,-1.805813 z"
           fill-rule="nonzero"
           id="path3861" />
        <path
           stroke="#000000"
           stroke-width="2"
           stroke-linejoin="round"
           stroke-linecap="butt"
           d="m 64.8189,53.07353 v 0 c 0,-0.997322 0.808487,-1.805813 1.805809,-1.805813 h 7.223022 v 0 c 0.478928,0 0.938248,0.190254 1.276902,0.528912 0.338653,0.338653 0.528907,0.79797 0.528907,1.276901 v 7.223022 c 0,0.997323 -0.808486,1.805813 -1.805809,1.805813 h -7.223022 c -0.997322,0 -1.805809,-0.80849 -1.805809,-1.805813 z"
           fill-rule="nonzero"
           id="path3863" />
        <path
           fill="#ffffff"
           d="m 82.185036,53.07353 v 0 c 0,-0.997322 0.808495,-1.805813 1.805817,-1.805813 h 7.223022 v 0 c 0.478928,0 0.938248,0.190254 1.276901,0.528912 0.338654,0.338653 0.528908,0.79797 0.528908,1.276901 v 7.223022 c 0,0.997323 -0.808487,1.805813 -1.805809,1.805813 h -7.223022 c -0.997322,0 -1.805817,-0.80849 -1.805817,-1.805813 z"
           fill-rule="nonzero"
           id="path3865" />
        <path
           stroke="#000000"
           stroke-width="2"
           stroke-linejoin="round"
           stroke-linecap="butt"
           d="m 82.185036,53.07353 v 0 c 0,-0.997322 0.808495,-1.805813 1.805817,-1.805813 h 7.223022 v 0 c 0.478928,0 0.938248,0.190254 1.276901,0.528912 0.338654,0.338653 0.528908,0.79797 0.528908,1.276901 v 7.223022 c 0,0.997323 -0.808487,1.805813 -1.805809,1.805813 h -7.223022 c -0.997322,0 -1.805817,-0.80849 -1.805817,-1.805813 z"
           fill-rule="nonzero"
           id="path3867" />
        <path
           fill="#ffffff"
           d="m 99.55118,53.07353 v 0 c 0,-0.997322 0.80849,-1.805813 1.80582,-1.805813 h 7.22302 v 0 c 0.47893,0 0.93825,0.190254 1.2769,0.528912 0.33865,0.338653 0.52891,0.79797 0.52891,1.276901 v 7.223022 c 0,0.997323 -0.80849,1.805813 -1.80581,1.805813 H 101.357 c -0.99733,0 -1.80582,-0.80849 -1.80582,-1.805813 z"
           fill-rule="nonzero"
           id="path3869" />
        <path
           stroke="#000000"
           stroke-width="2"
           stroke-linejoin="round"
           stroke-linecap="butt"
           d="m 99.55118,53.07353 v 0 c 0,-0.997322 0.80849,-1.805813 1.80582,-1.805813 h 7.22302 v 0 c 0.47893,0 0.93825,0.190254 1.2769,0.528912 0.33865,0.338653 0.52891,0.79797 0.52891,1.276901 v 7.223022 c 0,0.997323 -0.80849,1.805813 -1.80581,1.805813 H 101.357 c -0.99733,0 -1.80582,-0.80849 -1.80582,-1.805813 z"
           fill-rule="nonzero"
           id="path3871" />
        <path
           fill="#000000"
           fill-opacity="0"
           d="m 37.66798,20.968504 h 86.97113 l 8.02363,8.026247 -8.23361,30.727036 -13.5223,13.522308 H 52.161423 L 36.765095,57.847771 29.269034,29.868767 Z"
           fill-rule="nonzero"
           id="path3873" />
        <path
           stroke="#000000"
           stroke-width="2"
           stroke-linejoin="round"
           stroke-linecap="butt"
           d="m 37.66798,20.968504 h 86.97113 l 8.02363,8.026247 -8.23361,30.727036 -13.5223,13.522308 H 52.161423 L 36.765095,57.847771 29.269034,29.868767 Z"
           fill-rule="nonzero"
           id="path3875" />
      </g>
    </g>
    <g
       transform="matrix(0.26458333,0,0,0.26458333,56.903222,41.848537)"
       id="g4294"
       style="fill:none;stroke:none;stroke-linecap:square;stroke-miterlimit:10">
      <g
         clip-path="url(#p.0)"
         id="g4206">
        <path
           fill="#000000"
           fill-opacity="0"
           d="M 0,0 H 322.5223 V 100 H 0 Z"
           fill-rule="nonzero"
           id="path4052" />
        <path
           fill="#ffffff"
           d="m 39.843834,36.170605 v 0 c 0,-2.948418 2.390163,-5.338583 5.338581,-5.338583 v 0 c 1.415878,0 2.773769,0.562456 3.774948,1.563635 1.001179,1.001179 1.563633,2.359066 1.563633,3.774948 v 0 c 0,2.948418 -2.390163,5.338581 -5.338581,5.338581 v 0 c -2.948418,0 -5.338581,-2.390163 -5.338581,-5.338581 z"
           fill-rule="nonzero"
           id="path4054" />
        <path
           stroke="#000000"
           stroke-width="2"
           stroke-linejoin="round"
           stroke-linecap="butt"
           d="m 39.843834,36.170605 v 0 c 0,-2.948418 2.390163,-5.338583 5.338581,-5.338583 v 0 c 1.415878,0 2.773769,0.562456 3.774948,1.563635 1.001179,1.001179 1.563633,2.359066 1.563633,3.774948 v 0 c 0,2.948418 -2.390163,5.338581 -5.338581,5.338581 v 0 c -2.948418,0 -5.338581,-2.390163 -5.338581,-5.338581 z"
           fill-rule="nonzero"
           id="path4056" />
        <path
           fill="#ffffff"
           d="m 59.466316,36.170605 v 0 c 0,-2.948418 2.390163,-5.338583 5.338585,-5.338583 v 0 c 1.415878,0 2.773766,0.562456 3.774948,1.563635 1.001175,1.001179 1.563629,2.359066 1.563629,3.774948 v 0 c 0,2.948418 -2.390159,5.338581 -5.338577,5.338581 v 0 c -2.948422,0 -5.338585,-2.390163 -5.338585,-5.338581 z"
           fill-rule="nonzero"
           id="path4058" />
        <path
           stroke="#000000"
           stroke-width="2"
           stroke-linejoin="round"
           stroke-linecap="butt"
           d="m 59.466316,36.170605 v 0 c 0,-2.948418 2.390163,-5.338583 5.338585,-5.338583 v 0 c 1.415878,0 2.773766,0.562456 3.774948,1.563635 1.001175,1.001179 1.563629,2.359066 1.563629,3.774948 v 0 c 0,2.948418 -2.390159,5.338581 -5.338577,5.338581 v 0 c -2.948422,0 -5.338585,-2.390163 -5.338585,-5.338581 z"
           fill-rule="nonzero"
           id="path4060" />
        <path
           fill="#ffffff"
           d="m 79.088806,36.170605 v 0 c 0,-2.948418 2.39016,-5.338583 5.338577,-5.338583 v 0 c 1.415886,0 2.773773,0.562456 3.774948,1.563635 1.001183,1.001179 1.563637,2.359066 1.563637,3.774948 v 0 c 0,2.948418 -2.390167,5.338581 -5.338585,5.338581 v 0 c -2.948417,0 -5.338577,-2.390163 -5.338577,-5.338581 z"
           fill-rule="nonzero"
           id="path4062" />
        <path
           stroke="#000000"
           stroke-width="2"
           stroke-linejoin="round"
           stroke-linecap="butt"
           d="m 79.088806,36.170605 v 0 c 0,-2.948418 2.39016,-5.338583 5.338577,-5.338583 v 0 c 1.415886,0 2.773773,0.562456 3.774948,1.563635 1.001183,1.001179 1.563637,2.359066 1.563637,3.774948 v 0 c 0,2.948418 -2.390167,5.338581 -5.338585,5.338581 v 0 c -2.948417,0 -5.338577,-2.390163 -5.338577,-5.338581 z"
           fill-rule="nonzero"
           id="path4064" />
        <path
           fill="#ffffff"
           d="m 98.71129,36.170605 v 0 c 0,-2.948418 2.39016,-5.338583 5.33858,-5.338583 v 0 c 1.41588,0 2.77377,0.562456 3.77495,1.563635 1.00118,1.001179 1.56363,2.359066 1.56363,3.774948 v 0 c 0,2.948418 -2.39016,5.338581 -5.33858,5.338581 v 0 c -2.94842,0 -5.33858,-2.390163 -5.33858,-5.338581 z"
           fill-rule="nonzero"
           id="path4066" />
        <path
           stroke="#000000"
           stroke-width="2"
           stroke-linejoin="round"
           stroke-linecap="butt"
           d="m 98.71129,36.170605 v 0 c 0,-2.948418 2.39016,-5.338583 5.33858,-5.338583 v 0 c 1.41588,0 2.77377,0.562456 3.77495,1.563635 1.00118,1.001179 1.56363,2.359066 1.56363,3.774948 v 0 c 0,2.948418 -2.39016,5.338581 -5.33858,5.338581 v 0 c -2.94842,0 -5.33858,-2.390163 -5.33858,-5.338581 z"
           fill-rule="nonzero"
           id="path4068" />
        <path
           fill="#ffffff"
           d="m 118.33377,36.170605 v 0 c 0,-2.948418 2.39017,-5.338583 5.33858,-5.338583 v 0 c 1.41588,0 2.77378,0.562456 3.77495,1.563635 1.00119,1.001179 1.56364,2.359066 1.56364,3.774948 v 0 c 0,2.948418 -2.39017,5.338581 -5.33859,5.338581 v 0 c -2.94841,0 -5.33858,-2.390163 -5.33858,-5.338581 z"
           fill-rule="nonzero"
           id="path4070" />
        <path
           stroke="#000000"
           stroke-width="2"
           stroke-linejoin="round"
           stroke-linecap="butt"
           d="m 118.33377,36.170605 v 0 c 0,-2.948418 2.39017,-5.338583 5.33858,-5.338583 v 0 c 1.41588,0 2.77378,0.562456 3.77495,1.563635 1.00119,1.001179 1.56364,2.359066 1.56364,3.774948 v 0 c 0,2.948418 -2.39017,5.338581 -5.33859,5.338581 v 0 c -2.94841,0 -5.33858,-2.390163 -5.33858,-5.338581 z"
           fill-rule="nonzero"
           id="path4072" />
        <path
           fill="#ffffff"
           d="m 137.95625,36.170605 v 0 c 0,-2.948418 2.39017,-5.338583 5.33858,-5.338583 v 0 c 1.41588,0 2.77377,0.562456 3.77495,1.563635 1.00119,1.001179 1.56364,2.359066 1.56364,3.774948 v 0 c 0,2.948418 -2.39017,5.338581 -5.33859,5.338581 v 0 c -2.94841,0 -5.33858,-2.390163 -5.33858,-5.338581 z"
           fill-rule="nonzero"
           id="path4074" />
        <path
           stroke="#000000"
           stroke-width="2"
           stroke-linejoin="round"
           stroke-linecap="butt"
           d="m 137.95625,36.170605 v 0 c 0,-2.948418 2.39017,-5.338583 5.33858,-5.338583 v 0 c 1.41588,0 2.77377,0.562456 3.77495,1.563635 1.00119,1.001179 1.56364,2.359066 1.56364,3.774948 v 0 c 0,2.948418 -2.39017,5.338581 -5.33859,5.338581 v 0 c -2.94841,0 -5.33858,-2.390163 -5.33858,-5.338581 z"
           fill-rule="nonzero"
           id="path4076" />
        <path
           fill="#ffffff"
           d="m 157.57874,36.170605 v 0 c 0,-2.948418 2.39017,-5.338583 5.33859,-5.338583 v 0 c 1.41588,0 2.77376,0.562456 3.77495,1.563635 1.00118,1.001179 1.56363,2.359066 1.56363,3.774948 v 0 c 0,2.948418 -2.39017,5.338581 -5.33858,5.338581 v 0 c -2.94842,0 -5.33859,-2.390163 -5.33859,-5.338581 z"
           fill-rule="nonzero"
           id="path4078" />
        <path
           stroke="#000000"
           stroke-width="2"
           stroke-linejoin="round"
           stroke-linecap="butt"
           d="m 157.57874,36.170605 v 0 c 0,-2.948418 2.39017,-5.338583 5.33859,-5.338583 v 0 c 1.41588,0 2.77376,0.562456 3.77495,1.563635 1.00118,1.001179 1.56363,2.359066 1.56363,3.774948 v 0 c 0,2.948418 -2.39017,5.338581 -5.33858,5.338581 v 0 c -2.94842,0 -5.33859,-2.390163 -5.33859,-5.338581 z"
           fill-rule="nonzero"
           id="path4080" />
        <path
           fill="#ffffff"
           d="m 177.20122,36.170605 v 0 c 0,-2.948418 2.39017,-5.338583 5.33858,-5.338583 v 0 c 1.41589,0 2.77377,0.562456 3.77495,1.563635 1.00119,1.001179 1.56364,2.359066 1.56364,3.774948 v 0 c 0,2.948418 -2.39017,5.338581 -5.33859,5.338581 v 0 c -2.94841,0 -5.33858,-2.390163 -5.33858,-5.338581 z"
           fill-rule="nonzero"
           id="path4082" />
        <path
           stroke="#000000"
           stroke-width="2"
           stroke-linejoin="round"
           stroke-linecap="butt"
           d="m 177.20122,36.170605 v 0 c 0,-2.948418 2.39017,-5.338583 5.33858,-5.338583 v 0 c 1.41589,0 2.77377,0.562456 3.77495,1.563635 1.00119,1.001179 1.56364,2.359066 1.56364,3.774948 v 0 c 0,2.948418 -2.39017,5.338581 -5.33859,5.338581 v 0 c -2.94841,0 -5.33858,-2.390163 -5.33858,-5.338581 z"
           fill-rule="nonzero"
           id="path4084" />
        <path
           fill="#ffffff"
           d="m 196.82372,36.170605 v 0 c 0,-2.948418 2.39017,-5.338583 5.33858,-5.338583 v 0 c 1.41589,0 2.77377,0.562456 3.77495,1.563635 1.00119,1.001179 1.56364,2.359066 1.56364,3.774948 v 0 c 0,2.948418 -2.39017,5.338581 -5.33859,5.338581 v 0 c -2.94841,0 -5.33858,-2.390163 -5.33858,-5.338581 z"
           fill-rule="nonzero"
           id="path4086" />
        <path
           stroke="#000000"
           stroke-width="2"
           stroke-linejoin="round"
           stroke-linecap="butt"
           d="m 196.82372,36.170605 v 0 c 0,-2.948418 2.39017,-5.338583 5.33858,-5.338583 v 0 c 1.41589,0 2.77377,0.562456 3.77495,1.563635 1.00119,1.001179 1.56364,2.359066 1.56364,3.774948 v 0 c 0,2.948418 -2.39017,5.338581 -5.33859,5.338581 v 0 c -2.94841,0 -5.33858,-2.390163 -5.33858,-5.338581 z"
           fill-rule="nonzero"
           id="path4088" />
        <path
           fill="#ffffff"
           d="m 216.4462,36.170605 v 0 c 0,-2.948418 2.39017,-5.338583 5.33858,-5.338583 v 0 c 1.41588,0 2.77377,0.562456 3.77495,1.563635 1.00117,1.001179 1.56362,2.359066 1.56362,3.774948 v 0 c 0,2.948418 -2.39015,5.338581 -5.33857,5.338581 v 0 c -2.94841,0 -5.33858,-2.390163 -5.33858,-5.338581 z"
           fill-rule="nonzero"
           id="path4090" />
        <path
           stroke="#000000"
           stroke-width="2"
           stroke-linejoin="round"
           stroke-linecap="butt"
           d="m 216.4462,36.170605 v 0 c 0,-2.948418 2.39017,-5.338583 5.33858,-5.338583 v 0 c 1.41588,0 2.77377,0.562456 3.77495,1.563635 1.00117,1.001179 1.56362,2.359066 1.56362,3.774948 v 0 c 0,2.948418 -2.39015,5.338581 -5.33857,5.338581 v 0 c -2.94841,0 -5.33858,-2.390163 -5.33858,-5.338581 z"
           fill-rule="nonzero"
           id="path4092" />
        <path
           fill="#ffffff"
           d="m 236.06866,36.170605 v 0 c 0,-2.948418 2.39017,-5.338583 5.33859,-5.338583 v 0 c 1.41588,0 2.77378,0.562456 3.77495,1.563635 1.00118,1.001179 1.56363,2.359066 1.56363,3.774948 v 0 c 0,2.948418 -2.39017,5.338581 -5.33858,5.338581 v 0 c -2.94842,0 -5.33859,-2.390163 -5.33859,-5.338581 z"
           fill-rule="nonzero"
           id="path4094" />
        <path
           stroke="#000000"
           stroke-width="2"
           stroke-linejoin="round"
           stroke-linecap="butt"
           d="m 236.06866,36.170605 v 0 c 0,-2.948418 2.39017,-5.338583 5.33859,-5.338583 v 0 c 1.41588,0 2.77378,0.562456 3.77495,1.563635 1.00118,1.001179 1.56363,2.359066 1.56363,3.774948 v 0 c 0,2.948418 -2.39017,5.338581 -5.33858,5.338581 v 0 c -2.94842,0 -5.33859,-2.390163 -5.33859,-5.338581 z"
           fill-rule="nonzero"
           id="path4096" />
        <path
           fill="#ffffff"
           d="m 255.69118,36.170605 v 0 c 0,-2.948418 2.39015,-5.338583 5.33858,-5.338583 v 0 c 1.41589,0 2.77377,0.562456 3.77493,1.563635 1.00119,1.001179 1.56366,2.359066 1.56366,3.774948 v 0 c 0,2.948418 -2.39017,5.338581 -5.33859,5.338581 v 0 c -2.94843,0 -5.33858,-2.390163 -5.33858,-5.338581 z"
           fill-rule="nonzero"
           id="path4098" />
        <path
           stroke="#000000"
           stroke-width="2"
           stroke-linejoin="round"
           stroke-linecap="butt"
           d="m 255.69118,36.170605 v 0 c 0,-2.948418 2.39015,-5.338583 5.33858,-5.338583 v 0 c 1.41589,0 2.77377,0.562456 3.77493,1.563635 1.00119,1.001179 1.56366,2.359066 1.56366,3.774948 v 0 c 0,2.948418 -2.39017,5.338581 -5.33859,5.338581 v 0 c -2.94843,0 -5.33858,-2.390163 -5.33858,-5.338581 z"
           fill-rule="nonzero"
           id="path4100" />
        <path
           fill="#ffffff"
           d="m 275.31366,36.170605 v 0 c 0,-2.948418 2.39017,-5.338583 5.33856,-5.338583 v 0 c 1.4159,0 2.77378,0.562456 3.77497,1.563635 1.00116,1.001179 1.56362,2.359066 1.56362,3.774948 v 0 c 0,2.948418 -2.39016,5.338581 -5.33859,5.338581 v 0 c -2.94839,0 -5.33856,-2.390163 -5.33856,-5.338581 z"
           fill-rule="nonzero"
           id="path4102" />
        <path
           stroke="#000000"
           stroke-width="2"
           stroke-linejoin="round"
           stroke-linecap="butt"
           d="m 275.31366,36.170605 v 0 c 0,-2.948418 2.39017,-5.338583 5.33856,-5.338583 v 0 c 1.4159,0 2.77378,0.562456 3.77497,1.563635 1.00116,1.001179 1.56362,2.359066 1.56362,3.774948 v 0 c 0,2.948418 -2.39016,5.338581 -5.33859,5.338581 v 0 c -2.94839,0 -5.33856,-2.390163 -5.33856,-5.338581 z"
           fill-rule="nonzero"
           id="path4104" />
        <path
           fill="#ffffff"
           d="m 49.181103,58.740158 v 0 c 0,-2.948418 2.390163,-5.338585 5.338581,-5.338585 v 0 c 1.415882,0 2.773769,0.562458 3.774948,1.563637 1.001179,1.001178 1.563637,2.359066 1.563637,3.774948 v 0 c 0,2.948418 -2.390167,5.338585 -5.338585,5.338585 v 0 c -2.948418,0 -5.338581,-2.390167 -5.338581,-5.338585 z"
           fill-rule="nonzero"
           id="path4106" />
        <path
           stroke="#000000"
           stroke-width="2"
           stroke-linejoin="round"
           stroke-linecap="butt"
           d="m 49.181103,58.740158 v 0 c 0,-2.948418 2.390163,-5.338585 5.338581,-5.338585 v 0 c 1.415882,0 2.773769,0.562458 3.774948,1.563637 1.001179,1.001178 1.563637,2.359066 1.563637,3.774948 v 0 c 0,2.948418 -2.390167,5.338585 -5.338585,5.338585 v 0 c -2.948418,0 -5.338581,-2.390167 -5.338581,-5.338585 z"
           fill-rule="nonzero"
           id="path4108" />
        <path
           fill="#ffffff"
           d="m 68.80359,58.740158 v 0 c 0,-2.948418 2.39016,-5.338585 5.338577,-5.338585 v 0 c 1.415879,0 2.773773,0.562458 3.774948,1.563637 1.001183,1.001178 1.563637,2.359066 1.563637,3.774948 v 0 c 0,2.948418 -2.390167,5.338585 -5.338585,5.338585 v 0 c -2.948417,0 -5.338577,-2.390167 -5.338577,-5.338585 z"
           fill-rule="nonzero"
           id="path4110" />
        <path
           stroke="#000000"
           stroke-width="2"
           stroke-linejoin="round"
           stroke-linecap="butt"
           d="m 68.80359,58.740158 v 0 c 0,-2.948418 2.39016,-5.338585 5.338577,-5.338585 v 0 c 1.415879,0 2.773773,0.562458 3.774948,1.563637 1.001183,1.001178 1.563637,2.359066 1.563637,3.774948 v 0 c 0,2.948418 -2.390167,5.338585 -5.338585,5.338585 v 0 c -2.948417,0 -5.338577,-2.390167 -5.338577,-5.338585 z"
           fill-rule="nonzero"
           id="path4112" />
        <path
           fill="#ffffff"
           d="m 88.42607,58.740158 v 0 c 0,-2.948418 2.39016,-5.338585 5.338577,-5.338585 v 0 c 1.415886,0 2.773773,0.562458 3.774948,1.563637 1.001183,1.001178 1.563637,2.359066 1.563637,3.774948 v 0 c 0,2.948418 -2.390167,5.338585 -5.338585,5.338585 v 0 c -2.948417,0 -5.338577,-2.390167 -5.338577,-5.338585 z"
           fill-rule="nonzero"
           id="path4114" />
        <path
           stroke="#000000"
           stroke-width="2"
           stroke-linejoin="round"
           stroke-linecap="butt"
           d="m 88.42607,58.740158 v 0 c 0,-2.948418 2.39016,-5.338585 5.338577,-5.338585 v 0 c 1.415886,0 2.773773,0.562458 3.774948,1.563637 1.001183,1.001178 1.563637,2.359066 1.563637,3.774948 v 0 c 0,2.948418 -2.390167,5.338585 -5.338585,5.338585 v 0 c -2.948417,0 -5.338577,-2.390167 -5.338577,-5.338585 z"
           fill-rule="nonzero"
           id="path4116" />
        <path
           fill="#ffffff"
           d="m 108.04855,58.740158 v 0 c 0,-2.948418 2.39017,-5.338585 5.33859,-5.338585 v 0 c 1.41587,0 2.77377,0.562458 3.77494,1.563637 1.00119,1.001178 1.56364,2.359066 1.56364,3.774948 v 0 c 0,2.948418 -2.39017,5.338585 -5.33859,5.338585 v 0 c -2.94841,0 -5.33858,-2.390167 -5.33858,-5.338585 z"
           fill-rule="nonzero"
           id="path4118" />
        <path
           stroke="#000000"
           stroke-width="2"
           stroke-linejoin="round"
           stroke-linecap="butt"
           d="m 108.04855,58.740158 v 0 c 0,-2.948418 2.39017,-5.338585 5.33859,-5.338585 v 0 c 1.41587,0 2.77377,0.562458 3.77494,1.563637 1.00119,1.001178 1.56364,2.359066 1.56364,3.774948 v 0 c 0,2.948418 -2.39017,5.338585 -5.33859,5.338585 v 0 c -2.94841,0 -5.33858,-2.390167 -5.33858,-5.338585 z"
           fill-rule="nonzero"
           id="path4120" />
        <path
           fill="#ffffff"
           d="m 127.67104,58.740158 v 0 c 0,-2.948418 2.39016,-5.338585 5.33858,-5.338585 v 0 c 1.41588,0 2.77378,0.562458 3.77495,1.563637 1.00118,1.001178 1.56363,2.359066 1.56363,3.774948 v 0 c 0,2.948418 -2.39016,5.338585 -5.33858,5.338585 v 0 c -2.94842,0 -5.33858,-2.390167 -5.33858,-5.338585 z"
           fill-rule="nonzero"
           id="path4122" />
        <path
           stroke="#000000"
           stroke-width="2"
           stroke-linejoin="round"
           stroke-linecap="butt"
           d="m 127.67104,58.740158 v 0 c 0,-2.948418 2.39016,-5.338585 5.33858,-5.338585 v 0 c 1.41588,0 2.77378,0.562458 3.77495,1.563637 1.00118,1.001178 1.56363,2.359066 1.56363,3.774948 v 0 c 0,2.948418 -2.39016,5.338585 -5.33858,5.338585 v 0 c -2.94842,0 -5.33858,-2.390167 -5.33858,-5.338585 z"
           fill-rule="nonzero"
           id="path4124" />
        <path
           fill="#ffffff"
           d="m 147.29352,58.740158 v 0 c 0,-2.948418 2.39017,-5.338585 5.33859,-5.338585 v 0 c 1.41588,0 2.77376,0.562458 3.77495,1.563637 1.00118,1.001178 1.56363,2.359066 1.56363,3.774948 v 0 c 0,2.948418 -2.39017,5.338585 -5.33858,5.338585 v 0 c -2.94842,0 -5.33859,-2.390167 -5.33859,-5.338585 z"
           fill-rule="nonzero"
           id="path4126" />
        <path
           stroke="#000000"
           stroke-width="2"
           stroke-linejoin="round"
           stroke-linecap="butt"
           d="m 147.29352,58.740158 v 0 c 0,-2.948418 2.39017,-5.338585 5.33859,-5.338585 v 0 c 1.41588,0 2.77376,0.562458 3.77495,1.563637 1.00118,1.001178 1.56363,2.359066 1.56363,3.774948 v 0 c 0,2.948418 -2.39017,5.338585 -5.33858,5.338585 v 0 c -2.94842,0 -5.33859,-2.390167 -5.33859,-5.338585 z"
           fill-rule="nonzero"
           id="path4128" />
        <path
           fill="#ffffff"
           d="m 166.91602,58.740158 v 0 c 0,-2.948418 2.39017,-5.338585 5.33858,-5.338585 v 0 c 1.41588,0 2.77377,0.562458 3.77495,1.563637 1.00117,1.001178 1.56362,2.359066 1.56362,3.774948 v 0 c 0,2.948418 -2.39015,5.338585 -5.33857,5.338585 v 0 c -2.94841,0 -5.33858,-2.390167 -5.33858,-5.338585 z"
           fill-rule="nonzero"
           id="path4130" />
        <path
           stroke="#000000"
           stroke-width="2"
           stroke-linejoin="round"
           stroke-linecap="butt"
           d="m 166.91602,58.740158 v 0 c 0,-2.948418 2.39017,-5.338585 5.33858,-5.338585 v 0 c 1.41588,0 2.77377,0.562458 3.77495,1.563637 1.00117,1.001178 1.56362,2.359066 1.56362,3.774948 v 0 c 0,2.948418 -2.39015,5.338585 -5.33857,5.338585 v 0 c -2.94841,0 -5.33858,-2.390167 -5.33858,-5.338585 z"
           fill-rule="nonzero"
           id="path4132" />
        <path
           fill="#ffffff"
           d="m 186.53848,58.740158 v 0 c 0,-2.948418 2.39017,-5.338585 5.33859,-5.338585 v 0 c 1.41588,0 2.77376,0.562458 3.77495,1.563637 1.00118,1.001178 1.56363,2.359066 1.56363,3.774948 v 0 c 0,2.948418 -2.39017,5.338585 -5.33858,5.338585 v 0 c -2.94842,0 -5.33859,-2.390167 -5.33859,-5.338585 z"
           fill-rule="nonzero"
           id="path4134" />
        <path
           stroke="#000000"
           stroke-width="2"
           stroke-linejoin="round"
           stroke-linecap="butt"
           d="m 186.53848,58.740158 v 0 c 0,-2.948418 2.39017,-5.338585 5.33859,-5.338585 v 0 c 1.41588,0 2.77376,0.562458 3.77495,1.563637 1.00118,1.001178 1.56363,2.359066 1.56363,3.774948 v 0 c 0,2.948418 -2.39017,5.338585 -5.33858,5.338585 v 0 c -2.94842,0 -5.33859,-2.390167 -5.33859,-5.338585 z"
           fill-rule="nonzero"
           id="path4136" />
        <path
           fill="#ffffff"
           d="m 206.16098,58.740158 v 0 c 0,-2.948418 2.39017,-5.338585 5.33859,-5.338585 v 0 c 1.41588,0 2.77378,0.562458 3.77495,1.563637 1.00118,1.001178 1.56363,2.359066 1.56363,3.774948 v 0 c 0,2.948418 -2.39017,5.338585 -5.33858,5.338585 v 0 c -2.94842,0 -5.33859,-2.390167 -5.33859,-5.338585 z"
           fill-rule="nonzero"
           id="path4138" />
        <path
           stroke="#000000"
           stroke-width="2"
           stroke-linejoin="round"
           stroke-linecap="butt"
           d="m 206.16098,58.740158 v 0 c 0,-2.948418 2.39017,-5.338585 5.33859,-5.338585 v 0 c 1.41588,0 2.77378,0.562458 3.77495,1.563637 1.00118,1.001178 1.56363,2.359066 1.56363,3.774948 v 0 c 0,2.948418 -2.39017,5.338585 -5.33858,5.338585 v 0 c -2.94842,0 -5.33859,-2.390167 -5.33859,-5.338585 z"
           fill-rule="nonzero"
           id="path4140" />
        <path
           fill="#ffffff"
           d="m 225.78346,58.740158 v 0 c 0,-2.948418 2.39017,-5.338585 5.33858,-5.338585 v 0 c 1.41589,0 2.77377,0.562458 3.77495,1.563637 1.00119,1.001178 1.56364,2.359066 1.56364,3.774948 v 0 c 0,2.948418 -2.39017,5.338585 -5.33859,5.338585 v 0 c -2.94841,0 -5.33858,-2.390167 -5.33858,-5.338585 z"
           fill-rule="nonzero"
           id="path4142" />
        <path
           stroke="#000000"
           stroke-width="2"
           stroke-linejoin="round"
           stroke-linecap="butt"
           d="m 225.78346,58.740158 v 0 c 0,-2.948418 2.39017,-5.338585 5.33858,-5.338585 v 0 c 1.41589,0 2.77377,0.562458 3.77495,1.563637 1.00119,1.001178 1.56364,2.359066 1.56364,3.774948 v 0 c 0,2.948418 -2.39017,5.338585 -5.33859,5.338585 v 0 c -2.94841,0 -5.33858,-2.390167 -5.33858,-5.338585 z"
           fill-rule="nonzero"
           id="path4144" />
        <path
           fill="#ffffff"
           d="m 245.40594,58.740158 v 0 c 0,-2.948418 2.39017,-5.338585 5.33858,-5.338585 v 0 c 1.41588,0 2.77377,0.562458 3.77495,1.563637 1.00117,1.001178 1.56362,2.359066 1.56362,3.774948 v 0 c 0,2.948418 -2.39015,5.338585 -5.33857,5.338585 v 0 c -2.94841,0 -5.33858,-2.390167 -5.33858,-5.338585 z"
           fill-rule="nonzero"
           id="path4146" />
        <path
           stroke="#000000"
           stroke-width="2"
           stroke-linejoin="round"
           stroke-linecap="butt"
           d="m 245.40594,58.740158 v 0 c 0,-2.948418 2.39017,-5.338585 5.33858,-5.338585 v 0 c 1.41588,0 2.77377,0.562458 3.77495,1.563637 1.00117,1.001178 1.56362,2.359066 1.56362,3.774948 v 0 c 0,2.948418 -2.39015,5.338585 -5.33857,5.338585 v 0 c -2.94841,0 -5.33858,-2.390167 -5.33858,-5.338585 z"
           fill-rule="nonzero"
           id="path4148" />
        <path
           fill="#ffffff"
           d="m 265.02844,58.740158 v 0 c 0,-2.948418 2.39017,-5.338585 5.33859,-5.338585 v 0 c 1.41587,0 2.77378,0.562458 3.77494,1.563637 1.00119,1.001178 1.56362,2.359066 1.56362,3.774948 v 0 c 0,2.948418 -2.39016,5.338585 -5.33856,5.338585 v 0 c -2.94842,0 -5.33859,-2.390167 -5.33859,-5.338585 z"
           fill-rule="nonzero"
           id="path4150" />
        <path
           stroke="#000000"
           stroke-width="2"
           stroke-linejoin="round"
           stroke-linecap="butt"
           d="m 265.02844,58.740158 v 0 c 0,-2.948418 2.39017,-5.338585 5.33859,-5.338585 v 0 c 1.41587,0 2.77378,0.562458 3.77494,1.563637 1.00119,1.001178 1.56362,2.359066 1.56362,3.774948 v 0 c 0,2.948418 -2.39016,5.338585 -5.33856,5.338585 v 0 c -2.94842,0 -5.33859,-2.390167 -5.33859,-5.338585 z"
           fill-rule="nonzero"
           id="path4152" />
        <path
           fill="#ffffff"
           d="m 7.195538,38.372704 v 0 c 0,-3.818157 3.095229,-6.913385 6.913386,-6.913385 v 0 c 1.833544,0 3.59199,0.728372 4.888503,2.024885 1.296511,1.296509 2.024883,3.054954 2.024883,4.8885 v 0 c 0,3.818157 -3.095228,6.913387 -6.913386,6.913387 v 0 c -3.818157,0 -6.913386,-3.09523 -6.913386,-6.913387 z"
           fill-rule="nonzero"
           id="path4154" />
        <path
           stroke="#000000"
           stroke-width="2"
           stroke-linejoin="round"
           stroke-linecap="butt"
           d="m 7.195538,38.372704 v 0 c 0,-3.818157 3.095229,-6.913385 6.913386,-6.913385 v 0 c 1.833544,0 3.59199,0.728372 4.888503,2.024885 1.296511,1.296509 2.024883,3.054954 2.024883,4.8885 v 0 c 0,3.818157 -3.095228,6.913387 -6.913386,6.913387 v 0 c -3.818157,0 -6.913386,-3.09523 -6.913386,-6.913387 z"
           fill-rule="nonzero"
           id="path4156" />
        <path
           fill="#ffffff"
           d="m 301.5,38.372704 v 0 c 0,-3.818157 3.09521,-6.913385 6.91339,-6.913385 v 0 c 1.83353,0 3.59198,0.728372 4.88849,2.024885 1.29651,1.296509 2.0249,3.054954 2.0249,4.8885 v 0 c 0,3.818157 -3.09524,6.913387 -6.91339,6.913387 v 0 c -3.81818,0 -6.91339,-3.09523 -6.91339,-6.913387 z"
           fill-rule="nonzero"
           id="path4158" />
        <path
           stroke="#000000"
           stroke-width="2"
           stroke-linejoin="round"
           stroke-linecap="butt"
           d="m 301.5,38.372704 v 0 c 0,-3.818157 3.09521,-6.913385 6.91339,-6.913385 v 0 c 1.83353,0 3.59198,0.728372 4.88849,2.024885 1.29651,1.296509 2.0249,3.054954 2.0249,4.8885 v 0 c 0,3.818157 -3.09524,6.913387 -6.91339,6.913387 v 0 c -3.81818,0 -6.91339,-3.09523 -6.91339,-6.913387 z"
           fill-rule="nonzero"
           id="path4160" />
        <path
           fill="#000000"
           fill-opacity="0"
           d="M 35.17323,18.939632 H 290.03936"
           fill-rule="nonzero"
           id="path4162" />
        <path
           stroke="#000000"
           stroke-width="2"
           stroke-linejoin="round"
           stroke-linecap="butt"
           d="M 35.17323,18.939632 H 290.03936"
           fill-rule="nonzero"
           id="path4164" />
        <path
           fill="#000000"
           fill-opacity="0"
           d="m 297.65222,26.515749 -7.811,29.102362"
           fill-rule="nonzero"
           id="path4166" />
        <path
           stroke="#000000"
           stroke-width="2"
           stroke-linejoin="round"
           stroke-linecap="butt"
           d="m 297.65222,26.515749 -7.811,29.102362"
           fill-rule="nonzero"
           id="path4168" />
        <path
           fill="#000000"
           fill-opacity="0"
           d="M 275.31497,72.514435 289.89764,55.128609"
           fill-rule="nonzero"
           id="path4170" />
        <path
           stroke="#000000"
           stroke-width="2"
           stroke-linejoin="round"
           stroke-linecap="butt"
           d="M 275.31497,72.514435 289.89764,55.128609"
           fill-rule="nonzero"
           id="path4172" />
        <path
           fill="#000000"
           fill-opacity="0"
           d="m 289.13123,18.895014 9.07086,8.787401"
           fill-rule="nonzero"
           id="path4174" />
        <path
           stroke="#000000"
           stroke-width="2"
           stroke-linejoin="round"
           stroke-linecap="butt"
           d="m 289.13123,18.895014 9.07086,8.787401"
           fill-rule="nonzero"
           id="path4176" />
        <path
           fill="#000000"
           fill-opacity="0"
           d="M 48.404198,72.73491 275.99475,72.514436"
           fill-rule="nonzero"
           id="path4178" />
        <path
           stroke="#000000"
           stroke-width="2"
           stroke-linejoin="round"
           stroke-linecap="butt"
           d="M 48.404198,72.73491 275.99475,72.514436"
           fill-rule="nonzero"
           id="path4180" />
        <path
           fill="#000000"
           fill-opacity="0"
           d="m 26.843832,26.515749 7.811026,29.102362"
           fill-rule="nonzero"
           id="path4182" />
        <path
           stroke="#000000"
           stroke-width="2"
           stroke-linejoin="round"
           stroke-linecap="butt"
           d="m 26.843832,26.515749 7.811026,29.102362"
           fill-rule="nonzero"
           id="path4184" />
        <path
           fill="#000000"
           fill-opacity="0"
           d="M 49.181103,72.514435 34.598423,55.128609"
           fill-rule="nonzero"
           id="path4186" />
        <path
           stroke="#000000"
           stroke-width="2"
           stroke-linejoin="round"
           stroke-linecap="butt"
           d="M 49.181103,72.514435 34.598423,55.128609"
           fill-rule="nonzero"
           id="path4188" />
        <path
           fill="#000000"
           fill-opacity="0"
           d="m 35.36483,18.895014 -9.070868,8.787401"
           fill-rule="nonzero"
           id="path4190" />
        <path
           stroke="#000000"
           stroke-width="2"
           stroke-linejoin="round"
           stroke-linecap="butt"
           d="m 35.36483,18.895014 -9.070868,8.787401"
           fill-rule="nonzero"
           id="path4192" />
        <path
           fill="#000000"
           fill-opacity="0"
           d="m 26.843832,26.560368 7.811026,29.102364"
           fill-rule="nonzero"
           id="path4194" />
        <path
           stroke="#000000"
           stroke-width="2"
           stroke-linejoin="round"
           stroke-linecap="butt"
           d="m 26.843832,26.560368 7.811026,29.102364"
           fill-rule="nonzero"
           id="path4196" />
        <path
           fill="#000000"
           fill-opacity="0"
           d="m 35.36483,18.939632 -9.070868,8.787401"
           fill-rule="nonzero"
           id="path4198" />
        <path
           stroke="#000000"
           stroke-width="2"
           stroke-linejoin="round"
           stroke-linecap="butt"
           d="m 35.36483,18.939632 -9.070868,8.787401"
           fill-rule="nonzero"
           id="path4200" />
        <path
           fill="#000000"
           fill-opacity="0"
           d="M 49.181103,72.55905 34.598423,55.173228"
           fill-rule="nonzero"
           id="path4202" />
        <path
           stroke="#000000"
           stroke-width="2"
           stroke-linejoin="round"
           stroke-linecap="butt"
           d="M 49.181103,72.55905 34.598423,55.173228"
           fill-rule="nonzero"
           id="path4204" />
      </g>
    </g>
    <g
       transform="matrix(0.26458333,0,0,0.26458333,61.23492,59.59414)"
       id="g4487"
       style="fill:none;stroke:none;stroke-linecap:square;stroke-miterlimit:10">
      <g
         clip-path="url(#p.0)"
         id="g4417">
        <path
           fill="#000000"
           fill-opacity="0"
           d="M 0,0 H 203.71129 V 100 H 0 Z"
           fill-rule="nonzero"
           id="path4299" />
        <path
           fill="#ffffff"
           d="m 7.195538,45.020996 v 0 c 0,-3.818157 3.095229,-6.913384 6.913386,-6.913384 v 0 c 1.833544,0 3.59199,0.728371 4.888503,2.024884 1.296511,1.296512 2.024883,3.054958 2.024883,4.8885 v 0 c 0,3.818161 -3.095228,6.913387 -6.913386,6.913387 v 0 c -3.818157,0 -6.913386,-3.095226 -6.913386,-6.913387 z"
           fill-rule="nonzero"
           id="path4301" />
        <path
           stroke="#000000"
           stroke-width="2"
           stroke-linejoin="round"
           stroke-linecap="butt"
           d="m 7.195538,45.020996 v 0 c 0,-3.818157 3.095229,-6.913384 6.913386,-6.913384 v 0 c 1.833544,0 3.59199,0.728371 4.888503,2.024884 1.296511,1.296512 2.024883,3.054958 2.024883,4.8885 v 0 c 0,3.818161 -3.095228,6.913387 -6.913386,6.913387 v 0 c -3.818157,0 -6.913386,-3.095226 -6.913386,-6.913387 z"
           fill-rule="nonzero"
           id="path4303" />
        <path
           fill="#ffffff"
           d="m 181.02493,45.020996 v 0 c 0,-3.818157 3.09523,-6.913384 6.91339,-6.913384 v 0 c 1.83354,0 3.59198,0.728371 4.88851,2.024884 1.2965,1.296512 2.02487,3.054958 2.02487,4.8885 v 0 c 0,3.818161 -3.09522,6.913387 -6.91338,6.913387 v 0 c -3.81816,0 -6.91339,-3.095226 -6.91339,-6.913387 z"
           fill-rule="nonzero"
           id="path4305" />
        <path
           stroke="#000000"
           stroke-width="2"
           stroke-linejoin="round"
           stroke-linecap="butt"
           d="m 181.02493,45.020996 v 0 c 0,-3.818157 3.09523,-6.913384 6.91339,-6.913384 v 0 c 1.83354,0 3.59198,0.728371 4.88851,2.024884 1.2965,1.296512 2.02487,3.054958 2.02487,4.8885 v 0 c 0,3.818161 -3.09522,6.913387 -6.91338,6.913387 v 0 c -3.81816,0 -6.91339,-3.095226 -6.91339,-6.913387 z"
           fill-rule="nonzero"
           id="path4307" />
        <path
           fill="#ffffff"
           d="m 21.023623,22.863518 11.220472,44.88189 H 172.48032 l 11.22047,-44.88189 z"
           fill-rule="nonzero"
           id="path4309" />
        <path
           stroke="#000000"
           stroke-width="2"
           stroke-linejoin="round"
           stroke-linecap="butt"
           d="m 21.023623,22.863518 11.220472,44.88189 H 172.48032 l 11.22047,-44.88189 z"
           fill-rule="nonzero"
           id="path4311" />
        <path
           fill="#ffffff"
           d="m 44.46982,30.816322 h 6.047241 v 6.299213 H 44.46982 Z"
           fill-rule="nonzero"
           id="path4313" />
        <path
           stroke="#000000"
           stroke-width="2"
           stroke-linejoin="round"
           stroke-linecap="butt"
           d="m 44.46982,30.816322 h 6.047241 v 6.299213 H 44.46982 Z"
           fill-rule="nonzero"
           id="path4315" />
        <path
           fill="#ffffff"
           d="m 53.519527,30.816322 h 6.047241 v 6.299213 h -6.047241 z"
           fill-rule="nonzero"
           id="path4317" />
        <path
           stroke="#000000"
           stroke-width="2"
           stroke-linejoin="round"
           stroke-linecap="butt"
           d="m 53.519527,30.816322 h 6.047241 v 6.299213 h -6.047241 z"
           fill-rule="nonzero"
           id="path4319" />
        <path
           fill="#ffffff"
           d="m 71.61895,30.816322 h 6.047249 v 6.299213 H 71.61895 Z"
           fill-rule="nonzero"
           id="path4321" />
        <path
           stroke="#000000"
           stroke-width="2"
           stroke-linejoin="round"
           stroke-linecap="butt"
           d="m 71.61895,30.816322 h 6.047249 v 6.299213 H 71.61895 Z"
           fill-rule="nonzero"
           id="path4323" />
        <path
           fill="#ffffff"
           d="m 89.71837,30.816322 h 6.047249 v 6.299213 H 89.71837 Z"
           fill-rule="nonzero"
           id="path4325" />
        <path
           stroke="#000000"
           stroke-width="2"
           stroke-linejoin="round"
           stroke-linecap="butt"
           d="m 89.71837,30.816322 h 6.047249 v 6.299213 H 89.71837 Z"
           fill-rule="nonzero"
           id="path4327" />
        <path
           fill="#ffffff"
           d="m 62.56924,30.816322 h 6.047245 v 6.299213 H 62.56924 Z"
           fill-rule="nonzero"
           id="path4329" />
        <path
           stroke="#000000"
           stroke-width="2"
           stroke-linejoin="round"
           stroke-linecap="butt"
           d="m 62.56924,30.816322 h 6.047245 v 6.299213 H 62.56924 Z"
           fill-rule="nonzero"
           id="path4331" />
        <path
           fill="#ffffff"
           d="m 80.66866,30.816322 h 6.047241 v 6.299213 H 80.66866 Z"
           fill-rule="nonzero"
           id="path4333" />
        <path
           stroke="#000000"
           stroke-width="2"
           stroke-linejoin="round"
           stroke-linecap="butt"
           d="m 80.66866,30.816322 h 6.047241 v 6.299213 H 80.66866 Z"
           fill-rule="nonzero"
           id="path4335" />
        <path
           fill="#ffffff"
           d="m 98.76809,30.816322 h 6.04724 v 6.299213 h -6.04724 z"
           fill-rule="nonzero"
           id="path4337" />
        <path
           stroke="#000000"
           stroke-width="2"
           stroke-linejoin="round"
           stroke-linecap="butt"
           d="m 98.76809,30.816322 h 6.04724 v 6.299213 h -6.04724 z"
           fill-rule="nonzero"
           id="path4339" />
        <path
           fill="#ffffff"
           d="m 107.8178,30.816322 h 6.04724 v 6.299213 h -6.04724 z"
           fill-rule="nonzero"
           id="path4341" />
        <path
           stroke="#000000"
           stroke-width="2"
           stroke-linejoin="round"
           stroke-linecap="butt"
           d="m 107.8178,30.816322 h 6.04724 v 6.299213 h -6.04724 z"
           fill-rule="nonzero"
           id="path4343" />
        <path
           fill="#ffffff"
           d="m 44.46982,41.871883 h 6.047241 v 6.299213 H 44.46982 Z"
           fill-rule="nonzero"
           id="path4345" />
        <path
           stroke="#000000"
           stroke-width="2"
           stroke-linejoin="round"
           stroke-linecap="butt"
           d="m 44.46982,41.871883 h 6.047241 v 6.299213 H 44.46982 Z"
           fill-rule="nonzero"
           id="path4347" />
        <path
           fill="#ffffff"
           d="m 53.519527,41.871883 h 6.047241 v 6.299213 h -6.047241 z"
           fill-rule="nonzero"
           id="path4349" />
        <path
           stroke="#000000"
           stroke-width="2"
           stroke-linejoin="round"
           stroke-linecap="butt"
           d="m 53.519527,41.871883 h 6.047241 v 6.299213 h -6.047241 z"
           fill-rule="nonzero"
           id="path4351" />
        <path
           fill="#ffffff"
           d="m 71.61895,41.871883 h 6.047249 v 6.299213 H 71.61895 Z"
           fill-rule="nonzero"
           id="path4353" />
        <path
           stroke="#000000"
           stroke-width="2"
           stroke-linejoin="round"
           stroke-linecap="butt"
           d="m 71.61895,41.871883 h 6.047249 v 6.299213 H 71.61895 Z"
           fill-rule="nonzero"
           id="path4355" />
        <path
           fill="#ffffff"
           d="m 89.71837,41.871883 h 6.047249 v 6.299213 H 89.71837 Z"
           fill-rule="nonzero"
           id="path4357" />
        <path
           stroke="#000000"
           stroke-width="2"
           stroke-linejoin="round"
           stroke-linecap="butt"
           d="m 89.71837,41.871883 h 6.047249 v 6.299213 H 89.71837 Z"
           fill-rule="nonzero"
           id="path4359" />
        <path
           fill="#ffffff"
           d="m 62.56924,41.871883 h 6.047245 v 6.299213 H 62.56924 Z"
           fill-rule="nonzero"
           id="path4361" />
        <path
           stroke="#000000"
           stroke-width="2"
           stroke-linejoin="round"
           stroke-linecap="butt"
           d="m 62.56924,41.871883 h 6.047245 v 6.299213 H 62.56924 Z"
           fill-rule="nonzero"
           id="path4363" />
        <path
           fill="#ffffff"
           d="m 80.66866,41.871883 h 6.047241 v 6.299213 H 80.66866 Z"
           fill-rule="nonzero"
           id="path4365" />
        <path
           stroke="#000000"
           stroke-width="2"
           stroke-linejoin="round"
           stroke-linecap="butt"
           d="m 80.66866,41.871883 h 6.047241 v 6.299213 H 80.66866 Z"
           fill-rule="nonzero"
           id="path4367" />
        <path
           fill="#ffffff"
           d="m 98.76809,41.871883 h 6.04724 v 6.299213 h -6.04724 z"
           fill-rule="nonzero"
           id="path4369" />
        <path
           stroke="#000000"
           stroke-width="2"
           stroke-linejoin="round"
           stroke-linecap="butt"
           d="m 98.76809,41.871883 h 6.04724 v 6.299213 h -6.04724 z"
           fill-rule="nonzero"
           id="path4371" />
        <path
           fill="#ffffff"
           d="m 107.8178,41.871883 h 6.04724 v 6.299213 h -6.04724 z"
           fill-rule="nonzero"
           id="path4373" />
        <path
           stroke="#000000"
           stroke-width="2"
           stroke-linejoin="round"
           stroke-linecap="butt"
           d="m 107.8178,41.871883 h 6.04724 v 6.299213 h -6.04724 z"
           fill-rule="nonzero"
           id="path4375" />
        <path
           fill="#ffffff"
           d="m 44.46982,52.92745 h 6.047241 v 6.29921 H 44.46982 Z"
           fill-rule="nonzero"
           id="path4377" />
        <path
           stroke="#000000"
           stroke-width="2"
           stroke-linejoin="round"
           stroke-linecap="butt"
           d="m 44.46982,52.92745 h 6.047241 v 6.29921 H 44.46982 Z"
           fill-rule="nonzero"
           id="path4379" />
        <path
           fill="#ffffff"
           d="m 53.519527,52.92745 h 6.047241 v 6.29921 h -6.047241 z"
           fill-rule="nonzero"
           id="path4381" />
        <path
           stroke="#000000"
           stroke-width="2"
           stroke-linejoin="round"
           stroke-linecap="butt"
           d="m 53.519527,52.92745 h 6.047241 v 6.29921 h -6.047241 z"
           fill-rule="nonzero"
           id="path4383" />
        <path
           fill="#ffffff"
           d="m 71.61895,52.92745 h 6.047249 v 6.29921 H 71.61895 Z"
           fill-rule="nonzero"
           id="path4385" />
        <path
           stroke="#000000"
           stroke-width="2"
           stroke-linejoin="round"
           stroke-linecap="butt"
           d="m 71.61895,52.92745 h 6.047249 v 6.29921 H 71.61895 Z"
           fill-rule="nonzero"
           id="path4387" />
        <path
           fill="#ffffff"
           d="m 89.71837,52.92745 h 6.047249 v 6.29921 H 89.71837 Z"
           fill-rule="nonzero"
           id="path4389" />
        <path
           stroke="#000000"
           stroke-width="2"
           stroke-linejoin="round"
           stroke-linecap="butt"
           d="m 89.71837,52.92745 h 6.047249 v 6.29921 H 89.71837 Z"
           fill-rule="nonzero"
           id="path4391" />
        <path
           fill="#ffffff"
           d="m 62.56924,52.92745 h 6.047245 v 6.29921 H 62.56924 Z"
           fill-rule="nonzero"
           id="path4393" />
        <path
           stroke="#000000"
           stroke-width="2"
           stroke-linejoin="round"
           stroke-linecap="butt"
           d="m 62.56924,52.92745 h 6.047245 v 6.29921 H 62.56924 Z"
           fill-rule="nonzero"
           id="path4395" />
        <path
           fill="#ffffff"
           d="m 80.66866,52.92745 h 6.047241 v 6.29921 H 80.66866 Z"
           fill-rule="nonzero"
           id="path4397" />
        <path
           stroke="#000000"
           stroke-width="2"
           stroke-linejoin="round"
           stroke-linecap="butt"
           d="m 80.66866,52.92745 h 6.047241 v 6.29921 H 80.66866 Z"
           fill-rule="nonzero"
           id="path4399" />
        <path
           fill="#ffffff"
           d="m 98.76809,52.92745 h 6.04724 v 6.29921 h -6.04724 z"
           fill-rule="nonzero"
           id="path4401" />
        <path
           stroke="#000000"
           stroke-width="2"
           stroke-linejoin="round"
           stroke-linecap="butt"
           d="m 98.76809,52.92745 h 6.04724 v 6.29921 h -6.04724 z"
           fill-rule="nonzero"
           id="path4403" />
        <path
           fill="#ffffff"
           d="m 107.8178,52.92745 h 6.04724 v 6.29921 h -6.04724 z"
           fill-rule="nonzero"
           id="path4405" />
        <path
           stroke="#000000"
           stroke-width="2"
           stroke-linejoin="round"
           stroke-linecap="butt"
           d="m 107.8178,52.92745 h 6.04724 v 6.29921 h -6.04724 z"
           fill-rule="nonzero"
           id="path4407" />
        <path
           fill="#000000"
           fill-opacity="0"
           d="M 123.02362,28.677166 V 59.448818"
           fill-rule="nonzero"
           id="path4409" />
        <path
           stroke="#000000"
           stroke-width="2"
           stroke-linejoin="round"
           stroke-linecap="butt"
           d="M 123.02362,28.677166 V 59.448818"
           fill-rule="nonzero"
           id="path4411" />
        <path
           fill="#000000"
           fill-opacity="0"
           d="m 147.13124,44.472443 h 19.937"
           fill-rule="nonzero"
           id="path4413" />
        <path
           stroke="#000000"
           stroke-width="2"
           stroke-linejoin="round"
           stroke-linecap="butt"
           d="m 147.13124,44.472443 h 19.937"
           fill-rule="nonzero"
           id="path4415" />
      </g>
    </g>
    <g
       transform="matrix(0.26458333,0,0,0.26458333,51.261223,40.262868)"
       id="g3956"
       style="fill:none;stroke:none;stroke-linecap:square;stroke-miterlimit:10">
      <g
         clip-path="url(#p.0)"
         id="g3936">
        <path
           fill="#000000"
           fill-opacity="0"
           d="M 0,0 H 104.94226 V 100 H 0 Z"
           fill-rule="nonzero"
           id="path3918" />
        <path
           fill="#ffffff"
           d="M 18.585302,14.740157 H 89.104986 V 85.259841 H 18.585302 Z"
           fill-rule="nonzero"
           id="path3920" />
        <path
           stroke="#000000"
           stroke-width="2"
           stroke-linejoin="round"
           stroke-linecap="butt"
           d="M 18.585302,14.740157 H 89.104986 V 85.259841 H 18.585302 Z"
           fill-rule="nonzero"
           id="path3922" />
        <path
           fill="#ffffff"
           d="m 18.585302,77.62467 h 71.62205 v 7.653542 h -71.62205 z"
           fill-rule="nonzero"
           id="path3924" />
        <path
           stroke="#000000"
           stroke-width="2"
           stroke-linejoin="round"
           stroke-linecap="butt"
           d="m 18.585302,77.62467 h 71.62205 v 7.653542 h -71.62205 z"
           fill-rule="nonzero"
           id="path3926" />
        <path
           fill="#000000"
           d="M 27.879265,24.598425 H 80.91864 V 77.637793 H 27.879265 Z"
           fill-rule="nonzero"
           id="path3928" />
        <path
           stroke="#000000"
           stroke-width="2"
           stroke-linejoin="round"
           stroke-linecap="butt"
           d="M 27.879265,24.598425 H 80.91864 V 77.637793 H 27.879265 Z"
           fill-rule="nonzero"
           id="path3930" />
        <path
           fill="#ffffff"
           d="M 44.83727,61.24672 H 63.95538 V 77.624673 H 44.83727 Z"
           fill-rule="nonzero"
           id="path3932" />
        <path
           stroke="#000000"
           stroke-width="2"
           stroke-linejoin="round"
           stroke-linecap="butt"
           d="M 44.83727,61.24672 H 63.95538 V 77.624673 H 44.83727 Z"
           fill-rule="nonzero"
           id="path3934" />
      </g>
    </g>
    <g
       transform="matrix(0.26458333,0,0,0.26458333,103.87937,41.320738)"
       id="g4047"
       style="fill:none;stroke:none;stroke-linecap:square;stroke-miterlimit:10">
      <g
         clip-path="url(#p.0)"
         id="g4011">
        <path
           fill="#000000"
           fill-opacity="0"
           d="M 0,0 H 111.56168 V 100 H 0 Z"
           fill-rule="nonzero"
           id="path3961" />
        <path
           fill="#ffffff"
           d="m 21.960232,50 v 0 c 0,-16.498962 14.54546,-29.874016 32.48819,-29.874016 v 0 c 17.94273,0 32.488194,13.375053 32.488194,29.874016 v 0 c 0,16.498962 -14.545464,29.874016 -32.488194,29.874016 v 0 C 36.505692,79.874016 21.960232,66.498963 21.960232,50 Z"
           fill-rule="nonzero"
           id="path3963" />
        <path
           stroke="#000000"
           stroke-width="2"
           stroke-linejoin="round"
           stroke-linecap="butt"
           d="m 21.960232,50 v 0 c 0,-16.498962 14.54546,-29.874016 32.48819,-29.874016 v 0 c 17.94273,0 32.488194,13.375053 32.488194,29.874016 v 0 c 0,16.498962 -14.545464,29.874016 -32.488194,29.874016 v 0 C 36.505692,79.874016 21.960232,66.498963 21.960232,50 Z"
           fill-rule="nonzero"
           id="path3965" />
        <path
           fill="#ffffff"
           d="m 28.322758,50 v 0 c 0,-13.263531 11.697002,-24.015749 26.125984,-24.015749 v 0 C 68.877724,25.984251 80.57473,36.736469 80.57473,50 v 0 c 0,13.263531 -11.697006,24.015747 -26.125988,24.015747 v 0 C 40.01976,74.015747 28.322758,63.263531 28.322758,50 Z"
           fill-rule="nonzero"
           id="path3967" />
        <path
           stroke="#000000"
           stroke-width="2"
           stroke-linejoin="round"
           stroke-linecap="butt"
           d="m 28.322758,50 v 0 c 0,-13.263531 11.697002,-24.015749 26.125984,-24.015749 v 0 C 68.877724,25.984251 80.57473,36.736469 80.57473,50 v 0 c 0,13.263531 -11.697006,24.015747 -26.125988,24.015747 v 0 C 40.01976,74.015747 28.322758,63.263531 28.322758,50 Z"
           fill-rule="nonzero"
           id="path3969" />
        <path
           fill="#000000"
           d="m 43.40945,39.64042 v 0 c 0,-1.513348 1.22681,-2.740158 2.740154,-2.740158 v 0 c 0.726738,0 1.423706,0.288696 1.937584,0.802574 0.513882,0.513882 0.802574,1.21085 0.802574,1.937584 v 0 c 0,1.513348 -1.22681,2.740158 -2.740158,2.740158 v 0 c -1.513343,0 -2.740154,-1.22681 -2.740154,-2.740158 z"
           fill-rule="nonzero"
           id="path3971" />
        <path
           stroke="#000000"
           stroke-width="2"
           stroke-linejoin="round"
           stroke-linecap="butt"
           d="m 43.40945,39.64042 v 0 c 0,-1.513348 1.22681,-2.740158 2.740154,-2.740158 v 0 c 0.726738,0 1.423706,0.288696 1.937584,0.802574 0.513882,0.513882 0.802574,1.21085 0.802574,1.937584 v 0 c 0,1.513348 -1.22681,2.740158 -2.740158,2.740158 v 0 c -1.513343,0 -2.740154,-1.22681 -2.740154,-2.740158 z"
           fill-rule="nonzero"
           id="path3973" />
        <path
           fill="#000000"
           d="m 37.929134,49.727036 v 0 c 0,-1.513348 1.22681,-2.740158 2.740158,-2.740158 v 0 c 0.726734,0 1.423702,0.288692 1.937584,0.802574 0.513878,0.513878 0.802574,1.210846 0.802574,1.937584 v 0 c 0,1.513348 -1.22681,2.740154 -2.740158,2.740154 v 0 c -1.513348,0 -2.740158,-1.226806 -2.740158,-2.740154 z"
           fill-rule="nonzero"
           id="path3975" />
        <path
           stroke="#000000"
           stroke-width="2"
           stroke-linejoin="round"
           stroke-linecap="butt"
           d="m 37.929134,49.727036 v 0 c 0,-1.513348 1.22681,-2.740158 2.740158,-2.740158 v 0 c 0.726734,0 1.423702,0.288692 1.937584,0.802574 0.513878,0.513878 0.802574,1.210846 0.802574,1.937584 v 0 c 0,1.513348 -1.22681,2.740154 -2.740158,2.740154 v 0 c -1.513348,0 -2.740158,-1.226806 -2.740158,-2.740154 z"
           fill-rule="nonzero"
           id="path3977" />
        <path
           fill="#000000"
           d="m 43.40945,59.031498 v 0 c 0,-1.513348 1.22681,-2.740158 2.740154,-2.740158 v 0 c 0.726738,0 1.423706,0.288692 1.937584,0.802574 0.513882,0.513878 0.802574,1.210846 0.802574,1.937584 v 0 c 0,1.513344 -1.22681,2.740154 -2.740158,2.740154 v 0 c -1.513343,0 -2.740154,-1.22681 -2.740154,-2.740154 z"
           fill-rule="nonzero"
           id="path3979" />
        <path
           stroke="#000000"
           stroke-width="2"
           stroke-linejoin="round"
           stroke-linecap="butt"
           d="m 43.40945,59.031498 v 0 c 0,-1.513348 1.22681,-2.740158 2.740154,-2.740158 v 0 c 0.726738,0 1.423706,0.288692 1.937584,0.802574 0.513882,0.513878 0.802574,1.210846 0.802574,1.937584 v 0 c 0,1.513344 -1.22681,2.740154 -2.740158,2.740154 v 0 c -1.513343,0 -2.740154,-1.22681 -2.740154,-2.740154 z"
           fill-rule="nonzero"
           id="path3981" />
        <path
           fill="#000000"
           d="m 59.95538,59.031498 v 0 c 0,-1.513348 1.22681,-2.740158 2.740158,-2.740158 v 0 c 0.726734,0 1.423702,0.288692 1.937588,0.802574 0.513878,0.513878 0.802566,1.210846 0.802566,1.937584 v 0 c 0,1.513344 -1.226806,2.740154 -2.740154,2.740154 v 0 c -1.513348,0 -2.740158,-1.22681 -2.740158,-2.740154 z"
           fill-rule="nonzero"
           id="path3983" />
        <path
           stroke="#000000"
           stroke-width="2"
           stroke-linejoin="round"
           stroke-linecap="butt"
           d="m 59.95538,59.031498 v 0 c 0,-1.513348 1.22681,-2.740158 2.740158,-2.740158 v 0 c 0.726734,0 1.423702,0.288692 1.937588,0.802574 0.513878,0.513878 0.802566,1.210846 0.802566,1.937584 v 0 c 0,1.513344 -1.226806,2.740154 -2.740154,2.740154 v 0 c -1.513348,0 -2.740158,-1.22681 -2.740158,-2.740154 z"
           fill-rule="nonzero"
           id="path3985" />
        <path
           fill="#000000"
           d="m 63.929134,49.727036 v 0 c 0,-1.513348 1.226811,-2.740158 2.740154,-2.740158 v 0 c 0.726738,0 1.423706,0.288692 1.937584,0.802574 0.513886,0.513878 0.802574,1.210846 0.802574,1.937584 v 0 c 0,1.513348 -1.226806,2.740154 -2.740158,2.740154 v 0 c -1.513343,0 -2.740154,-1.226806 -2.740154,-2.740154 z"
           fill-rule="nonzero"
           id="path3987" />
        <path
           stroke="#000000"
           stroke-width="2"
           stroke-linejoin="round"
           stroke-linecap="butt"
           d="m 63.929134,49.727036 v 0 c 0,-1.513348 1.226811,-2.740158 2.740154,-2.740158 v 0 c 0.726738,0 1.423706,0.288692 1.937584,0.802574 0.513886,0.513878 0.802574,1.210846 0.802574,1.937584 v 0 c 0,1.513348 -1.226806,2.740154 -2.740158,2.740154 v 0 c -1.513343,0 -2.740154,-1.226806 -2.740154,-2.740154 z"
           fill-rule="nonzero"
           id="path3989" />
        <path
           fill="#000000"
           d="m 59.95538,39.64042 v 0 c 0,-1.513348 1.22681,-2.740158 2.740158,-2.740158 v 0 c 0.726734,0 1.423702,0.288696 1.937588,0.802574 0.513878,0.513882 0.802566,1.21085 0.802566,1.937584 v 0 c 0,1.513348 -1.226806,2.740158 -2.740154,2.740158 v 0 c -1.513348,0 -2.740158,-1.22681 -2.740158,-2.740158 z"
           fill-rule="nonzero"
           id="path3991" />
        <path
           stroke="#000000"
           stroke-width="2"
           stroke-linejoin="round"
           stroke-linecap="butt"
           d="m 59.95538,39.64042 v 0 c 0,-1.513348 1.22681,-2.740158 2.740158,-2.740158 v 0 c 0.726734,0 1.423702,0.288696 1.937588,0.802574 0.513878,0.513882 0.802566,1.21085 0.802566,1.937584 v 0 c 0,1.513348 -1.226806,2.740158 -2.740154,2.740158 v 0 c -1.513348,0 -2.740158,-1.22681 -2.740158,-2.740158 z"
           fill-rule="nonzero"
           id="path3993" />
        <path
           fill="#000000"
           d="m 50.45669,27.19685 h 6.425198 v 3.275591 H 50.45669 Z"
           fill-rule="nonzero"
           id="path3995" />
        <path
           stroke="#000000"
           stroke-width="2"
           stroke-linejoin="round"
           stroke-linecap="butt"
           d="m 50.45669,27.19685 h 6.425198 v 3.275591 H 50.45669 Z"
           fill-rule="nonzero"
           id="path3997" />
        <path
           fill="#000000"
           d="m 36.771652,66.149605 v 0 c 0,-1.513344 1.226811,-2.740154 2.740158,-2.740154 v 0 c 0.726734,0 1.423706,0.288692 1.937584,0.80257 0.513882,0.513878 0.802574,1.210854 0.802574,1.937584 v 0 c 0,1.513351 -1.22681,2.740158 -2.740158,2.740158 v 0 c -1.513348,0 -2.740158,-1.226807 -2.740158,-2.740158 z"
           fill-rule="nonzero"
           id="path3999" />
        <path
           stroke="#000000"
           stroke-width="2"
           stroke-linejoin="round"
           stroke-linecap="butt"
           d="m 36.771652,66.149605 v 0 c 0,-1.513344 1.226811,-2.740154 2.740158,-2.740154 v 0 c 0.726734,0 1.423706,0.288692 1.937584,0.80257 0.513882,0.513878 0.802574,1.210854 0.802574,1.937584 v 0 c 0,1.513351 -1.22681,2.740158 -2.740158,2.740158 v 0 c -1.513348,0 -2.740158,-1.226807 -2.740158,-2.740158 z"
           fill-rule="nonzero"
           id="path4001" />
        <path
           fill="#000000"
           d="m 66.215225,66.968506 v 0 c 0,-1.513351 1.226807,-2.740158 2.740158,-2.740158 v 0 c 0.72673,0 1.423698,0.288696 1.937584,0.802574 0.513878,0.513878 0.802574,1.210846 0.802574,1.937584 v 0 c 0,1.513344 -1.226814,2.740158 -2.740158,2.740158 v 0 c -1.513351,0 -2.740158,-1.226814 -2.740158,-2.740158 z"
           fill-rule="nonzero"
           id="path4003" />
        <path
           stroke="#000000"
           stroke-width="2"
           stroke-linejoin="round"
           stroke-linecap="butt"
           d="m 66.215225,66.968506 v 0 c 0,-1.513351 1.226807,-2.740158 2.740158,-2.740158 v 0 c 0.72673,0 1.423698,0.288696 1.937584,0.802574 0.513878,0.513878 0.802574,1.210846 0.802574,1.937584 v 0 c 0,1.513344 -1.226814,2.740158 -2.740158,2.740158 v 0 c -1.513351,0 -2.740158,-1.226814 -2.740158,-2.740158 z"
           fill-rule="nonzero"
           id="path4005" />
        <path
           fill="#000000"
           d="m 49.677166,44.750656 2.401573,9.952755 h 4.80315 l 2.401577,-9.952755 z"
           fill-rule="nonzero"
           id="path4007" />
        <path
           stroke="#000000"
           stroke-width="2"
           stroke-linejoin="round"
           stroke-linecap="butt"
           d="m 49.677166,44.750656 2.401573,9.952755 h 4.80315 l 2.401577,-9.952755 z"
           fill-rule="nonzero"
           id="path4009" />
      </g>
    </g>
    <g
       transform="matrix(0.26458333,0,0,0.26458333,125.26751,49.530818)"
       id="g3822"
       style="fill:none;stroke:none;stroke-linecap:square;stroke-miterlimit:10">
      <g
         clip-path="url(#p.0)"
         id="g3798">
        <path
           fill="#000000"
           fill-opacity="0"
           d="M 0,0 H 100 V 100 H 0 Z"
           fill-rule="nonzero"
           id="path3772" />
        <path
           fill="#ffffff"
           d="m 21.968487,25.92126 v 0 c 0,-9.541046 8.404354,-17.275593 18.771652,-17.275593 v 0 c 10.367298,0 18.771652,7.734546 18.771652,17.275593 v 0 c 0,9.541046 -8.404354,17.275589 -18.771652,17.275589 v 0 c -10.367298,0 -18.771652,-7.734543 -18.771652,-17.275589 z"
           fill-rule="nonzero"
           id="path3774" />
        <path
           stroke="#000000"
           stroke-width="2"
           stroke-linejoin="round"
           stroke-linecap="butt"
           d="m 21.968487,25.92126 v 0 c 0,-9.541046 8.404354,-17.275593 18.771652,-17.275593 v 0 c 10.367298,0 18.771652,7.734546 18.771652,17.275593 v 0 c 0,9.541046 -8.404354,17.275589 -18.771652,17.275589 v 0 c -10.367298,0 -18.771652,-7.734543 -18.771652,-17.275589 z"
           fill-rule="nonzero"
           id="path3776" />
        <path
           fill="#ffffff"
           d="m 27.897158,25.907364 v 0 c 0,-6.514351 5.753317,-11.795276 12.850393,-11.795276 v 0 c 7.09708,0 12.850395,5.280925 12.850395,11.795276 v 0 c 0,6.514351 -5.753315,11.795277 -12.850395,11.795277 v 0 c -7.097076,0 -12.850393,-5.280926 -12.850393,-11.795277 z"
           fill-rule="nonzero"
           id="path3778" />
        <path
           stroke="#000000"
           stroke-width="2"
           stroke-linejoin="round"
           stroke-linecap="butt"
           d="m 27.897158,25.907364 v 0 c 0,-6.514351 5.753317,-11.795276 12.850393,-11.795276 v 0 c 7.09708,0 12.850395,5.280925 12.850395,11.795276 v 0 c 0,6.514351 -5.753315,11.795277 -12.850395,11.795277 v 0 c -7.097076,0 -12.850393,-5.280926 -12.850393,-11.795277 z"
           fill-rule="nonzero"
           id="path3780" />
        <path
           fill="#000000"
           d="m 31.829168,25.915733 v 0 c 0,-4.522646 3.99066,-8.188976 8.913385,-8.188976 v 0 c 4.922726,0 8.913387,3.66633 8.913387,8.188976 v 0 c 0,4.522648 -3.990662,8.188976 -8.913387,8.188976 v 0 c -4.922726,0 -8.913385,-3.666328 -8.913385,-8.188976 z"
           fill-rule="nonzero"
           id="path3782" />
        <path
           stroke="#000000"
           stroke-width="2"
           stroke-linejoin="round"
           stroke-linecap="butt"
           d="m 31.829168,25.915733 v 0 c 0,-4.522646 3.99066,-8.188976 8.913385,-8.188976 v 0 c 4.922726,0 8.913387,3.66633 8.913387,8.188976 v 0 c 0,4.522648 -3.990662,8.188976 -8.913387,8.188976 v 0 c -4.922726,0 -8.913385,-3.666328 -8.913385,-8.188976 z"
           fill-rule="nonzero"
           id="path3784" />
        <path
           fill="#ffffff"
           d="m 21.968487,74.173225 v 0 c 0,-9.541038 8.404354,-17.275589 18.771652,-17.275589 v 0 c 10.367298,0 18.771652,7.734551 18.771652,17.275589 v 0 c 0,9.541046 -8.404354,17.275597 -18.771652,17.275597 v 0 c -10.367298,0 -18.771652,-7.73455 -18.771652,-17.275597 z"
           fill-rule="nonzero"
           id="path3786" />
        <path
           stroke="#000000"
           stroke-width="2"
           stroke-linejoin="round"
           stroke-linecap="butt"
           d="m 21.968487,74.173225 v 0 c 0,-9.541038 8.404354,-17.275589 18.771652,-17.275589 v 0 c 10.367298,0 18.771652,7.734551 18.771652,17.275589 v 0 c 0,9.541046 -8.404354,17.275597 -18.771652,17.275597 v 0 c -10.367298,0 -18.771652,-7.73455 -18.771652,-17.275597 z"
           fill-rule="nonzero"
           id="path3788" />
        <path
           fill="#ffffff"
           d="m 27.897158,74.15933 v 0 c 0,-6.514351 5.753317,-11.795277 12.850393,-11.795277 v 0 c 7.09708,0 12.850395,5.280926 12.850395,11.795277 v 0 c 0,6.514351 -5.753315,11.795273 -12.850395,11.795273 v 0 c -7.097076,0 -12.850393,-5.280922 -12.850393,-11.795273 z"
           fill-rule="nonzero"
           id="path3790" />
        <path
           stroke="#000000"
           stroke-width="2"
           stroke-linejoin="round"
           stroke-linecap="butt"
           d="m 27.897158,74.15933 v 0 c 0,-6.514351 5.753317,-11.795277 12.850393,-11.795277 v 0 c 7.09708,0 12.850395,5.280926 12.850395,11.795277 v 0 c 0,6.514351 -5.753315,11.795273 -12.850395,11.795273 v 0 c -7.097076,0 -12.850393,-5.280922 -12.850393,-11.795273 z"
           fill-rule="nonzero"
           id="path3792" />
        <path
           fill="#000000"
           d="m 31.829168,74.1677 v 0 c 0,-4.522644 3.99066,-8.188972 8.913385,-8.188972 v 0 c 4.922726,0 8.913387,3.666328 8.913387,8.188972 v 0 c 0,4.522644 -3.990662,8.18898 -8.913387,8.18898 v 0 c -4.922726,0 -8.913385,-3.666336 -8.913385,-8.18898 z"
           fill-rule="nonzero"
           id="path3794" />
        <path
           stroke="#000000"
           stroke-width="2"
           stroke-linejoin="round"
           stroke-linecap="butt"
           d="m 31.829168,74.1677 v 0 c 0,-4.522644 3.99066,-8.188972 8.913385,-8.188972 v 0 c 4.922726,0 8.913387,3.666328 8.913387,8.188972 v 0 c 0,4.522644 -3.990662,8.18898 -8.913387,8.18898 v 0 c -4.922726,0 -8.913385,-3.666336 -8.913385,-8.18898 z"
           fill-rule="nonzero"
           id="path3796" />
      </g>
    </g>
  </g>
</svg>
