<?xml version="1.0" encoding="UTF-8" standalone="no"?>
<svg
   xmlns:dc="http://purl.org/dc/elements/1.1/"
   xmlns:cc="http://creativecommons.org/ns#"
   xmlns:rdf="http://www.w3.org/1999/02/22-rdf-syntax-ns#"
   xmlns:svg="http://www.w3.org/2000/svg"
   xmlns="http://www.w3.org/2000/svg"
   xmlns:sodipodi="http://sodipodi.sourceforge.net/DTD/sodipodi-0.dtd"
   xmlns:inkscape="http://www.inkscape.org/namespaces/inkscape"
   sodipodi:docname="serial.svg"
   inkscape:version="1.0 (4035a4fb49, 2020-05-01)"
   id="svg8"
   version="1.1"
   viewBox="0 0 187.33699 95.129962"
   height="359.54602"
   width="708.04535">
  <defs
     id="defs2" />
  <sodipodi:namedview
     fit-margin-bottom="0"
     fit-margin-right="0"
     fit-margin-left="0"
     fit-margin-top="0"
     inkscape:window-maximized="1"
     inkscape:window-y="-8"
     inkscape:window-x="-8"
     inkscape:window-height="1017"
     inkscape:window-width="1920"
     units="px"
     showgrid="false"
     inkscape:document-rotation="0"
     inkscape:current-layer="layer1"
     inkscape:document-units="mm"
     inkscape:cy="65.140927"
     inkscape:cx="295.90199"
     inkscape:zoom="0.61589402"
     inkscape:pageshadow="2"
     inkscape:pageopacity="0.0"
     borderopacity="1.0"
     bordercolor="#666666"
     pagecolor="#ffffff"
     id="base" />
  <metadata
     id="metadata5">
    <rdf:RDF>
      <cc:Work
         rdf:about="">
        <dc:format>image/svg+xml</dc:format>
        <dc:type
           rdf:resource="http://purl.org/dc/dcmitype/StillImage" />
        <dc:title />
      </cc:Work>
    </rdf:RDF>
  </metadata>
  <g
     transform="translate(-10.765833,-4.7798345)"
     id="layer1"
     inkscape:groupmode="layer"
     inkscape:label="Layer 1">
    <path
       id="path847"
       d="m 33.453054,8.6584371 71.235326,-3.3453051 92.48785,5.90348 0.39356,40.73401 -10.2327,47.424622 -171.397694,-0.78713 -4.526002,-46.834273 z"
       style="fill:#ffffff;stroke:#000000;stroke-width:1.065;stroke-linecap:butt;stroke-linejoin:miter;stroke-miterlimit:4;stroke-dasharray:none;stroke-opacity:1" />
    <path
       id="path851"
       d="M 26.565659,46.834274 197.56979,51.950622 Z"
       style="fill:none;stroke:#000000;stroke-width:1.065;stroke-linecap:butt;stroke-linejoin:miter;stroke-miterlimit:4;stroke-dasharray:none;stroke-opacity:1" />
    <g
       style="font-size:21.1667px;line-height:1.25;font-family:Arial;-inkscape-font-specification:Arial;text-align:center;text-anchor:middle;stroke-width:0.264583"
       id="text855"
       transform="rotate(1.5202836)"
       aria-label="SERIAL #">
      <path
         id="path857"
         style="stroke-width:0.264583"
         d="m 64.397646,29.220837 1.89136,-0.165365 q 0.134359,1.136883 0.620119,1.870689 0.496094,0.723472 1.529624,1.178225 1.033531,0.444418 2.325443,0.444418 1.147219,0 2.02572,-0.341065 0.878501,-0.341065 1.302248,-0.930177 0.434083,-0.599448 0.434083,-1.302248 0,-0.713136 -0.413412,-1.240237 -0.413412,-0.537435 -1.36426,-0.899171 -0.609783,-0.237712 -2.697514,-0.733807 -2.087732,-0.506429 -2.924891,-0.950847 -1.085207,-0.568442 -1.622643,-1.405602 -0.5271,-0.847494 -0.5271,-1.89136 0,-1.147219 0.651124,-2.139408 0.651124,-1.002524 1.901696,-1.519289 1.250571,-0.516765 2.780196,-0.516765 1.684655,0 2.966232,0.547771 1.291913,0.537435 1.984378,1.591636 0.692466,1.054201 0.744142,2.387455 l -1.922366,0.144694 q -0.15503,-1.436607 -1.054201,-2.170413 -0.888836,-0.733807 -2.635502,-0.733807 -1.819014,0 -2.656173,0.671795 -0.826824,0.661459 -0.826824,1.601972 0,0.816489 0.589112,1.343589 0.578777,0.527101 3.017908,1.085207 2.449467,0.547771 3.358974,0.961183 1.322918,0.609783 1.953372,1.550296 0.630453,0.930177 0.630453,2.149743 0,1.20923 -0.692465,2.284102 -0.692465,1.064536 -1.994713,1.663983 -1.291913,0.589113 -2.914556,0.589113 -2.056725,0 -3.451991,-0.599448 -1.384931,-0.599447 -2.180749,-1.798343 -0.785483,-1.20923 -0.826824,-2.728519 z" />
      <path
         id="path859"
         style="stroke-width:0.264583"
         d="M 79.259812,34.088764 V 18.93721 h 10.955421 v 1.788008 h -8.950372 v 4.640551 h 8.38193 v 1.777672 h -8.38193 v 5.157316 h 9.301772 v 1.788007 z" />
      <path
         id="path861"
         style="stroke-width:0.264583"
         d="M 93.388171,34.088764 V 18.93721 h 6.717949 q 2.02572,0 3.07992,0.413412 1.0542,0.403077 1.68465,1.436607 0.63046,1.033531 0.63046,2.284102 0,1.612308 -1.04387,2.718185 -1.04386,1.105877 -3.22461,1.405601 0.79581,0.382406 1.20923,0.754477 0.8785,0.806154 1.66398,2.015384 l 2.6355,4.123786 h -2.52181 l -2.00505,-3.152267 q -0.8785,-1.36426 -1.44694,-2.087731 -0.56844,-0.723472 -1.023197,-1.01286 -0.444418,-0.289389 -0.909507,-0.403077 -0.341065,-0.07235 -1.116213,-0.07235 H 95.39322 v 6.728282 z m 2.005049,-8.464613 h 4.309821 q 1.374599,0 2.149739,-0.279053 0.77515,-0.289389 1.17823,-0.909507 0.40308,-0.630453 0.40308,-1.36426 0,-1.074871 -0.78549,-1.767337 -0.77514,-0.692465 -2.4598,-0.692465 h -4.79558 z" />
      <path
         id="path863"
         style="stroke-width:0.264583"
         d="M 108.99448,34.088764 V 18.93721 h 2.00505 v 15.151554 z" />
      <path
         id="path865"
         style="stroke-width:0.264583"
         d="m 112.85988,34.088764 5.81878,-15.151554 h 2.16008 l 6.20118,15.151554 h -2.2841 l -1.76734,-4.588874 h -6.33554 l -1.66398,4.588874 z m 4.37184,-6.221852 h 5.13664 l -1.5813,-4.196133 q -0.72347,-1.912031 -1.07487,-3.141932 -0.28939,1.457277 -0.81649,2.893885 z" />
      <path
         id="path867"
         style="stroke-width:0.264583"
         d="M 128.57988,34.088764 V 18.93721 h 2.00505 v 13.363547 h 7.46209 v 1.788007 z" />
      <path
         id="path869"
         style="stroke-width:0.264583"
         d="m 144.96133,34.347147 0.89917,-4.402839 h -1.74666 v -1.53996 h 2.05672 l 0.76481,-3.751715 h -2.82153 v -1.539961 h 3.13159 l 0.89917,-4.433844 h 1.5503 l -0.89917,4.433844 h 3.25562 l 0.89917,-4.433844 h 1.56063 l -0.89917,4.433844 h 1.78801 v 1.539961 h -2.09807 l -0.77515,3.751715 h 2.87322 v 1.53996 h -3.18328 l -0.89917,4.402839 h -1.55029 l 0.88883,-4.402839 h -3.24528 l -0.89917,4.402839 z m 2.75953,-5.942799 h 3.24528 l 0.77515,-3.751715 h -3.25562 z" />
    </g>
    <text
       xml:space="preserve"
       style="font-size:37.6832px;line-height:1.25;font-family:Arial;-inkscape-font-specification:Arial;text-align:center;text-anchor:middle;stroke-width:0.471038"
       x="105.28991"
       y="85.984619"
       id="text3040"
       transform="rotate(0.71452003)"><tspan
         class="serial-number"
         sodipodi:role="line"
         id="tspan3038"
         x="105.28991"
         y="85.984619"
         style="stroke-width:0.471038">ABCDEF</tspan></text>
    <path
       id="path849"
       d="M 11.413394,51.753841 23.417137,64.151147 33.453054,8.6584371 Z"
       style="fill:#ffffff;stroke:#000000;stroke-width:1.065;stroke-linecap:butt;stroke-linejoin:miter;stroke-miterlimit:4;stroke-dasharray:none;stroke-opacity:1" />
  </g>
</svg>
