<?xml version="1.0" encoding="UTF-8" standalone="no"?>
<svg
   xmlns:dc="http://purl.org/dc/elements/1.1/"
   xmlns:cc="http://creativecommons.org/ns#"
   xmlns:rdf="http://www.w3.org/1999/02/22-rdf-syntax-ns#"
   xmlns:svg="http://www.w3.org/2000/svg"
   xmlns="http://www.w3.org/2000/svg"
   xmlns:sodipodi="http://sodipodi.sourceforge.net/DTD/sodipodi-0.dtd"
   xmlns:inkscape="http://www.inkscape.org/namespaces/inkscape"
   inkscape:version="1.0 (4035a4fb49, 2020-05-01)"
   sodipodi:docname="module.svg"
   id="svg178"
   stroke-miterlimit="10"
   stroke-linecap="square"
   stroke="none"
   fill="none"
   viewBox="0.0 0.0 348.0 348.0"
   version="1.1">
  <metadata
     id="metadata184">
    <rdf:RDF>
      <cc:Work
         rdf:about="">
        <dc:format>image/svg+xml</dc:format>
        <dc:type
           rdf:resource="http://purl.org/dc/dcmitype/StillImage" />
      </cc:Work>
    </rdf:RDF>
  </metadata>
  <defs
     id="defs182" />
  <sodipodi:namedview
     inkscape:current-layer="g176"
     inkscape:window-maximized="1"
     inkscape:window-y="-8"
     inkscape:window-x="-8"
     inkscape:cy="205.83827"
     inkscape:cx="-55.079549"
     inkscape:zoom="1.3567944"
     showgrid="false"
     id="namedview180"
     inkscape:window-height="1017"
     inkscape:window-width="1920"
     inkscape:pageshadow="2"
     inkscape:pageopacity="0"
     guidetolerance="10"
     gridtolerance="10"
     objecttolerance="10"
     borderopacity="1"
     bordercolor="#666666"
     pagecolor="#ffffff" />
  <clipPath
     id="p.0">
    <path
       id="path117"
       clip-rule="nonzero"
       d="m0 0l348.0 0l0 348.0l-348.0 0l0 -348.0z" />
  </clipPath>
  <g
     id="g176"
     clip-path="url(#p.0)">
    <path
       id="path120"
       fill-rule="nonzero"
       d="m0 0l348.0 0l0 348.0l-348.0 0z"
       fill-opacity="0.0"
       fill="#000000" />
    <path
       id="path124"
       fill-rule="nonzero"
       d="m5.07874 5.7758217l336.9134 0l0 337.6693l-336.9134 0z"
       fill-opacity="0.0"
       fill="#000000" />
    <path
       id="path126"
       fill-rule="nonzero"
       d="m5.07874 5.7758217l336.9134 0l0 337.6693l-336.9134 0z"
       stroke-linecap="butt"
       stroke-linejoin="round"
       stroke-width="2.0"
       stroke="#000000" />
    <path
       id="path128"
       fill-rule="nonzero"
       d="m282.73444 40.553925l0 0c0 -8.375591 6.966034 -15.165352 15.5590515 -15.165352l0 0c4.126526 0 8.084015 1.5977726 11.001923 4.441828c2.9178772 2.844057 4.557129 6.7014217 4.557129 10.723524l0 0c0 8.375595 -6.9660034 15.165356 -15.5590515 15.165356l0 0c-8.593018 0 -15.5590515 -6.7897606 -15.5590515 -15.165356z"
       fill="#ffffff" data-statuslight />
    <path
       id="path130"
       fill-rule="nonzero"
       d="m282.73444 40.553925l0 0c0 -8.375591 6.966034 -15.165352 15.5590515 -15.165352l0 0c4.126526 0 8.084015 1.5977726 11.001923 4.441828c2.9178772 2.844057 4.557129 6.7014217 4.557129 10.723524l0 0c0 8.375595 -6.9660034 15.165356 -15.5590515 15.165356l0 0c-8.593018 0 -15.5590515 -6.7897606 -15.5590515 -15.165356z"
       stroke-linecap="butt"
       stroke-linejoin="round"
       stroke-width="2.0"
       stroke="#000000" />
    <path
       id="path132"
       fill-rule="nonzero"
       d="m29.351706 71.952896l225.32283 0l0 135.30708l-225.32283 0z"
       fill="#000000" />
    <path
       id="path136"
       fill-rule="nonzero"
       d="m29.351706 211.62212l49.259842 0l0 70.29921l-49.259842 0z"
       fill-opacity="0.0"
       fill="#000000" data-selectable="button-1" />
    <path
       id="path138"
       fill-rule="nonzero"
       d="m29.351706 211.62212l49.259842 0l0 70.29921l-49.259842 0z"
       stroke-linecap="butt"
       stroke-linejoin="round"
       stroke-width="1.0"
       stroke="#000000" />
    <path
       id="path142"
       fill-rule="nonzero"
       d="m85.34121 211.62212l49.259834 0l0 70.29921l-49.259834 0z"
       fill-opacity="0.0"
       fill="#000000" data-selectable="button-2" />
    <path
       id="path144"
       fill-rule="nonzero"
       d="m85.34121 211.62212l49.259834 0l0 70.29921l-49.259834 0z"
       stroke-linecap="butt"
       stroke-linejoin="round"
       stroke-width="1.0"
       stroke="#000000" />
    <path
       id="path148"
       fill-rule="nonzero"
       d="m146.54593 211.62212l49.259842 0l0 70.29921l-49.259842 0z"
       fill-opacity="0.0"
       fill="#000000" data-selectable="button-3" />
    <path
       id="path150"
       fill-rule="nonzero"
       d="m146.54593 211.62212l49.259842 0l0 70.29921l-49.259842 0z"
       stroke-linecap="butt"
       stroke-linejoin="round"
       stroke-width="1.0"
       stroke="#000000" />
    <path
       id="path154"
       fill-rule="nonzero"
       d="m205.43045 211.62212l49.259842 0l0 70.29921l-49.259842 0z"
       fill-opacity="0.0"
       fill="#000000" data-selectable="button-4" />
    <path
       id="path156"
       fill-rule="nonzero"
       d="m205.43045 211.62212l49.259842 0l0 70.29921l-49.259842 0z"
       stroke-linecap="butt"
       stroke-linejoin="round"
       stroke-width="1.0"
       stroke="#000000" />
    <path
       id="path160"
       fill-rule="nonzero"
       d="m276.51968 72.89239l52.661407 0l0 209.03937l-52.661407 0z"
       fill="#000000" />
    <path
       id="path162"
       fill-rule="nonzero"
       d="m276.51968 72.89239l52.661407 0l0 209.03937l-52.661407 0z"
       stroke-linecap="butt"
       stroke-linejoin="round"
       stroke-width="2.0"
       stroke="#000000" />
    <g
       transform="translate(0.30965965,-0.6193193)"
       id="g274" data-stage="1">
      <path
         fill="#ffffff"
         d="m 289.15316,247.83202 h 27.46457 v 16.47246 h -27.46457 z"
         fill-rule="nonzero"
         id="path164" />
      <path
         stroke="#000000"
         stroke-width="2"
         stroke-linejoin="round"
         stroke-linecap="butt"
         d="m 289.1181,247.83202 h 27.46457 v 16.47246 H 289.1181 Z"
         fill-rule="nonzero"
         id="path166" />
    </g>
    <g
       transform="translate(0.2833535,-0.74979721)"
       id="g270" data-stage="2">
      <path
         fill="#ffffff"
         d="m 289.18823,211.62204 h 27.46457 v 16.47244 h -27.46457 z"
         fill-rule="nonzero"
         id="path168" />
      <path
         stroke="#000000"
         stroke-width="2"
         stroke-linejoin="round"
         stroke-linecap="butt"
         d="m 289.22329,211.62204 h 27.46457 v 16.47244 h -27.46457 z"
         fill-rule="nonzero"
         id="path170" />
    </g>
    <g
       transform="translate(0.32720726,-0.88030563)"
       id="g266" data-stage="3">
      <path
         fill="#ffffff"
         d="m 289.29342,175.41208 h 27.46457 v 16.47244 h -27.46457 z"
         fill-rule="nonzero"
         id="path172" />
      <path
         stroke="#000000"
         stroke-width="2"
         stroke-linejoin="round"
         stroke-linecap="butt"
         d="m 289.25836,175.41208 h 27.46457 v 16.47244 h -27.46457 z"
         fill-rule="nonzero"
         id="path174" />
    </g>
    <g
       transform="translate(0.30965965,-1.2902483)"
       id="g262" data-stage="4">
      <path
         id="path172-4"
         fill-rule="nonzero"
         d="m 289.39861,139.48155 h 27.46457 v 16.47244 h -27.46457 z"
         fill="#ffffff" />
      <path
         id="path174-4"
         fill-rule="nonzero"
         d="m 289.43367,139.48155 h 27.46457 v 16.47244 h -27.46457 z"
         stroke-linecap="butt"
         stroke-linejoin="round"
         stroke-width="2"
         stroke="#000000" />
    </g>
    <g
       transform="translate(0.30090111,-0.6193193)"
       id="g258" data-stage="5">
      <path
         fill="#ffffff"
         d="m 289.32848,102.47017 h 27.46457 v 16.47244 h -27.46457 z"
         fill-rule="nonzero"
         id="path172-4-9" />
      <path
         stroke="#000000"
         stroke-width="2"
         stroke-linejoin="round"
         stroke-linecap="butt"
         d="m 289.36354,102.47017 h 27.46457 v 16.47244 h -27.46457 z"
         fill-rule="nonzero"
         id="path174-4-8" />
    </g>
    <text
       id="text278"
       y="268.06317"
       x="54.337387"
       style="font-size:60.4625px;line-height:1.25;font-family:Arial;-inkscape-font-specification:Arial;text-align:center;text-anchor:middle;stroke-width:0.755781"
       xml:space="preserve"><tspan
         style="fill:#000000;stroke-width:0.755781"
         y="268.06317"
         x="54.337387"
         id="tspan276"
         sodipodi:role="line" class="button-1">1</tspan></text>
    <text
       xml:space="preserve"
       style="font-size:60.4625px;line-height:1.25;font-family:Arial;-inkscape-font-specification:Arial;text-align:center;text-anchor:middle;stroke-width:0.755781"
       x="110.69999"
       y="268.26462"
       id="text278-2"><tspan
         sodipodi:role="line"
         id="tspan276-1"
         x="110.69999"
         y="268.26462"
         style="fill:#000000;stroke-width:0.755781" class="button-2">2</tspan></text>
    <text
       id="text278-2-5"
       y="267.77402"
       x="171.2914"
       style="font-size:60.4625px;line-height:1.25;font-family:Arial;-inkscape-font-specification:Arial;text-align:center;text-anchor:middle;stroke-width:0.755781"
       xml:space="preserve"><tspan
         style="fill:#000000;stroke-width:0.755781"
         y="267.77402"
         x="171.2914"
         id="tspan276-1-2"
         sodipodi:role="line" class="button-3">3</tspan></text>
    <text
       xml:space="preserve"
       style="font-size:60.4625px;line-height:1.25;font-family:Arial;-inkscape-font-specification:Arial;text-align:center;text-anchor:middle;stroke-width:0.755781"
       x="230.63913"
       y="268.97919"
       id="text278-2-5-6"><tspan
         sodipodi:role="line"
         id="tspan276-1-2-1"
         x="230.63913"
         y="268.97919"
         style="fill:#000000;stroke-width:0.755781" class="button-4">4</tspan></text>
  </g>
  <text
     id="text188"
     y="185.59807"
     x="142.10335"
     style="font-size:128.464px;line-height:1.25;font-family:Arial;-inkscape-font-specification:Arial;text-align:center;text-anchor:middle;stroke-width:1.6058"
     xml:space="preserve"><tspan
       style="fill:#ffffff;stroke-width:1.6058"
       y="185.59807"
       x="142.10335"
       id="tspan186"
       sodipodi:role="line" class="display">1</tspan></text>
</svg>
