<?xml version="1.0" encoding="UTF-8" standalone="no"?>
<svg
   xmlns:dc="http://purl.org/dc/elements/1.1/"
   xmlns:cc="http://creativecommons.org/ns#"
   xmlns:rdf="http://www.w3.org/1999/02/22-rdf-syntax-ns#"
   xmlns:svg="http://www.w3.org/2000/svg"
   xmlns="http://www.w3.org/2000/svg"
   xmlns:sodipodi="http://sodipodi.sourceforge.net/DTD/sodipodi-0.dtd"
   xmlns:inkscape="http://www.inkscape.org/namespaces/inkscape"
   sodipodi:docname="DVI.svg"
   inkscape:version="1.0 (4035a4fb49, 2020-05-01)"
   id="svg3190"
   version="1.1"
   viewBox="0 0 100.46462 45.789604"
   height="45.789604mm"
   width="100.46462mm">
  <defs
     id="defs3184" />
  <sodipodi:namedview
     fit-margin-bottom="0"
     fit-margin-right="0"
     fit-margin-left="0"
     fit-margin-top="0"
     inkscape:snap-global="false"
     inkscape:window-maximized="1"
     inkscape:window-y="-8"
     inkscape:window-x="-8"
     inkscape:window-height="1017"
     inkscape:window-width="1920"
     showgrid="false"
     inkscape:document-rotation="0"
     inkscape:current-layer="layer1"
     inkscape:document-units="mm"
     inkscape:cy="209.75785"
     inkscape:cx="213.46506"
     inkscape:zoom="1.1484084"
     inkscape:pageshadow="2"
     inkscape:pageopacity="0.0"
     borderopacity="1.0"
     bordercolor="#666666"
     pagecolor="#ffffff"
     id="base" />
  <metadata
     id="metadata3187">
    <rdf:RDF>
      <cc:Work
         rdf:about="">
        <dc:format>image/svg+xml</dc:format>
        <dc:type
           rdf:resource="http://purl.org/dc/dcmitype/StillImage" />
        <dc:title></dc:title>
      </cc:Work>
    </rdf:RDF>
  </metadata>
  <g
     transform="translate(-51.261223,-40.262868)"
     id="layer1"
     inkscape:groupmode="layer"
     inkscape:label="Layer 1">
    <g
       transform="matrix(0.26458333,0,0,0.26458333,61.23492,59.59414)"
       id="g4487"
       style="fill:none;stroke:none;stroke-linecap:square;stroke-miterlimit:10">
      <g
         clip-path="url(#p.0)"
         id="g4417">
        <path
           fill="#000000"
           fill-opacity="0"
           d="M 0,0 H 203.71129 V 100 H 0 Z"
           fill-rule="nonzero"
           id="path4299" />
        <path
           fill="#ffffff"
           d="m 7.195538,45.020996 v 0 c 0,-3.818157 3.095229,-6.913384 6.913386,-6.913384 v 0 c 1.833544,0 3.59199,0.728371 4.888503,2.024884 1.296511,1.296512 2.024883,3.054958 2.024883,4.8885 v 0 c 0,3.818161 -3.095228,6.913387 -6.913386,6.913387 v 0 c -3.818157,0 -6.913386,-3.095226 -6.913386,-6.913387 z"
           fill-rule="nonzero"
           id="path4301" />
        <path
           stroke="#000000"
           stroke-width="2"
           stroke-linejoin="round"
           stroke-linecap="butt"
           d="m 7.195538,45.020996 v 0 c 0,-3.818157 3.095229,-6.913384 6.913386,-6.913384 v 0 c 1.833544,0 3.59199,0.728371 4.888503,2.024884 1.296511,1.296512 2.024883,3.054958 2.024883,4.8885 v 0 c 0,3.818161 -3.095228,6.913387 -6.913386,6.913387 v 0 c -3.818157,0 -6.913386,-3.095226 -6.913386,-6.913387 z"
           fill-rule="nonzero"
           id="path4303" />
        <path
           fill="#ffffff"
           d="m 181.02493,45.020996 v 0 c 0,-3.818157 3.09523,-6.913384 6.91339,-6.913384 v 0 c 1.83354,0 3.59198,0.728371 4.88851,2.024884 1.2965,1.296512 2.02487,3.054958 2.02487,4.8885 v 0 c 0,3.818161 -3.09522,6.913387 -6.91338,6.913387 v 0 c -3.81816,0 -6.91339,-3.095226 -6.91339,-6.913387 z"
           fill-rule="nonzero"
           id="path4305" />
        <path
           stroke="#000000"
           stroke-width="2"
           stroke-linejoin="round"
           stroke-linecap="butt"
           d="m 181.02493,45.020996 v 0 c 0,-3.818157 3.09523,-6.913384 6.91339,-6.913384 v 0 c 1.83354,0 3.59198,0.728371 4.88851,2.024884 1.2965,1.296512 2.02487,3.054958 2.02487,4.8885 v 0 c 0,3.818161 -3.09522,6.913387 -6.91338,6.913387 v 0 c -3.81816,0 -6.91339,-3.095226 -6.91339,-6.913387 z"
           fill-rule="nonzero"
           id="path4307" />
        <path
           fill="#ffffff"
           d="m 21.023623,22.863518 11.220472,44.88189 H 172.48032 l 11.22047,-44.88189 z"
           fill-rule="nonzero"
           id="path4309" />
        <path
           stroke="#000000"
           stroke-width="2"
           stroke-linejoin="round"
           stroke-linecap="butt"
           d="m 21.023623,22.863518 11.220472,44.88189 H 172.48032 l 11.22047,-44.88189 z"
           fill-rule="nonzero"
           id="path4311" />
        <path
           fill="#ffffff"
           d="m 44.46982,30.816322 h 6.047241 v 6.299213 H 44.46982 Z"
           fill-rule="nonzero"
           id="path4313" />
        <path
           stroke="#000000"
           stroke-width="2"
           stroke-linejoin="round"
           stroke-linecap="butt"
           d="m 44.46982,30.816322 h 6.047241 v 6.299213 H 44.46982 Z"
           fill-rule="nonzero"
           id="path4315" />
        <path
           fill="#ffffff"
           d="m 53.519527,30.816322 h 6.047241 v 6.299213 h -6.047241 z"
           fill-rule="nonzero"
           id="path4317" />
        <path
           stroke="#000000"
           stroke-width="2"
           stroke-linejoin="round"
           stroke-linecap="butt"
           d="m 53.519527,30.816322 h 6.047241 v 6.299213 h -6.047241 z"
           fill-rule="nonzero"
           id="path4319" />
        <path
           fill="#ffffff"
           d="m 71.61895,30.816322 h 6.047249 v 6.299213 H 71.61895 Z"
           fill-rule="nonzero"
           id="path4321" />
        <path
           stroke="#000000"
           stroke-width="2"
           stroke-linejoin="round"
           stroke-linecap="butt"
           d="m 71.61895,30.816322 h 6.047249 v 6.299213 H 71.61895 Z"
           fill-rule="nonzero"
           id="path4323" />
        <path
           fill="#ffffff"
           d="m 89.71837,30.816322 h 6.047249 v 6.299213 H 89.71837 Z"
           fill-rule="nonzero"
           id="path4325" />
        <path
           stroke="#000000"
           stroke-width="2"
           stroke-linejoin="round"
           stroke-linecap="butt"
           d="m 89.71837,30.816322 h 6.047249 v 6.299213 H 89.71837 Z"
           fill-rule="nonzero"
           id="path4327" />
        <path
           fill="#ffffff"
           d="m 62.56924,30.816322 h 6.047245 v 6.299213 H 62.56924 Z"
           fill-rule="nonzero"
           id="path4329" />
        <path
           stroke="#000000"
           stroke-width="2"
           stroke-linejoin="round"
           stroke-linecap="butt"
           d="m 62.56924,30.816322 h 6.047245 v 6.299213 H 62.56924 Z"
           fill-rule="nonzero"
           id="path4331" />
        <path
           fill="#ffffff"
           d="m 80.66866,30.816322 h 6.047241 v 6.299213 H 80.66866 Z"
           fill-rule="nonzero"
           id="path4333" />
        <path
           stroke="#000000"
           stroke-width="2"
           stroke-linejoin="round"
           stroke-linecap="butt"
           d="m 80.66866,30.816322 h 6.047241 v 6.299213 H 80.66866 Z"
           fill-rule="nonzero"
           id="path4335" />
        <path
           fill="#ffffff"
           d="m 98.76809,30.816322 h 6.04724 v 6.299213 h -6.04724 z"
           fill-rule="nonzero"
           id="path4337" />
        <path
           stroke="#000000"
           stroke-width="2"
           stroke-linejoin="round"
           stroke-linecap="butt"
           d="m 98.76809,30.816322 h 6.04724 v 6.299213 h -6.04724 z"
           fill-rule="nonzero"
           id="path4339" />
        <path
           fill="#ffffff"
           d="m 107.8178,30.816322 h 6.04724 v 6.299213 h -6.04724 z"
           fill-rule="nonzero"
           id="path4341" />
        <path
           stroke="#000000"
           stroke-width="2"
           stroke-linejoin="round"
           stroke-linecap="butt"
           d="m 107.8178,30.816322 h 6.04724 v 6.299213 h -6.04724 z"
           fill-rule="nonzero"
           id="path4343" />
        <path
           fill="#ffffff"
           d="m 44.46982,41.871883 h 6.047241 v 6.299213 H 44.46982 Z"
           fill-rule="nonzero"
           id="path4345" />
        <path
           stroke="#000000"
           stroke-width="2"
           stroke-linejoin="round"
           stroke-linecap="butt"
           d="m 44.46982,41.871883 h 6.047241 v 6.299213 H 44.46982 Z"
           fill-rule="nonzero"
           id="path4347" />
        <path
           fill="#ffffff"
           d="m 53.519527,41.871883 h 6.047241 v 6.299213 h -6.047241 z"
           fill-rule="nonzero"
           id="path4349" />
        <path
           stroke="#000000"
           stroke-width="2"
           stroke-linejoin="round"
           stroke-linecap="butt"
           d="m 53.519527,41.871883 h 6.047241 v 6.299213 h -6.047241 z"
           fill-rule="nonzero"
           id="path4351" />
        <path
           fill="#ffffff"
           d="m 71.61895,41.871883 h 6.047249 v 6.299213 H 71.61895 Z"
           fill-rule="nonzero"
           id="path4353" />
        <path
           stroke="#000000"
           stroke-width="2"
           stroke-linejoin="round"
           stroke-linecap="butt"
           d="m 71.61895,41.871883 h 6.047249 v 6.299213 H 71.61895 Z"
           fill-rule="nonzero"
           id="path4355" />
        <path
           fill="#ffffff"
           d="m 89.71837,41.871883 h 6.047249 v 6.299213 H 89.71837 Z"
           fill-rule="nonzero"
           id="path4357" />
        <path
           stroke="#000000"
           stroke-width="2"
           stroke-linejoin="round"
           stroke-linecap="butt"
           d="m 89.71837,41.871883 h 6.047249 v 6.299213 H 89.71837 Z"
           fill-rule="nonzero"
           id="path4359" />
        <path
           fill="#ffffff"
           d="m 62.56924,41.871883 h 6.047245 v 6.299213 H 62.56924 Z"
           fill-rule="nonzero"
           id="path4361" />
        <path
           stroke="#000000"
           stroke-width="2"
           stroke-linejoin="round"
           stroke-linecap="butt"
           d="m 62.56924,41.871883 h 6.047245 v 6.299213 H 62.56924 Z"
           fill-rule="nonzero"
           id="path4363" />
        <path
           fill="#ffffff"
           d="m 80.66866,41.871883 h 6.047241 v 6.299213 H 80.66866 Z"
           fill-rule="nonzero"
           id="path4365" />
        <path
           stroke="#000000"
           stroke-width="2"
           stroke-linejoin="round"
           stroke-linecap="butt"
           d="m 80.66866,41.871883 h 6.047241 v 6.299213 H 80.66866 Z"
           fill-rule="nonzero"
           id="path4367" />
        <path
           fill="#ffffff"
           d="m 98.76809,41.871883 h 6.04724 v 6.299213 h -6.04724 z"
           fill-rule="nonzero"
           id="path4369" />
        <path
           stroke="#000000"
           stroke-width="2"
           stroke-linejoin="round"
           stroke-linecap="butt"
           d="m 98.76809,41.871883 h 6.04724 v 6.299213 h -6.04724 z"
           fill-rule="nonzero"
           id="path4371" />
        <path
           fill="#ffffff"
           d="m 107.8178,41.871883 h 6.04724 v 6.299213 h -6.04724 z"
           fill-rule="nonzero"
           id="path4373" />
        <path
           stroke="#000000"
           stroke-width="2"
           stroke-linejoin="round"
           stroke-linecap="butt"
           d="m 107.8178,41.871883 h 6.04724 v 6.299213 h -6.04724 z"
           fill-rule="nonzero"
           id="path4375" />
        <path
           fill="#ffffff"
           d="m 44.46982,52.92745 h 6.047241 v 6.29921 H 44.46982 Z"
           fill-rule="nonzero"
           id="path4377" />
        <path
           stroke="#000000"
           stroke-width="2"
           stroke-linejoin="round"
           stroke-linecap="butt"
           d="m 44.46982,52.92745 h 6.047241 v 6.29921 H 44.46982 Z"
           fill-rule="nonzero"
           id="path4379" />
        <path
           fill="#ffffff"
           d="m 53.519527,52.92745 h 6.047241 v 6.29921 h -6.047241 z"
           fill-rule="nonzero"
           id="path4381" />
        <path
           stroke="#000000"
           stroke-width="2"
           stroke-linejoin="round"
           stroke-linecap="butt"
           d="m 53.519527,52.92745 h 6.047241 v 6.29921 h -6.047241 z"
           fill-rule="nonzero"
           id="path4383" />
        <path
           fill="#ffffff"
           d="m 71.61895,52.92745 h 6.047249 v 6.29921 H 71.61895 Z"
           fill-rule="nonzero"
           id="path4385" />
        <path
           stroke="#000000"
           stroke-width="2"
           stroke-linejoin="round"
           stroke-linecap="butt"
           d="m 71.61895,52.92745 h 6.047249 v 6.29921 H 71.61895 Z"
           fill-rule="nonzero"
           id="path4387" />
        <path
           fill="#ffffff"
           d="m 89.71837,52.92745 h 6.047249 v 6.29921 H 89.71837 Z"
           fill-rule="nonzero"
           id="path4389" />
        <path
           stroke="#000000"
           stroke-width="2"
           stroke-linejoin="round"
           stroke-linecap="butt"
           d="m 89.71837,52.92745 h 6.047249 v 6.29921 H 89.71837 Z"
           fill-rule="nonzero"
           id="path4391" />
        <path
           fill="#ffffff"
           d="m 62.56924,52.92745 h 6.047245 v 6.29921 H 62.56924 Z"
           fill-rule="nonzero"
           id="path4393" />
        <path
           stroke="#000000"
           stroke-width="2"
           stroke-linejoin="round"
           stroke-linecap="butt"
           d="m 62.56924,52.92745 h 6.047245 v 6.29921 H 62.56924 Z"
           fill-rule="nonzero"
           id="path4395" />
        <path
           fill="#ffffff"
           d="m 80.66866,52.92745 h 6.047241 v 6.29921 H 80.66866 Z"
           fill-rule="nonzero"
           id="path4397" />
        <path
           stroke="#000000"
           stroke-width="2"
           stroke-linejoin="round"
           stroke-linecap="butt"
           d="m 80.66866,52.92745 h 6.047241 v 6.29921 H 80.66866 Z"
           fill-rule="nonzero"
           id="path4399" />
        <path
           fill="#ffffff"
           d="m 98.76809,52.92745 h 6.04724 v 6.29921 h -6.04724 z"
           fill-rule="nonzero"
           id="path4401" />
        <path
           stroke="#000000"
           stroke-width="2"
           stroke-linejoin="round"
           stroke-linecap="butt"
           d="m 98.76809,52.92745 h 6.04724 v 6.29921 h -6.04724 z"
           fill-rule="nonzero"
           id="path4403" />
        <path
           fill="#ffffff"
           d="m 107.8178,52.92745 h 6.04724 v 6.29921 h -6.04724 z"
           fill-rule="nonzero"
           id="path4405" />
        <path
           stroke="#000000"
           stroke-width="2"
           stroke-linejoin="round"
           stroke-linecap="butt"
           d="m 107.8178,52.92745 h 6.04724 v 6.29921 h -6.04724 z"
           fill-rule="nonzero"
           id="path4407" />
        <path
           fill="#000000"
           fill-opacity="0"
           d="M 123.02362,28.677166 V 59.448818"
           fill-rule="nonzero"
           id="path4409" />
        <path
           stroke="#000000"
           stroke-width="2"
           stroke-linejoin="round"
           stroke-linecap="butt"
           d="M 123.02362,28.677166 V 59.448818"
           fill-rule="nonzero"
           id="path4411" />
        <path
           fill="#000000"
           fill-opacity="0"
           d="m 147.13124,44.472443 h 19.937"
           fill-rule="nonzero"
           id="path4413" />
        <path
           stroke="#000000"
           stroke-width="2"
           stroke-linejoin="round"
           stroke-linecap="butt"
           d="m 147.13124,44.472443 h 19.937"
           fill-rule="nonzero"
           id="path4415" />
      </g>
    </g>
  </g>
</svg>
