<?xml version="1.0" encoding="UTF-8" standalone="no"?>
<svg
   xmlns:dc="http://purl.org/dc/elements/1.1/"
   xmlns:cc="http://creativecommons.org/ns#"
   xmlns:rdf="http://www.w3.org/1999/02/22-rdf-syntax-ns#"
   xmlns:svg="http://www.w3.org/2000/svg"
   xmlns="http://www.w3.org/2000/svg"
   xmlns:sodipodi="http://sodipodi.sourceforge.net/DTD/sodipodi-0.dtd"
   xmlns:inkscape="http://www.inkscape.org/namespaces/inkscape"
   sodipodi:docname="Parallel.svg"
   inkscape:version="1.0 (4035a4fb49, 2020-05-01)"
   id="svg3190"
   version="1.1"
   viewBox="0 0 100.46462 45.789604"
   height="45.789604mm"
   width="100.46462mm">
  <defs
     id="defs3184" />
  <sodipodi:namedview
     fit-margin-bottom="0"
     fit-margin-right="0"
     fit-margin-left="0"
     fit-margin-top="0"
     inkscape:snap-global="false"
     inkscape:window-maximized="1"
     inkscape:window-y="-8"
     inkscape:window-x="-8"
     inkscape:window-height="1017"
     inkscape:window-width="1920"
     showgrid="false"
     inkscape:document-rotation="0"
     inkscape:current-layer="layer1"
     inkscape:document-units="mm"
     inkscape:cy="209.75785"
     inkscape:cx="213.46506"
     inkscape:zoom="1.1484084"
     inkscape:pageshadow="2"
     inkscape:pageopacity="0.0"
     borderopacity="1.0"
     bordercolor="#666666"
     pagecolor="#ffffff"
     id="base" />
  <metadata
     id="metadata3187">
    <rdf:RDF>
      <cc:Work
         rdf:about="">
        <dc:format>image/svg+xml</dc:format>
        <dc:type
           rdf:resource="http://purl.org/dc/dcmitype/StillImage" />
        <dc:title></dc:title>
      </cc:Work>
    </rdf:RDF>
  </metadata>
  <g
     transform="translate(-51.261223,-40.262868)"
     id="layer1"
     inkscape:groupmode="layer"
     inkscape:label="Layer 1">
    <g
       transform="matrix(0.26458333,0,0,0.26458333,56.903222,41.848537)"
       id="g4294"
       style="fill:none;stroke:none;stroke-linecap:square;stroke-miterlimit:10">
      <g
         clip-path="url(#p.0)"
         id="g4206">
        <path
           fill="#000000"
           fill-opacity="0"
           d="M 0,0 H 322.5223 V 100 H 0 Z"
           fill-rule="nonzero"
           id="path4052" />
        <path
           fill="#ffffff"
           d="m 39.843834,36.170605 v 0 c 0,-2.948418 2.390163,-5.338583 5.338581,-5.338583 v 0 c 1.415878,0 2.773769,0.562456 3.774948,1.563635 1.001179,1.001179 1.563633,2.359066 1.563633,3.774948 v 0 c 0,2.948418 -2.390163,5.338581 -5.338581,5.338581 v 0 c -2.948418,0 -5.338581,-2.390163 -5.338581,-5.338581 z"
           fill-rule="nonzero"
           id="path4054" />
        <path
           stroke="#000000"
           stroke-width="2"
           stroke-linejoin="round"
           stroke-linecap="butt"
           d="m 39.843834,36.170605 v 0 c 0,-2.948418 2.390163,-5.338583 5.338581,-5.338583 v 0 c 1.415878,0 2.773769,0.562456 3.774948,1.563635 1.001179,1.001179 1.563633,2.359066 1.563633,3.774948 v 0 c 0,2.948418 -2.390163,5.338581 -5.338581,5.338581 v 0 c -2.948418,0 -5.338581,-2.390163 -5.338581,-5.338581 z"
           fill-rule="nonzero"
           id="path4056" />
        <path
           fill="#ffffff"
           d="m 59.466316,36.170605 v 0 c 0,-2.948418 2.390163,-5.338583 5.338585,-5.338583 v 0 c 1.415878,0 2.773766,0.562456 3.774948,1.563635 1.001175,1.001179 1.563629,2.359066 1.563629,3.774948 v 0 c 0,2.948418 -2.390159,5.338581 -5.338577,5.338581 v 0 c -2.948422,0 -5.338585,-2.390163 -5.338585,-5.338581 z"
           fill-rule="nonzero"
           id="path4058" />
        <path
           stroke="#000000"
           stroke-width="2"
           stroke-linejoin="round"
           stroke-linecap="butt"
           d="m 59.466316,36.170605 v 0 c 0,-2.948418 2.390163,-5.338583 5.338585,-5.338583 v 0 c 1.415878,0 2.773766,0.562456 3.774948,1.563635 1.001175,1.001179 1.563629,2.359066 1.563629,3.774948 v 0 c 0,2.948418 -2.390159,5.338581 -5.338577,5.338581 v 0 c -2.948422,0 -5.338585,-2.390163 -5.338585,-5.338581 z"
           fill-rule="nonzero"
           id="path4060" />
        <path
           fill="#ffffff"
           d="m 79.088806,36.170605 v 0 c 0,-2.948418 2.39016,-5.338583 5.338577,-5.338583 v 0 c 1.415886,0 2.773773,0.562456 3.774948,1.563635 1.001183,1.001179 1.563637,2.359066 1.563637,3.774948 v 0 c 0,2.948418 -2.390167,5.338581 -5.338585,5.338581 v 0 c -2.948417,0 -5.338577,-2.390163 -5.338577,-5.338581 z"
           fill-rule="nonzero"
           id="path4062" />
        <path
           stroke="#000000"
           stroke-width="2"
           stroke-linejoin="round"
           stroke-linecap="butt"
           d="m 79.088806,36.170605 v 0 c 0,-2.948418 2.39016,-5.338583 5.338577,-5.338583 v 0 c 1.415886,0 2.773773,0.562456 3.774948,1.563635 1.001183,1.001179 1.563637,2.359066 1.563637,3.774948 v 0 c 0,2.948418 -2.390167,5.338581 -5.338585,5.338581 v 0 c -2.948417,0 -5.338577,-2.390163 -5.338577,-5.338581 z"
           fill-rule="nonzero"
           id="path4064" />
        <path
           fill="#ffffff"
           d="m 98.71129,36.170605 v 0 c 0,-2.948418 2.39016,-5.338583 5.33858,-5.338583 v 0 c 1.41588,0 2.77377,0.562456 3.77495,1.563635 1.00118,1.001179 1.56363,2.359066 1.56363,3.774948 v 0 c 0,2.948418 -2.39016,5.338581 -5.33858,5.338581 v 0 c -2.94842,0 -5.33858,-2.390163 -5.33858,-5.338581 z"
           fill-rule="nonzero"
           id="path4066" />
        <path
           stroke="#000000"
           stroke-width="2"
           stroke-linejoin="round"
           stroke-linecap="butt"
           d="m 98.71129,36.170605 v 0 c 0,-2.948418 2.39016,-5.338583 5.33858,-5.338583 v 0 c 1.41588,0 2.77377,0.562456 3.77495,1.563635 1.00118,1.001179 1.56363,2.359066 1.56363,3.774948 v 0 c 0,2.948418 -2.39016,5.338581 -5.33858,5.338581 v 0 c -2.94842,0 -5.33858,-2.390163 -5.33858,-5.338581 z"
           fill-rule="nonzero"
           id="path4068" />
        <path
           fill="#ffffff"
           d="m 118.33377,36.170605 v 0 c 0,-2.948418 2.39017,-5.338583 5.33858,-5.338583 v 0 c 1.41588,0 2.77378,0.562456 3.77495,1.563635 1.00119,1.001179 1.56364,2.359066 1.56364,3.774948 v 0 c 0,2.948418 -2.39017,5.338581 -5.33859,5.338581 v 0 c -2.94841,0 -5.33858,-2.390163 -5.33858,-5.338581 z"
           fill-rule="nonzero"
           id="path4070" />
        <path
           stroke="#000000"
           stroke-width="2"
           stroke-linejoin="round"
           stroke-linecap="butt"
           d="m 118.33377,36.170605 v 0 c 0,-2.948418 2.39017,-5.338583 5.33858,-5.338583 v 0 c 1.41588,0 2.77378,0.562456 3.77495,1.563635 1.00119,1.001179 1.56364,2.359066 1.56364,3.774948 v 0 c 0,2.948418 -2.39017,5.338581 -5.33859,5.338581 v 0 c -2.94841,0 -5.33858,-2.390163 -5.33858,-5.338581 z"
           fill-rule="nonzero"
           id="path4072" />
        <path
           fill="#ffffff"
           d="m 137.95625,36.170605 v 0 c 0,-2.948418 2.39017,-5.338583 5.33858,-5.338583 v 0 c 1.41588,0 2.77377,0.562456 3.77495,1.563635 1.00119,1.001179 1.56364,2.359066 1.56364,3.774948 v 0 c 0,2.948418 -2.39017,5.338581 -5.33859,5.338581 v 0 c -2.94841,0 -5.33858,-2.390163 -5.33858,-5.338581 z"
           fill-rule="nonzero"
           id="path4074" />
        <path
           stroke="#000000"
           stroke-width="2"
           stroke-linejoin="round"
           stroke-linecap="butt"
           d="m 137.95625,36.170605 v 0 c 0,-2.948418 2.39017,-5.338583 5.33858,-5.338583 v 0 c 1.41588,0 2.77377,0.562456 3.77495,1.563635 1.00119,1.001179 1.56364,2.359066 1.56364,3.774948 v 0 c 0,2.948418 -2.39017,5.338581 -5.33859,5.338581 v 0 c -2.94841,0 -5.33858,-2.390163 -5.33858,-5.338581 z"
           fill-rule="nonzero"
           id="path4076" />
        <path
           fill="#ffffff"
           d="m 157.57874,36.170605 v 0 c 0,-2.948418 2.39017,-5.338583 5.33859,-5.338583 v 0 c 1.41588,0 2.77376,0.562456 3.77495,1.563635 1.00118,1.001179 1.56363,2.359066 1.56363,3.774948 v 0 c 0,2.948418 -2.39017,5.338581 -5.33858,5.338581 v 0 c -2.94842,0 -5.33859,-2.390163 -5.33859,-5.338581 z"
           fill-rule="nonzero"
           id="path4078" />
        <path
           stroke="#000000"
           stroke-width="2"
           stroke-linejoin="round"
           stroke-linecap="butt"
           d="m 157.57874,36.170605 v 0 c 0,-2.948418 2.39017,-5.338583 5.33859,-5.338583 v 0 c 1.41588,0 2.77376,0.562456 3.77495,1.563635 1.00118,1.001179 1.56363,2.359066 1.56363,3.774948 v 0 c 0,2.948418 -2.39017,5.338581 -5.33858,5.338581 v 0 c -2.94842,0 -5.33859,-2.390163 -5.33859,-5.338581 z"
           fill-rule="nonzero"
           id="path4080" />
        <path
           fill="#ffffff"
           d="m 177.20122,36.170605 v 0 c 0,-2.948418 2.39017,-5.338583 5.33858,-5.338583 v 0 c 1.41589,0 2.77377,0.562456 3.77495,1.563635 1.00119,1.001179 1.56364,2.359066 1.56364,3.774948 v 0 c 0,2.948418 -2.39017,5.338581 -5.33859,5.338581 v 0 c -2.94841,0 -5.33858,-2.390163 -5.33858,-5.338581 z"
           fill-rule="nonzero"
           id="path4082" />
        <path
           stroke="#000000"
           stroke-width="2"
           stroke-linejoin="round"
           stroke-linecap="butt"
           d="m 177.20122,36.170605 v 0 c 0,-2.948418 2.39017,-5.338583 5.33858,-5.338583 v 0 c 1.41589,0 2.77377,0.562456 3.77495,1.563635 1.00119,1.001179 1.56364,2.359066 1.56364,3.774948 v 0 c 0,2.948418 -2.39017,5.338581 -5.33859,5.338581 v 0 c -2.94841,0 -5.33858,-2.390163 -5.33858,-5.338581 z"
           fill-rule="nonzero"
           id="path4084" />
        <path
           fill="#ffffff"
           d="m 196.82372,36.170605 v 0 c 0,-2.948418 2.39017,-5.338583 5.33858,-5.338583 v 0 c 1.41589,0 2.77377,0.562456 3.77495,1.563635 1.00119,1.001179 1.56364,2.359066 1.56364,3.774948 v 0 c 0,2.948418 -2.39017,5.338581 -5.33859,5.338581 v 0 c -2.94841,0 -5.33858,-2.390163 -5.33858,-5.338581 z"
           fill-rule="nonzero"
           id="path4086" />
        <path
           stroke="#000000"
           stroke-width="2"
           stroke-linejoin="round"
           stroke-linecap="butt"
           d="m 196.82372,36.170605 v 0 c 0,-2.948418 2.39017,-5.338583 5.33858,-5.338583 v 0 c 1.41589,0 2.77377,0.562456 3.77495,1.563635 1.00119,1.001179 1.56364,2.359066 1.56364,3.774948 v 0 c 0,2.948418 -2.39017,5.338581 -5.33859,5.338581 v 0 c -2.94841,0 -5.33858,-2.390163 -5.33858,-5.338581 z"
           fill-rule="nonzero"
           id="path4088" />
        <path
           fill="#ffffff"
           d="m 216.4462,36.170605 v 0 c 0,-2.948418 2.39017,-5.338583 5.33858,-5.338583 v 0 c 1.41588,0 2.77377,0.562456 3.77495,1.563635 1.00117,1.001179 1.56362,2.359066 1.56362,3.774948 v 0 c 0,2.948418 -2.39015,5.338581 -5.33857,5.338581 v 0 c -2.94841,0 -5.33858,-2.390163 -5.33858,-5.338581 z"
           fill-rule="nonzero"
           id="path4090" />
        <path
           stroke="#000000"
           stroke-width="2"
           stroke-linejoin="round"
           stroke-linecap="butt"
           d="m 216.4462,36.170605 v 0 c 0,-2.948418 2.39017,-5.338583 5.33858,-5.338583 v 0 c 1.41588,0 2.77377,0.562456 3.77495,1.563635 1.00117,1.001179 1.56362,2.359066 1.56362,3.774948 v 0 c 0,2.948418 -2.39015,5.338581 -5.33857,5.338581 v 0 c -2.94841,0 -5.33858,-2.390163 -5.33858,-5.338581 z"
           fill-rule="nonzero"
           id="path4092" />
        <path
           fill="#ffffff"
           d="m 236.06866,36.170605 v 0 c 0,-2.948418 2.39017,-5.338583 5.33859,-5.338583 v 0 c 1.41588,0 2.77378,0.562456 3.77495,1.563635 1.00118,1.001179 1.56363,2.359066 1.56363,3.774948 v 0 c 0,2.948418 -2.39017,5.338581 -5.33858,5.338581 v 0 c -2.94842,0 -5.33859,-2.390163 -5.33859,-5.338581 z"
           fill-rule="nonzero"
           id="path4094" />
        <path
           stroke="#000000"
           stroke-width="2"
           stroke-linejoin="round"
           stroke-linecap="butt"
           d="m 236.06866,36.170605 v 0 c 0,-2.948418 2.39017,-5.338583 5.33859,-5.338583 v 0 c 1.41588,0 2.77378,0.562456 3.77495,1.563635 1.00118,1.001179 1.56363,2.359066 1.56363,3.774948 v 0 c 0,2.948418 -2.39017,5.338581 -5.33858,5.338581 v 0 c -2.94842,0 -5.33859,-2.390163 -5.33859,-5.338581 z"
           fill-rule="nonzero"
           id="path4096" />
        <path
           fill="#ffffff"
           d="m 255.69118,36.170605 v 0 c 0,-2.948418 2.39015,-5.338583 5.33858,-5.338583 v 0 c 1.41589,0 2.77377,0.562456 3.77493,1.563635 1.00119,1.001179 1.56366,2.359066 1.56366,3.774948 v 0 c 0,2.948418 -2.39017,5.338581 -5.33859,5.338581 v 0 c -2.94843,0 -5.33858,-2.390163 -5.33858,-5.338581 z"
           fill-rule="nonzero"
           id="path4098" />
        <path
           stroke="#000000"
           stroke-width="2"
           stroke-linejoin="round"
           stroke-linecap="butt"
           d="m 255.69118,36.170605 v 0 c 0,-2.948418 2.39015,-5.338583 5.33858,-5.338583 v 0 c 1.41589,0 2.77377,0.562456 3.77493,1.563635 1.00119,1.001179 1.56366,2.359066 1.56366,3.774948 v 0 c 0,2.948418 -2.39017,5.338581 -5.33859,5.338581 v 0 c -2.94843,0 -5.33858,-2.390163 -5.33858,-5.338581 z"
           fill-rule="nonzero"
           id="path4100" />
        <path
           fill="#ffffff"
           d="m 275.31366,36.170605 v 0 c 0,-2.948418 2.39017,-5.338583 5.33856,-5.338583 v 0 c 1.4159,0 2.77378,0.562456 3.77497,1.563635 1.00116,1.001179 1.56362,2.359066 1.56362,3.774948 v 0 c 0,2.948418 -2.39016,5.338581 -5.33859,5.338581 v 0 c -2.94839,0 -5.33856,-2.390163 -5.33856,-5.338581 z"
           fill-rule="nonzero"
           id="path4102" />
        <path
           stroke="#000000"
           stroke-width="2"
           stroke-linejoin="round"
           stroke-linecap="butt"
           d="m 275.31366,36.170605 v 0 c 0,-2.948418 2.39017,-5.338583 5.33856,-5.338583 v 0 c 1.4159,0 2.77378,0.562456 3.77497,1.563635 1.00116,1.001179 1.56362,2.359066 1.56362,3.774948 v 0 c 0,2.948418 -2.39016,5.338581 -5.33859,5.338581 v 0 c -2.94839,0 -5.33856,-2.390163 -5.33856,-5.338581 z"
           fill-rule="nonzero"
           id="path4104" />
        <path
           fill="#ffffff"
           d="m 49.181103,58.740158 v 0 c 0,-2.948418 2.390163,-5.338585 5.338581,-5.338585 v 0 c 1.415882,0 2.773769,0.562458 3.774948,1.563637 1.001179,1.001178 1.563637,2.359066 1.563637,3.774948 v 0 c 0,2.948418 -2.390167,5.338585 -5.338585,5.338585 v 0 c -2.948418,0 -5.338581,-2.390167 -5.338581,-5.338585 z"
           fill-rule="nonzero"
           id="path4106" />
        <path
           stroke="#000000"
           stroke-width="2"
           stroke-linejoin="round"
           stroke-linecap="butt"
           d="m 49.181103,58.740158 v 0 c 0,-2.948418 2.390163,-5.338585 5.338581,-5.338585 v 0 c 1.415882,0 2.773769,0.562458 3.774948,1.563637 1.001179,1.001178 1.563637,2.359066 1.563637,3.774948 v 0 c 0,2.948418 -2.390167,5.338585 -5.338585,5.338585 v 0 c -2.948418,0 -5.338581,-2.390167 -5.338581,-5.338585 z"
           fill-rule="nonzero"
           id="path4108" />
        <path
           fill="#ffffff"
           d="m 68.80359,58.740158 v 0 c 0,-2.948418 2.39016,-5.338585 5.338577,-5.338585 v 0 c 1.415879,0 2.773773,0.562458 3.774948,1.563637 1.001183,1.001178 1.563637,2.359066 1.563637,3.774948 v 0 c 0,2.948418 -2.390167,5.338585 -5.338585,5.338585 v 0 c -2.948417,0 -5.338577,-2.390167 -5.338577,-5.338585 z"
           fill-rule="nonzero"
           id="path4110" />
        <path
           stroke="#000000"
           stroke-width="2"
           stroke-linejoin="round"
           stroke-linecap="butt"
           d="m 68.80359,58.740158 v 0 c 0,-2.948418 2.39016,-5.338585 5.338577,-5.338585 v 0 c 1.415879,0 2.773773,0.562458 3.774948,1.563637 1.001183,1.001178 1.563637,2.359066 1.563637,3.774948 v 0 c 0,2.948418 -2.390167,5.338585 -5.338585,5.338585 v 0 c -2.948417,0 -5.338577,-2.390167 -5.338577,-5.338585 z"
           fill-rule="nonzero"
           id="path4112" />
        <path
           fill="#ffffff"
           d="m 88.42607,58.740158 v 0 c 0,-2.948418 2.39016,-5.338585 5.338577,-5.338585 v 0 c 1.415886,0 2.773773,0.562458 3.774948,1.563637 1.001183,1.001178 1.563637,2.359066 1.563637,3.774948 v 0 c 0,2.948418 -2.390167,5.338585 -5.338585,5.338585 v 0 c -2.948417,0 -5.338577,-2.390167 -5.338577,-5.338585 z"
           fill-rule="nonzero"
           id="path4114" />
        <path
           stroke="#000000"
           stroke-width="2"
           stroke-linejoin="round"
           stroke-linecap="butt"
           d="m 88.42607,58.740158 v 0 c 0,-2.948418 2.39016,-5.338585 5.338577,-5.338585 v 0 c 1.415886,0 2.773773,0.562458 3.774948,1.563637 1.001183,1.001178 1.563637,2.359066 1.563637,3.774948 v 0 c 0,2.948418 -2.390167,5.338585 -5.338585,5.338585 v 0 c -2.948417,0 -5.338577,-2.390167 -5.338577,-5.338585 z"
           fill-rule="nonzero"
           id="path4116" />
        <path
           fill="#ffffff"
           d="m 108.04855,58.740158 v 0 c 0,-2.948418 2.39017,-5.338585 5.33859,-5.338585 v 0 c 1.41587,0 2.77377,0.562458 3.77494,1.563637 1.00119,1.001178 1.56364,2.359066 1.56364,3.774948 v 0 c 0,2.948418 -2.39017,5.338585 -5.33859,5.338585 v 0 c -2.94841,0 -5.33858,-2.390167 -5.33858,-5.338585 z"
           fill-rule="nonzero"
           id="path4118" />
        <path
           stroke="#000000"
           stroke-width="2"
           stroke-linejoin="round"
           stroke-linecap="butt"
           d="m 108.04855,58.740158 v 0 c 0,-2.948418 2.39017,-5.338585 5.33859,-5.338585 v 0 c 1.41587,0 2.77377,0.562458 3.77494,1.563637 1.00119,1.001178 1.56364,2.359066 1.56364,3.774948 v 0 c 0,2.948418 -2.39017,5.338585 -5.33859,5.338585 v 0 c -2.94841,0 -5.33858,-2.390167 -5.33858,-5.338585 z"
           fill-rule="nonzero"
           id="path4120" />
        <path
           fill="#ffffff"
           d="m 127.67104,58.740158 v 0 c 0,-2.948418 2.39016,-5.338585 5.33858,-5.338585 v 0 c 1.41588,0 2.77378,0.562458 3.77495,1.563637 1.00118,1.001178 1.56363,2.359066 1.56363,3.774948 v 0 c 0,2.948418 -2.39016,5.338585 -5.33858,5.338585 v 0 c -2.94842,0 -5.33858,-2.390167 -5.33858,-5.338585 z"
           fill-rule="nonzero"
           id="path4122" />
        <path
           stroke="#000000"
           stroke-width="2"
           stroke-linejoin="round"
           stroke-linecap="butt"
           d="m 127.67104,58.740158 v 0 c 0,-2.948418 2.39016,-5.338585 5.33858,-5.338585 v 0 c 1.41588,0 2.77378,0.562458 3.77495,1.563637 1.00118,1.001178 1.56363,2.359066 1.56363,3.774948 v 0 c 0,2.948418 -2.39016,5.338585 -5.33858,5.338585 v 0 c -2.94842,0 -5.33858,-2.390167 -5.33858,-5.338585 z"
           fill-rule="nonzero"
           id="path4124" />
        <path
           fill="#ffffff"
           d="m 147.29352,58.740158 v 0 c 0,-2.948418 2.39017,-5.338585 5.33859,-5.338585 v 0 c 1.41588,0 2.77376,0.562458 3.77495,1.563637 1.00118,1.001178 1.56363,2.359066 1.56363,3.774948 v 0 c 0,2.948418 -2.39017,5.338585 -5.33858,5.338585 v 0 c -2.94842,0 -5.33859,-2.390167 -5.33859,-5.338585 z"
           fill-rule="nonzero"
           id="path4126" />
        <path
           stroke="#000000"
           stroke-width="2"
           stroke-linejoin="round"
           stroke-linecap="butt"
           d="m 147.29352,58.740158 v 0 c 0,-2.948418 2.39017,-5.338585 5.33859,-5.338585 v 0 c 1.41588,0 2.77376,0.562458 3.77495,1.563637 1.00118,1.001178 1.56363,2.359066 1.56363,3.774948 v 0 c 0,2.948418 -2.39017,5.338585 -5.33858,5.338585 v 0 c -2.94842,0 -5.33859,-2.390167 -5.33859,-5.338585 z"
           fill-rule="nonzero"
           id="path4128" />
        <path
           fill="#ffffff"
           d="m 166.91602,58.740158 v 0 c 0,-2.948418 2.39017,-5.338585 5.33858,-5.338585 v 0 c 1.41588,0 2.77377,0.562458 3.77495,1.563637 1.00117,1.001178 1.56362,2.359066 1.56362,3.774948 v 0 c 0,2.948418 -2.39015,5.338585 -5.33857,5.338585 v 0 c -2.94841,0 -5.33858,-2.390167 -5.33858,-5.338585 z"
           fill-rule="nonzero"
           id="path4130" />
        <path
           stroke="#000000"
           stroke-width="2"
           stroke-linejoin="round"
           stroke-linecap="butt"
           d="m 166.91602,58.740158 v 0 c 0,-2.948418 2.39017,-5.338585 5.33858,-5.338585 v 0 c 1.41588,0 2.77377,0.562458 3.77495,1.563637 1.00117,1.001178 1.56362,2.359066 1.56362,3.774948 v 0 c 0,2.948418 -2.39015,5.338585 -5.33857,5.338585 v 0 c -2.94841,0 -5.33858,-2.390167 -5.33858,-5.338585 z"
           fill-rule="nonzero"
           id="path4132" />
        <path
           fill="#ffffff"
           d="m 186.53848,58.740158 v 0 c 0,-2.948418 2.39017,-5.338585 5.33859,-5.338585 v 0 c 1.41588,0 2.77376,0.562458 3.77495,1.563637 1.00118,1.001178 1.56363,2.359066 1.56363,3.774948 v 0 c 0,2.948418 -2.39017,5.338585 -5.33858,5.338585 v 0 c -2.94842,0 -5.33859,-2.390167 -5.33859,-5.338585 z"
           fill-rule="nonzero"
           id="path4134" />
        <path
           stroke="#000000"
           stroke-width="2"
           stroke-linejoin="round"
           stroke-linecap="butt"
           d="m 186.53848,58.740158 v 0 c 0,-2.948418 2.39017,-5.338585 5.33859,-5.338585 v 0 c 1.41588,0 2.77376,0.562458 3.77495,1.563637 1.00118,1.001178 1.56363,2.359066 1.56363,3.774948 v 0 c 0,2.948418 -2.39017,5.338585 -5.33858,5.338585 v 0 c -2.94842,0 -5.33859,-2.390167 -5.33859,-5.338585 z"
           fill-rule="nonzero"
           id="path4136" />
        <path
           fill="#ffffff"
           d="m 206.16098,58.740158 v 0 c 0,-2.948418 2.39017,-5.338585 5.33859,-5.338585 v 0 c 1.41588,0 2.77378,0.562458 3.77495,1.563637 1.00118,1.001178 1.56363,2.359066 1.56363,3.774948 v 0 c 0,2.948418 -2.39017,5.338585 -5.33858,5.338585 v 0 c -2.94842,0 -5.33859,-2.390167 -5.33859,-5.338585 z"
           fill-rule="nonzero"
           id="path4138" />
        <path
           stroke="#000000"
           stroke-width="2"
           stroke-linejoin="round"
           stroke-linecap="butt"
           d="m 206.16098,58.740158 v 0 c 0,-2.948418 2.39017,-5.338585 5.33859,-5.338585 v 0 c 1.41588,0 2.77378,0.562458 3.77495,1.563637 1.00118,1.001178 1.56363,2.359066 1.56363,3.774948 v 0 c 0,2.948418 -2.39017,5.338585 -5.33858,5.338585 v 0 c -2.94842,0 -5.33859,-2.390167 -5.33859,-5.338585 z"
           fill-rule="nonzero"
           id="path4140" />
        <path
           fill="#ffffff"
           d="m 225.78346,58.740158 v 0 c 0,-2.948418 2.39017,-5.338585 5.33858,-5.338585 v 0 c 1.41589,0 2.77377,0.562458 3.77495,1.563637 1.00119,1.001178 1.56364,2.359066 1.56364,3.774948 v 0 c 0,2.948418 -2.39017,5.338585 -5.33859,5.338585 v 0 c -2.94841,0 -5.33858,-2.390167 -5.33858,-5.338585 z"
           fill-rule="nonzero"
           id="path4142" />
        <path
           stroke="#000000"
           stroke-width="2"
           stroke-linejoin="round"
           stroke-linecap="butt"
           d="m 225.78346,58.740158 v 0 c 0,-2.948418 2.39017,-5.338585 5.33858,-5.338585 v 0 c 1.41589,0 2.77377,0.562458 3.77495,1.563637 1.00119,1.001178 1.56364,2.359066 1.56364,3.774948 v 0 c 0,2.948418 -2.39017,5.338585 -5.33859,5.338585 v 0 c -2.94841,0 -5.33858,-2.390167 -5.33858,-5.338585 z"
           fill-rule="nonzero"
           id="path4144" />
        <path
           fill="#ffffff"
           d="m 245.40594,58.740158 v 0 c 0,-2.948418 2.39017,-5.338585 5.33858,-5.338585 v 0 c 1.41588,0 2.77377,0.562458 3.77495,1.563637 1.00117,1.001178 1.56362,2.359066 1.56362,3.774948 v 0 c 0,2.948418 -2.39015,5.338585 -5.33857,5.338585 v 0 c -2.94841,0 -5.33858,-2.390167 -5.33858,-5.338585 z"
           fill-rule="nonzero"
           id="path4146" />
        <path
           stroke="#000000"
           stroke-width="2"
           stroke-linejoin="round"
           stroke-linecap="butt"
           d="m 245.40594,58.740158 v 0 c 0,-2.948418 2.39017,-5.338585 5.33858,-5.338585 v 0 c 1.41588,0 2.77377,0.562458 3.77495,1.563637 1.00117,1.001178 1.56362,2.359066 1.56362,3.774948 v 0 c 0,2.948418 -2.39015,5.338585 -5.33857,5.338585 v 0 c -2.94841,0 -5.33858,-2.390167 -5.33858,-5.338585 z"
           fill-rule="nonzero"
           id="path4148" />
        <path
           fill="#ffffff"
           d="m 265.02844,58.740158 v 0 c 0,-2.948418 2.39017,-5.338585 5.33859,-5.338585 v 0 c 1.41587,0 2.77378,0.562458 3.77494,1.563637 1.00119,1.001178 1.56362,2.359066 1.56362,3.774948 v 0 c 0,2.948418 -2.39016,5.338585 -5.33856,5.338585 v 0 c -2.94842,0 -5.33859,-2.390167 -5.33859,-5.338585 z"
           fill-rule="nonzero"
           id="path4150" />
        <path
           stroke="#000000"
           stroke-width="2"
           stroke-linejoin="round"
           stroke-linecap="butt"
           d="m 265.02844,58.740158 v 0 c 0,-2.948418 2.39017,-5.338585 5.33859,-5.338585 v 0 c 1.41587,0 2.77378,0.562458 3.77494,1.563637 1.00119,1.001178 1.56362,2.359066 1.56362,3.774948 v 0 c 0,2.948418 -2.39016,5.338585 -5.33856,5.338585 v 0 c -2.94842,0 -5.33859,-2.390167 -5.33859,-5.338585 z"
           fill-rule="nonzero"
           id="path4152" />
        <path
           fill="#ffffff"
           d="m 7.195538,38.372704 v 0 c 0,-3.818157 3.095229,-6.913385 6.913386,-6.913385 v 0 c 1.833544,0 3.59199,0.728372 4.888503,2.024885 1.296511,1.296509 2.024883,3.054954 2.024883,4.8885 v 0 c 0,3.818157 -3.095228,6.913387 -6.913386,6.913387 v 0 c -3.818157,0 -6.913386,-3.09523 -6.913386,-6.913387 z"
           fill-rule="nonzero"
           id="path4154" />
        <path
           stroke="#000000"
           stroke-width="2"
           stroke-linejoin="round"
           stroke-linecap="butt"
           d="m 7.195538,38.372704 v 0 c 0,-3.818157 3.095229,-6.913385 6.913386,-6.913385 v 0 c 1.833544,0 3.59199,0.728372 4.888503,2.024885 1.296511,1.296509 2.024883,3.054954 2.024883,4.8885 v 0 c 0,3.818157 -3.095228,6.913387 -6.913386,6.913387 v 0 c -3.818157,0 -6.913386,-3.09523 -6.913386,-6.913387 z"
           fill-rule="nonzero"
           id="path4156" />
        <path
           fill="#ffffff"
           d="m 301.5,38.372704 v 0 c 0,-3.818157 3.09521,-6.913385 6.91339,-6.913385 v 0 c 1.83353,0 3.59198,0.728372 4.88849,2.024885 1.29651,1.296509 2.0249,3.054954 2.0249,4.8885 v 0 c 0,3.818157 -3.09524,6.913387 -6.91339,6.913387 v 0 c -3.81818,0 -6.91339,-3.09523 -6.91339,-6.913387 z"
           fill-rule="nonzero"
           id="path4158" />
        <path
           stroke="#000000"
           stroke-width="2"
           stroke-linejoin="round"
           stroke-linecap="butt"
           d="m 301.5,38.372704 v 0 c 0,-3.818157 3.09521,-6.913385 6.91339,-6.913385 v 0 c 1.83353,0 3.59198,0.728372 4.88849,2.024885 1.29651,1.296509 2.0249,3.054954 2.0249,4.8885 v 0 c 0,3.818157 -3.09524,6.913387 -6.91339,6.913387 v 0 c -3.81818,0 -6.91339,-3.09523 -6.91339,-6.913387 z"
           fill-rule="nonzero"
           id="path4160" />
        <path
           fill="#000000"
           fill-opacity="0"
           d="M 35.17323,18.939632 H 290.03936"
           fill-rule="nonzero"
           id="path4162" />
        <path
           stroke="#000000"
           stroke-width="2"
           stroke-linejoin="round"
           stroke-linecap="butt"
           d="M 35.17323,18.939632 H 290.03936"
           fill-rule="nonzero"
           id="path4164" />
        <path
           fill="#000000"
           fill-opacity="0"
           d="m 297.65222,26.515749 -7.811,29.102362"
           fill-rule="nonzero"
           id="path4166" />
        <path
           stroke="#000000"
           stroke-width="2"
           stroke-linejoin="round"
           stroke-linecap="butt"
           d="m 297.65222,26.515749 -7.811,29.102362"
           fill-rule="nonzero"
           id="path4168" />
        <path
           fill="#000000"
           fill-opacity="0"
           d="M 275.31497,72.514435 289.89764,55.128609"
           fill-rule="nonzero"
           id="path4170" />
        <path
           stroke="#000000"
           stroke-width="2"
           stroke-linejoin="round"
           stroke-linecap="butt"
           d="M 275.31497,72.514435 289.89764,55.128609"
           fill-rule="nonzero"
           id="path4172" />
        <path
           fill="#000000"
           fill-opacity="0"
           d="m 289.13123,18.895014 9.07086,8.787401"
           fill-rule="nonzero"
           id="path4174" />
        <path
           stroke="#000000"
           stroke-width="2"
           stroke-linejoin="round"
           stroke-linecap="butt"
           d="m 289.13123,18.895014 9.07086,8.787401"
           fill-rule="nonzero"
           id="path4176" />
        <path
           fill="#000000"
           fill-opacity="0"
           d="M 48.404198,72.73491 275.99475,72.514436"
           fill-rule="nonzero"
           id="path4178" />
        <path
           stroke="#000000"
           stroke-width="2"
           stroke-linejoin="round"
           stroke-linecap="butt"
           d="M 48.404198,72.73491 275.99475,72.514436"
           fill-rule="nonzero"
           id="path4180" />
        <path
           fill="#000000"
           fill-opacity="0"
           d="m 26.843832,26.515749 7.811026,29.102362"
           fill-rule="nonzero"
           id="path4182" />
        <path
           stroke="#000000"
           stroke-width="2"
           stroke-linejoin="round"
           stroke-linecap="butt"
           d="m 26.843832,26.515749 7.811026,29.102362"
           fill-rule="nonzero"
           id="path4184" />
        <path
           fill="#000000"
           fill-opacity="0"
           d="M 49.181103,72.514435 34.598423,55.128609"
           fill-rule="nonzero"
           id="path4186" />
        <path
           stroke="#000000"
           stroke-width="2"
           stroke-linejoin="round"
           stroke-linecap="butt"
           d="M 49.181103,72.514435 34.598423,55.128609"
           fill-rule="nonzero"
           id="path4188" />
        <path
           fill="#000000"
           fill-opacity="0"
           d="m 35.36483,18.895014 -9.070868,8.787401"
           fill-rule="nonzero"
           id="path4190" />
        <path
           stroke="#000000"
           stroke-width="2"
           stroke-linejoin="round"
           stroke-linecap="butt"
           d="m 35.36483,18.895014 -9.070868,8.787401"
           fill-rule="nonzero"
           id="path4192" />
        <path
           fill="#000000"
           fill-opacity="0"
           d="m 26.843832,26.560368 7.811026,29.102364"
           fill-rule="nonzero"
           id="path4194" />
        <path
           stroke="#000000"
           stroke-width="2"
           stroke-linejoin="round"
           stroke-linecap="butt"
           d="m 26.843832,26.560368 7.811026,29.102364"
           fill-rule="nonzero"
           id="path4196" />
        <path
           fill="#000000"
           fill-opacity="0"
           d="m 35.36483,18.939632 -9.070868,8.787401"
           fill-rule="nonzero"
           id="path4198" />
        <path
           stroke="#000000"
           stroke-width="2"
           stroke-linejoin="round"
           stroke-linecap="butt"
           d="m 35.36483,18.939632 -9.070868,8.787401"
           fill-rule="nonzero"
           id="path4200" />
        <path
           fill="#000000"
           fill-opacity="0"
           d="M 49.181103,72.55905 34.598423,55.173228"
           fill-rule="nonzero"
           id="path4202" />
        <path
           stroke="#000000"
           stroke-width="2"
           stroke-linejoin="round"
           stroke-linecap="butt"
           d="M 49.181103,72.55905 34.598423,55.173228"
           fill-rule="nonzero"
           id="path4204" />
      </g>
    </g>
  </g>
</svg>
