<?xml version="1.0" encoding="UTF-8" standalone="no"?>
<svg
   xmlns:dc="http://purl.org/dc/elements/1.1/"
   xmlns:cc="http://creativecommons.org/ns#"
   xmlns:rdf="http://www.w3.org/1999/02/22-rdf-syntax-ns#"
   xmlns:svg="http://www.w3.org/2000/svg"
   xmlns="http://www.w3.org/2000/svg"
   xmlns:sodipodi="http://sodipodi.sourceforge.net/DTD/sodipodi-0.dtd"
   xmlns:inkscape="http://www.inkscape.org/namespaces/inkscape"
   sodipodi:docname="PS2.svg"
   inkscape:version="1.0 (4035a4fb49, 2020-05-01)"
   id="svg3190"
   version="1.1"
   viewBox="0 0 100.46462 45.789604"
   height="45.789604mm"
   width="100.46462mm">
  <defs
     id="defs3184" />
  <sodipodi:namedview
     fit-margin-bottom="0"
     fit-margin-right="0"
     fit-margin-left="0"
     fit-margin-top="0"
     inkscape:snap-global="false"
     inkscape:window-maximized="1"
     inkscape:window-y="-8"
     inkscape:window-x="-8"
     inkscape:window-height="1017"
     inkscape:window-width="1920"
     showgrid="false"
     inkscape:document-rotation="0"
     inkscape:current-layer="layer1"
     inkscape:document-units="mm"
     inkscape:cy="209.75785"
     inkscape:cx="213.46506"
     inkscape:zoom="1.1484084"
     inkscape:pageshadow="2"
     inkscape:pageopacity="0.0"
     borderopacity="1.0"
     bordercolor="#666666"
     pagecolor="#ffffff"
     id="base" />
  <metadata
     id="metadata3187">
    <rdf:RDF>
      <cc:Work
         rdf:about="">
        <dc:format>image/svg+xml</dc:format>
        <dc:type
           rdf:resource="http://purl.org/dc/dcmitype/StillImage" />
        <dc:title></dc:title>
      </cc:Work>
    </rdf:RDF>
  </metadata>
  <g
     transform="translate(-51.261223,-40.262868)"
     id="layer1"
     inkscape:groupmode="layer"
     inkscape:label="Layer 1">
    <g
       transform="matrix(0.26458333,0,0,0.26458333,103.87937,41.320738)"
       id="g4047"
       style="fill:none;stroke:none;stroke-linecap:square;stroke-miterlimit:10">
      <g
         clip-path="url(#p.0)"
         id="g4011">
        <path
           fill="#000000"
           fill-opacity="0"
           d="M 0,0 H 111.56168 V 100 H 0 Z"
           fill-rule="nonzero"
           id="path3961" />
        <path
           fill="#ffffff"
           d="m 21.960232,50 v 0 c 0,-16.498962 14.54546,-29.874016 32.48819,-29.874016 v 0 c 17.94273,0 32.488194,13.375053 32.488194,29.874016 v 0 c 0,16.498962 -14.545464,29.874016 -32.488194,29.874016 v 0 C 36.505692,79.874016 21.960232,66.498963 21.960232,50 Z"
           fill-rule="nonzero"
           id="path3963" />
        <path
           stroke="#000000"
           stroke-width="2"
           stroke-linejoin="round"
           stroke-linecap="butt"
           d="m 21.960232,50 v 0 c 0,-16.498962 14.54546,-29.874016 32.48819,-29.874016 v 0 c 17.94273,0 32.488194,13.375053 32.488194,29.874016 v 0 c 0,16.498962 -14.545464,29.874016 -32.488194,29.874016 v 0 C 36.505692,79.874016 21.960232,66.498963 21.960232,50 Z"
           fill-rule="nonzero"
           id="path3965" />
        <path
           fill="#ffffff"
           d="m 28.322758,50 v 0 c 0,-13.263531 11.697002,-24.015749 26.125984,-24.015749 v 0 C 68.877724,25.984251 80.57473,36.736469 80.57473,50 v 0 c 0,13.263531 -11.697006,24.015747 -26.125988,24.015747 v 0 C 40.01976,74.015747 28.322758,63.263531 28.322758,50 Z"
           fill-rule="nonzero"
           id="path3967" />
        <path
           stroke="#000000"
           stroke-width="2"
           stroke-linejoin="round"
           stroke-linecap="butt"
           d="m 28.322758,50 v 0 c 0,-13.263531 11.697002,-24.015749 26.125984,-24.015749 v 0 C 68.877724,25.984251 80.57473,36.736469 80.57473,50 v 0 c 0,13.263531 -11.697006,24.015747 -26.125988,24.015747 v 0 C 40.01976,74.015747 28.322758,63.263531 28.322758,50 Z"
           fill-rule="nonzero"
           id="path3969" />
        <path
           fill="#000000"
           d="m 43.40945,39.64042 v 0 c 0,-1.513348 1.22681,-2.740158 2.740154,-2.740158 v 0 c 0.726738,0 1.423706,0.288696 1.937584,0.802574 0.513882,0.513882 0.802574,1.21085 0.802574,1.937584 v 0 c 0,1.513348 -1.22681,2.740158 -2.740158,2.740158 v 0 c -1.513343,0 -2.740154,-1.22681 -2.740154,-2.740158 z"
           fill-rule="nonzero"
           id="path3971" />
        <path
           stroke="#000000"
           stroke-width="2"
           stroke-linejoin="round"
           stroke-linecap="butt"
           d="m 43.40945,39.64042 v 0 c 0,-1.513348 1.22681,-2.740158 2.740154,-2.740158 v 0 c 0.726738,0 1.423706,0.288696 1.937584,0.802574 0.513882,0.513882 0.802574,1.21085 0.802574,1.937584 v 0 c 0,1.513348 -1.22681,2.740158 -2.740158,2.740158 v 0 c -1.513343,0 -2.740154,-1.22681 -2.740154,-2.740158 z"
           fill-rule="nonzero"
           id="path3973" />
        <path
           fill="#000000"
           d="m 37.929134,49.727036 v 0 c 0,-1.513348 1.22681,-2.740158 2.740158,-2.740158 v 0 c 0.726734,0 1.423702,0.288692 1.937584,0.802574 0.513878,0.513878 0.802574,1.210846 0.802574,1.937584 v 0 c 0,1.513348 -1.22681,2.740154 -2.740158,2.740154 v 0 c -1.513348,0 -2.740158,-1.226806 -2.740158,-2.740154 z"
           fill-rule="nonzero"
           id="path3975" />
        <path
           stroke="#000000"
           stroke-width="2"
           stroke-linejoin="round"
           stroke-linecap="butt"
           d="m 37.929134,49.727036 v 0 c 0,-1.513348 1.22681,-2.740158 2.740158,-2.740158 v 0 c 0.726734,0 1.423702,0.288692 1.937584,0.802574 0.513878,0.513878 0.802574,1.210846 0.802574,1.937584 v 0 c 0,1.513348 -1.22681,2.740154 -2.740158,2.740154 v 0 c -1.513348,0 -2.740158,-1.226806 -2.740158,-2.740154 z"
           fill-rule="nonzero"
           id="path3977" />
        <path
           fill="#000000"
           d="m 43.40945,59.031498 v 0 c 0,-1.513348 1.22681,-2.740158 2.740154,-2.740158 v 0 c 0.726738,0 1.423706,0.288692 1.937584,0.802574 0.513882,0.513878 0.802574,1.210846 0.802574,1.937584 v 0 c 0,1.513344 -1.22681,2.740154 -2.740158,2.740154 v 0 c -1.513343,0 -2.740154,-1.22681 -2.740154,-2.740154 z"
           fill-rule="nonzero"
           id="path3979" />
        <path
           stroke="#000000"
           stroke-width="2"
           stroke-linejoin="round"
           stroke-linecap="butt"
           d="m 43.40945,59.031498 v 0 c 0,-1.513348 1.22681,-2.740158 2.740154,-2.740158 v 0 c 0.726738,0 1.423706,0.288692 1.937584,0.802574 0.513882,0.513878 0.802574,1.210846 0.802574,1.937584 v 0 c 0,1.513344 -1.22681,2.740154 -2.740158,2.740154 v 0 c -1.513343,0 -2.740154,-1.22681 -2.740154,-2.740154 z"
           fill-rule="nonzero"
           id="path3981" />
        <path
           fill="#000000"
           d="m 59.95538,59.031498 v 0 c 0,-1.513348 1.22681,-2.740158 2.740158,-2.740158 v 0 c 0.726734,0 1.423702,0.288692 1.937588,0.802574 0.513878,0.513878 0.802566,1.210846 0.802566,1.937584 v 0 c 0,1.513344 -1.226806,2.740154 -2.740154,2.740154 v 0 c -1.513348,0 -2.740158,-1.22681 -2.740158,-2.740154 z"
           fill-rule="nonzero"
           id="path3983" />
        <path
           stroke="#000000"
           stroke-width="2"
           stroke-linejoin="round"
           stroke-linecap="butt"
           d="m 59.95538,59.031498 v 0 c 0,-1.513348 1.22681,-2.740158 2.740158,-2.740158 v 0 c 0.726734,0 1.423702,0.288692 1.937588,0.802574 0.513878,0.513878 0.802566,1.210846 0.802566,1.937584 v 0 c 0,1.513344 -1.226806,2.740154 -2.740154,2.740154 v 0 c -1.513348,0 -2.740158,-1.22681 -2.740158,-2.740154 z"
           fill-rule="nonzero"
           id="path3985" />
        <path
           fill="#000000"
           d="m 63.929134,49.727036 v 0 c 0,-1.513348 1.226811,-2.740158 2.740154,-2.740158 v 0 c 0.726738,0 1.423706,0.288692 1.937584,0.802574 0.513886,0.513878 0.802574,1.210846 0.802574,1.937584 v 0 c 0,1.513348 -1.226806,2.740154 -2.740158,2.740154 v 0 c -1.513343,0 -2.740154,-1.226806 -2.740154,-2.740154 z"
           fill-rule="nonzero"
           id="path3987" />
        <path
           stroke="#000000"
           stroke-width="2"
           stroke-linejoin="round"
           stroke-linecap="butt"
           d="m 63.929134,49.727036 v 0 c 0,-1.513348 1.226811,-2.740158 2.740154,-2.740158 v 0 c 0.726738,0 1.423706,0.288692 1.937584,0.802574 0.513886,0.513878 0.802574,1.210846 0.802574,1.937584 v 0 c 0,1.513348 -1.226806,2.740154 -2.740158,2.740154 v 0 c -1.513343,0 -2.740154,-1.226806 -2.740154,-2.740154 z"
           fill-rule="nonzero"
           id="path3989" />
        <path
           fill="#000000"
           d="m 59.95538,39.64042 v 0 c 0,-1.513348 1.22681,-2.740158 2.740158,-2.740158 v 0 c 0.726734,0 1.423702,0.288696 1.937588,0.802574 0.513878,0.513882 0.802566,1.21085 0.802566,1.937584 v 0 c 0,1.513348 -1.226806,2.740158 -2.740154,2.740158 v 0 c -1.513348,0 -2.740158,-1.22681 -2.740158,-2.740158 z"
           fill-rule="nonzero"
           id="path3991" />
        <path
           stroke="#000000"
           stroke-width="2"
           stroke-linejoin="round"
           stroke-linecap="butt"
           d="m 59.95538,39.64042 v 0 c 0,-1.513348 1.22681,-2.740158 2.740158,-2.740158 v 0 c 0.726734,0 1.423702,0.288696 1.937588,0.802574 0.513878,0.513882 0.802566,1.21085 0.802566,1.937584 v 0 c 0,1.513348 -1.226806,2.740158 -2.740154,2.740158 v 0 c -1.513348,0 -2.740158,-1.22681 -2.740158,-2.740158 z"
           fill-rule="nonzero"
           id="path3993" />
        <path
           fill="#000000"
           d="m 50.45669,27.19685 h 6.425198 v 3.275591 H 50.45669 Z"
           fill-rule="nonzero"
           id="path3995" />
        <path
           stroke="#000000"
           stroke-width="2"
           stroke-linejoin="round"
           stroke-linecap="butt"
           d="m 50.45669,27.19685 h 6.425198 v 3.275591 H 50.45669 Z"
           fill-rule="nonzero"
           id="path3997" />
        <path
           fill="#000000"
           d="m 36.771652,66.149605 v 0 c 0,-1.513344 1.226811,-2.740154 2.740158,-2.740154 v 0 c 0.726734,0 1.423706,0.288692 1.937584,0.80257 0.513882,0.513878 0.802574,1.210854 0.802574,1.937584 v 0 c 0,1.513351 -1.22681,2.740158 -2.740158,2.740158 v 0 c -1.513348,0 -2.740158,-1.226807 -2.740158,-2.740158 z"
           fill-rule="nonzero"
           id="path3999" />
        <path
           stroke="#000000"
           stroke-width="2"
           stroke-linejoin="round"
           stroke-linecap="butt"
           d="m 36.771652,66.149605 v 0 c 0,-1.513344 1.226811,-2.740154 2.740158,-2.740154 v 0 c 0.726734,0 1.423706,0.288692 1.937584,0.80257 0.513882,0.513878 0.802574,1.210854 0.802574,1.937584 v 0 c 0,1.513351 -1.22681,2.740158 -2.740158,2.740158 v 0 c -1.513348,0 -2.740158,-1.226807 -2.740158,-2.740158 z"
           fill-rule="nonzero"
           id="path4001" />
        <path
           fill="#000000"
           d="m 66.215225,66.968506 v 0 c 0,-1.513351 1.226807,-2.740158 2.740158,-2.740158 v 0 c 0.72673,0 1.423698,0.288696 1.937584,0.802574 0.513878,0.513878 0.802574,1.210846 0.802574,1.937584 v 0 c 0,1.513344 -1.226814,2.740158 -2.740158,2.740158 v 0 c -1.513351,0 -2.740158,-1.226814 -2.740158,-2.740158 z"
           fill-rule="nonzero"
           id="path4003" />
        <path
           stroke="#000000"
           stroke-width="2"
           stroke-linejoin="round"
           stroke-linecap="butt"
           d="m 66.215225,66.968506 v 0 c 0,-1.513351 1.226807,-2.740158 2.740158,-2.740158 v 0 c 0.72673,0 1.423698,0.288696 1.937584,0.802574 0.513878,0.513878 0.802574,1.210846 0.802574,1.937584 v 0 c 0,1.513344 -1.226814,2.740158 -2.740158,2.740158 v 0 c -1.513351,0 -2.740158,-1.226814 -2.740158,-2.740158 z"
           fill-rule="nonzero"
           id="path4005" />
        <path
           fill="#000000"
           d="m 49.677166,44.750656 2.401573,9.952755 h 4.80315 l 2.401577,-9.952755 z"
           fill-rule="nonzero"
           id="path4007" />
        <path
           stroke="#000000"
           stroke-width="2"
           stroke-linejoin="round"
           stroke-linecap="butt"
           d="m 49.677166,44.750656 2.401573,9.952755 h 4.80315 l 2.401577,-9.952755 z"
           fill-rule="nonzero"
           id="path4009" />
      </g>
    </g>
  </g>
</svg>
