<?xml version="1.0" encoding="UTF-8" standalone="no"?>
<svg
   xmlns:dc="http://purl.org/dc/elements/1.1/"
   xmlns:cc="http://creativecommons.org/ns#"
   xmlns:rdf="http://www.w3.org/1999/02/22-rdf-syntax-ns#"
   xmlns:svg="http://www.w3.org/2000/svg"
   xmlns="http://www.w3.org/2000/svg"
   xmlns:sodipodi="http://sodipodi.sourceforge.net/DTD/sodipodi-0.dtd"
   xmlns:inkscape="http://www.inkscape.org/namespaces/inkscape"
   sodipodi:docname="Serial.svg"
   inkscape:version="1.0 (4035a4fb49, 2020-05-01)"
   id="svg3190"
   version="1.1"
   viewBox="0 0 100.46462 45.789604"
   height="45.789604mm"
   width="100.46462mm">
  <defs
     id="defs3184" />
  <sodipodi:namedview
     fit-margin-bottom="0"
     fit-margin-right="0"
     fit-margin-left="0"
     fit-margin-top="0"
     inkscape:snap-global="false"
     inkscape:window-maximized="1"
     inkscape:window-y="-8"
     inkscape:window-x="-8"
     inkscape:window-height="1017"
     inkscape:window-width="1920"
     showgrid="false"
     inkscape:document-rotation="0"
     inkscape:current-layer="layer1"
     inkscape:document-units="mm"
     inkscape:cy="209.75785"
     inkscape:cx="213.46506"
     inkscape:zoom="1.1484084"
     inkscape:pageshadow="2"
     inkscape:pageopacity="0.0"
     borderopacity="1.0"
     bordercolor="#666666"
     pagecolor="#ffffff"
     id="base" />
  <metadata
     id="metadata3187">
    <rdf:RDF>
      <cc:Work
         rdf:about="">
        <dc:format>image/svg+xml</dc:format>
        <dc:type
           rdf:resource="http://purl.org/dc/dcmitype/StillImage" />
        <dc:title></dc:title>
      </cc:Work>
    </rdf:RDF>
  </metadata>
  <g
     transform="translate(-51.261223,-40.262868)"
     id="layer1"
     inkscape:groupmode="layer"
     inkscape:label="Layer 1">
    <g
       transform="matrix(0.26458333,0,0,0.26458333,77.943277,59.329319)"
       id="g3913"
       style="fill:none;stroke:none;stroke-linecap:square;stroke-miterlimit:10">
      <g
         clip-path="url(#p.0)"
         id="g3877">
        <path
           fill="#000000"
           fill-opacity="0"
           d="M 0,0 H 167.47244 V 100 H 0 Z"
           fill-rule="nonzero"
           id="path3827" />
        <path
           fill="#ffffff"
           d="m 13.704724,37.446194 v 0 c 0,-3.818157 3.095229,-6.913385 6.913386,-6.913385 v 0 c 1.833544,0 3.591992,0.728372 4.888502,2.024885 1.296511,1.296509 2.024884,3.054958 2.024884,4.8885 v 0 c 0,3.818157 -3.095229,6.913387 -6.913386,6.913387 v 0 c -3.818157,0 -6.913386,-3.09523 -6.913386,-6.913387 z"
           fill-rule="nonzero"
           id="path3829" />
        <path
           stroke="#000000"
           stroke-width="2"
           stroke-linejoin="round"
           stroke-linecap="butt"
           d="m 13.704724,37.446194 v 0 c 0,-3.818157 3.095229,-6.913385 6.913386,-6.913385 v 0 c 1.833544,0 3.591992,0.728372 4.888502,2.024885 1.296511,1.296509 2.024884,3.054958 2.024884,4.8885 v 0 c 0,3.818157 -3.095229,6.913387 -6.913386,6.913387 v 0 c -3.818157,0 -6.913386,-3.09523 -6.913386,-6.913387 z"
           fill-rule="nonzero"
           id="path3831" />
        <path
           fill="#ffffff"
           d="m 134.39764,37.446194 v 0 c 0,-3.818157 3.09521,-6.913385 6.91338,-6.913385 v 0 c 1.83354,0 3.59199,0.728372 4.8885,2.024885 1.29651,1.296509 2.02489,3.054958 2.02489,4.8885 v 0 c 0,3.818157 -3.09523,6.913387 -6.91339,6.913387 v 0 c -3.81816,0 -6.91338,-3.09523 -6.91338,-6.913387 z"
           fill-rule="nonzero"
           id="path3833" />
        <path
           stroke="#000000"
           stroke-width="2"
           stroke-linejoin="round"
           stroke-linecap="butt"
           d="m 134.39764,37.446194 v 0 c 0,-3.818157 3.09521,-6.913385 6.91338,-6.913385 v 0 c 1.83354,0 3.59199,0.728372 4.8885,2.024885 1.29651,1.296509 2.02489,3.054958 2.02489,4.8885 v 0 c 0,3.818157 -3.09523,6.913387 -6.91339,6.913387 v 0 c -3.81816,0 -6.91338,-3.09523 -6.91338,-6.913387 z"
           fill-rule="nonzero"
           id="path3835" />
        <path
           fill="#ffffff"
           d="m 40.816273,31.156204 v 0 c 0,-0.997322 0.808491,-1.805811 1.805809,-1.805811 h 7.223026 v 0 c 0.478932,0 0.938248,0.190254 1.276902,0.52891 0.338653,0.338655 0.528907,0.79797 0.528907,1.276901 v 7.223026 c 0,0.997319 -0.808487,1.805809 -1.805809,1.805809 h -7.223026 c -0.997318,0 -1.805809,-0.80849 -1.805809,-1.805809 z"
           fill-rule="nonzero"
           id="path3837" />
        <path
           stroke="#000000"
           stroke-width="2"
           stroke-linejoin="round"
           stroke-linecap="butt"
           d="m 40.816273,31.156204 v 0 c 0,-0.997322 0.808491,-1.805811 1.805809,-1.805811 h 7.223026 v 0 c 0.478932,0 0.938248,0.190254 1.276902,0.52891 0.338653,0.338655 0.528907,0.79797 0.528907,1.276901 v 7.223026 c 0,0.997319 -0.808487,1.805809 -1.805809,1.805809 h -7.223026 c -0.997318,0 -1.805809,-0.80849 -1.805809,-1.805809 z"
           fill-rule="nonzero"
           id="path3839" />
        <path
           fill="#ffffff"
           d="m 58.182415,31.156204 v 0 c 0,-0.997322 0.808487,-1.805811 1.805809,-1.805811 h 7.223026 v 0 c 0.478928,0 0.938248,0.190254 1.276901,0.52891 0.338654,0.338655 0.528908,0.79797 0.528908,1.276901 v 7.223026 c 0,0.997319 -0.808487,1.805809 -1.805809,1.805809 h -7.223026 c -0.997322,0 -1.805809,-0.80849 -1.805809,-1.805809 z"
           fill-rule="nonzero"
           id="path3841" />
        <path
           stroke="#000000"
           stroke-width="2"
           stroke-linejoin="round"
           stroke-linecap="butt"
           d="m 58.182415,31.156204 v 0 c 0,-0.997322 0.808487,-1.805811 1.805809,-1.805811 h 7.223026 v 0 c 0.478928,0 0.938248,0.190254 1.276901,0.52891 0.338654,0.338655 0.528908,0.79797 0.528908,1.276901 v 7.223026 c 0,0.997319 -0.808487,1.805809 -1.805809,1.805809 h -7.223026 c -0.997322,0 -1.805809,-0.80849 -1.805809,-1.805809 z"
           fill-rule="nonzero"
           id="path3843" />
        <path
           fill="#ffffff"
           d="m 75.54855,31.156204 v 0 c 0,-0.997322 0.808495,-1.805811 1.805817,-1.805811 h 7.223022 v 0 c 0.478928,0 0.938248,0.190254 1.276901,0.52891 0.338654,0.338655 0.528908,0.79797 0.528908,1.276901 v 7.223026 c 0,0.997319 -0.808487,1.805809 -1.805809,1.805809 h -7.223022 c -0.997322,0 -1.805817,-0.80849 -1.805817,-1.805809 z"
           fill-rule="nonzero"
           id="path3845" />
        <path
           stroke="#000000"
           stroke-width="2"
           stroke-linejoin="round"
           stroke-linecap="butt"
           d="m 75.54855,31.156204 v 0 c 0,-0.997322 0.808495,-1.805811 1.805817,-1.805811 h 7.223022 v 0 c 0.478928,0 0.938248,0.190254 1.276901,0.52891 0.338654,0.338655 0.528908,0.79797 0.528908,1.276901 v 7.223026 c 0,0.997319 -0.808487,1.805809 -1.805809,1.805809 h -7.223022 c -0.997322,0 -1.805817,-0.80849 -1.805817,-1.805809 z"
           fill-rule="nonzero"
           id="path3847" />
        <path
           fill="#ffffff"
           d="m 92.914696,31.156204 v 0 c 0,-0.997322 0.808495,-1.805811 1.805809,-1.805811 h 7.223025 v 0 c 0.47893,0 0.93825,0.190254 1.27691,0.52891 0.33865,0.338655 0.5289,0.79797 0.5289,1.276901 v 7.223026 c 0,0.997319 -0.80848,1.805809 -1.80581,1.805809 h -7.223025 c -0.997314,0 -1.805809,-0.80849 -1.805809,-1.805809 z"
           fill-rule="nonzero"
           id="path3849" />
        <path
           stroke="#000000"
           stroke-width="2"
           stroke-linejoin="round"
           stroke-linecap="butt"
           d="m 92.914696,31.156204 v 0 c 0,-0.997322 0.808495,-1.805811 1.805809,-1.805811 h 7.223025 v 0 c 0.47893,0 0.93825,0.190254 1.27691,0.52891 0.33865,0.338655 0.5289,0.79797 0.5289,1.276901 v 7.223026 c 0,0.997319 -0.80848,1.805809 -1.80581,1.805809 h -7.223025 c -0.997314,0 -1.805809,-0.80849 -1.805809,-1.805809 z"
           fill-rule="nonzero"
           id="path3851" />
        <path
           fill="#ffffff"
           d="m 110.28084,31.156204 v 0 c 0,-0.997322 0.80849,-1.805811 1.80581,-1.805811 h 7.22303 v 0 c 0.47893,0 0.93824,0.190254 1.2769,0.52891 0.33865,0.338655 0.52891,0.79797 0.52891,1.276901 v 7.223026 c 0,0.997319 -0.80849,1.805809 -1.80581,1.805809 h -7.22303 c -0.99732,0 -1.80581,-0.80849 -1.80581,-1.805809 z"
           fill-rule="nonzero"
           id="path3853" />
        <path
           stroke="#000000"
           stroke-width="2"
           stroke-linejoin="round"
           stroke-linecap="butt"
           d="m 110.28084,31.156204 v 0 c 0,-0.997322 0.80849,-1.805811 1.80581,-1.805811 h 7.22303 v 0 c 0.47893,0 0.93824,0.190254 1.2769,0.52891 0.33865,0.338655 0.52891,0.79797 0.52891,1.276901 v 7.223026 c 0,0.997319 -0.80849,1.805809 -1.80581,1.805809 h -7.22303 c -0.99732,0 -1.80581,-0.80849 -1.80581,-1.805809 z"
           fill-rule="nonzero"
           id="path3855" />
        <path
           fill="#ffffff"
           d="m 47.452755,53.07353 v 0 c 0,-0.997322 0.808491,-1.805813 1.805813,-1.805813 h 7.223022 v 0 c 0.478932,0 0.938248,0.190254 1.276901,0.528912 0.338658,0.338653 0.528912,0.79797 0.528912,1.276901 v 7.223022 c 0,0.997323 -0.808491,1.805813 -1.805813,1.805813 h -7.223022 c -0.997322,0 -1.805813,-0.80849 -1.805813,-1.805813 z"
           fill-rule="nonzero"
           id="path3857" />
        <path
           stroke="#000000"
           stroke-width="2"
           stroke-linejoin="round"
           stroke-linecap="butt"
           d="m 47.452755,53.07353 v 0 c 0,-0.997322 0.808491,-1.805813 1.805813,-1.805813 h 7.223022 v 0 c 0.478932,0 0.938248,0.190254 1.276901,0.528912 0.338658,0.338653 0.528912,0.79797 0.528912,1.276901 v 7.223022 c 0,0.997323 -0.808491,1.805813 -1.805813,1.805813 h -7.223022 c -0.997322,0 -1.805813,-0.80849 -1.805813,-1.805813 z"
           fill-rule="nonzero"
           id="path3859" />
        <path
           fill="#ffffff"
           d="m 64.8189,53.07353 v 0 c 0,-0.997322 0.808487,-1.805813 1.805809,-1.805813 h 7.223022 v 0 c 0.478928,0 0.938248,0.190254 1.276902,0.528912 0.338653,0.338653 0.528907,0.79797 0.528907,1.276901 v 7.223022 c 0,0.997323 -0.808486,1.805813 -1.805809,1.805813 h -7.223022 c -0.997322,0 -1.805809,-0.80849 -1.805809,-1.805813 z"
           fill-rule="nonzero"
           id="path3861" />
        <path
           stroke="#000000"
           stroke-width="2"
           stroke-linejoin="round"
           stroke-linecap="butt"
           d="m 64.8189,53.07353 v 0 c 0,-0.997322 0.808487,-1.805813 1.805809,-1.805813 h 7.223022 v 0 c 0.478928,0 0.938248,0.190254 1.276902,0.528912 0.338653,0.338653 0.528907,0.79797 0.528907,1.276901 v 7.223022 c 0,0.997323 -0.808486,1.805813 -1.805809,1.805813 h -7.223022 c -0.997322,0 -1.805809,-0.80849 -1.805809,-1.805813 z"
           fill-rule="nonzero"
           id="path3863" />
        <path
           fill="#ffffff"
           d="m 82.185036,53.07353 v 0 c 0,-0.997322 0.808495,-1.805813 1.805817,-1.805813 h 7.223022 v 0 c 0.478928,0 0.938248,0.190254 1.276901,0.528912 0.338654,0.338653 0.528908,0.79797 0.528908,1.276901 v 7.223022 c 0,0.997323 -0.808487,1.805813 -1.805809,1.805813 h -7.223022 c -0.997322,0 -1.805817,-0.80849 -1.805817,-1.805813 z"
           fill-rule="nonzero"
           id="path3865" />
        <path
           stroke="#000000"
           stroke-width="2"
           stroke-linejoin="round"
           stroke-linecap="butt"
           d="m 82.185036,53.07353 v 0 c 0,-0.997322 0.808495,-1.805813 1.805817,-1.805813 h 7.223022 v 0 c 0.478928,0 0.938248,0.190254 1.276901,0.528912 0.338654,0.338653 0.528908,0.79797 0.528908,1.276901 v 7.223022 c 0,0.997323 -0.808487,1.805813 -1.805809,1.805813 h -7.223022 c -0.997322,0 -1.805817,-0.80849 -1.805817,-1.805813 z"
           fill-rule="nonzero"
           id="path3867" />
        <path
           fill="#ffffff"
           d="m 99.55118,53.07353 v 0 c 0,-0.997322 0.80849,-1.805813 1.80582,-1.805813 h 7.22302 v 0 c 0.47893,0 0.93825,0.190254 1.2769,0.528912 0.33865,0.338653 0.52891,0.79797 0.52891,1.276901 v 7.223022 c 0,0.997323 -0.80849,1.805813 -1.80581,1.805813 H 101.357 c -0.99733,0 -1.80582,-0.80849 -1.80582,-1.805813 z"
           fill-rule="nonzero"
           id="path3869" />
        <path
           stroke="#000000"
           stroke-width="2"
           stroke-linejoin="round"
           stroke-linecap="butt"
           d="m 99.55118,53.07353 v 0 c 0,-0.997322 0.80849,-1.805813 1.80582,-1.805813 h 7.22302 v 0 c 0.47893,0 0.93825,0.190254 1.2769,0.528912 0.33865,0.338653 0.52891,0.79797 0.52891,1.276901 v 7.223022 c 0,0.997323 -0.80849,1.805813 -1.80581,1.805813 H 101.357 c -0.99733,0 -1.80582,-0.80849 -1.80582,-1.805813 z"
           fill-rule="nonzero"
           id="path3871" />
        <path
           fill="#000000"
           fill-opacity="0"
           d="m 37.66798,20.968504 h 86.97113 l 8.02363,8.026247 -8.23361,30.727036 -13.5223,13.522308 H 52.161423 L 36.765095,57.847771 29.269034,29.868767 Z"
           fill-rule="nonzero"
           id="path3873" />
        <path
           stroke="#000000"
           stroke-width="2"
           stroke-linejoin="round"
           stroke-linecap="butt"
           d="m 37.66798,20.968504 h 86.97113 l 8.02363,8.026247 -8.23361,30.727036 -13.5223,13.522308 H 52.161423 L 36.765095,57.847771 29.269034,29.868767 Z"
           fill-rule="nonzero"
           id="path3875" />
      </g>
    </g>
  </g>
</svg>
