<?xml version="1.0" encoding="UTF-8" standalone="no"?>
<svg
   xmlns:dc="http://purl.org/dc/elements/1.1/"
   xmlns:cc="http://creativecommons.org/ns#"
   xmlns:rdf="http://www.w3.org/1999/02/22-rdf-syntax-ns#"
   xmlns:svg="http://www.w3.org/2000/svg"
   xmlns="http://www.w3.org/2000/svg"
   xmlns:sodipodi="http://sodipodi.sourceforge.net/DTD/sodipodi-0.dtd"
   xmlns:inkscape="http://www.inkscape.org/namespaces/inkscape"
   sodipodi:docname="StereoRCA.svg"
   inkscape:version="1.0 (4035a4fb49, 2020-05-01)"
   id="svg3190"
   version="1.1"
   viewBox="0 0 100.46462 45.789604"
   height="45.789604mm"
   width="100.46462mm">
  <defs
     id="defs3184" />
  <sodipodi:namedview
     fit-margin-bottom="0"
     fit-margin-right="0"
     fit-margin-left="0"
     fit-margin-top="0"
     inkscape:snap-global="false"
     inkscape:window-maximized="1"
     inkscape:window-y="-8"
     inkscape:window-x="-8"
     inkscape:window-height="1017"
     inkscape:window-width="1920"
     showgrid="false"
     inkscape:document-rotation="0"
     inkscape:current-layer="layer1"
     inkscape:document-units="mm"
     inkscape:cy="209.75785"
     inkscape:cx="213.46506"
     inkscape:zoom="1.1484084"
     inkscape:pageshadow="2"
     inkscape:pageopacity="0.0"
     borderopacity="1.0"
     bordercolor="#666666"
     pagecolor="#ffffff"
     id="base" />
  <metadata
     id="metadata3187">
    <rdf:RDF>
      <cc:Work
         rdf:about="">
        <dc:format>image/svg+xml</dc:format>
        <dc:type
           rdf:resource="http://purl.org/dc/dcmitype/StillImage" />
        <dc:title></dc:title>
      </cc:Work>
    </rdf:RDF>
  </metadata>
  <g
     transform="translate(-51.261223,-40.262868)"
     id="layer1"
     inkscape:groupmode="layer"
     inkscape:label="Layer 1">
    <g
       transform="matrix(0.26458333,0,0,0.26458333,125.26751,49.530818)"
       id="g3822"
       style="fill:none;stroke:none;stroke-linecap:square;stroke-miterlimit:10">
      <g
         clip-path="url(#p.0)"
         id="g3798">
        <path
           fill="#000000"
           fill-opacity="0"
           d="M 0,0 H 100 V 100 H 0 Z"
           fill-rule="nonzero"
           id="path3772" />
        <path
           fill="#ffffff"
           d="m 21.968487,25.92126 v 0 c 0,-9.541046 8.404354,-17.275593 18.771652,-17.275593 v 0 c 10.367298,0 18.771652,7.734546 18.771652,17.275593 v 0 c 0,9.541046 -8.404354,17.275589 -18.771652,17.275589 v 0 c -10.367298,0 -18.771652,-7.734543 -18.771652,-17.275589 z"
           fill-rule="nonzero"
           id="path3774" />
        <path
           stroke="#000000"
           stroke-width="2"
           stroke-linejoin="round"
           stroke-linecap="butt"
           d="m 21.968487,25.92126 v 0 c 0,-9.541046 8.404354,-17.275593 18.771652,-17.275593 v 0 c 10.367298,0 18.771652,7.734546 18.771652,17.275593 v 0 c 0,9.541046 -8.404354,17.275589 -18.771652,17.275589 v 0 c -10.367298,0 -18.771652,-7.734543 -18.771652,-17.275589 z"
           fill-rule="nonzero"
           id="path3776" />
        <path
           fill="#ffffff"
           d="m 27.897158,25.907364 v 0 c 0,-6.514351 5.753317,-11.795276 12.850393,-11.795276 v 0 c 7.09708,0 12.850395,5.280925 12.850395,11.795276 v 0 c 0,6.514351 -5.753315,11.795277 -12.850395,11.795277 v 0 c -7.097076,0 -12.850393,-5.280926 -12.850393,-11.795277 z"
           fill-rule="nonzero"
           id="path3778" />
        <path
           stroke="#000000"
           stroke-width="2"
           stroke-linejoin="round"
           stroke-linecap="butt"
           d="m 27.897158,25.907364 v 0 c 0,-6.514351 5.753317,-11.795276 12.850393,-11.795276 v 0 c 7.09708,0 12.850395,5.280925 12.850395,11.795276 v 0 c 0,6.514351 -5.753315,11.795277 -12.850395,11.795277 v 0 c -7.097076,0 -12.850393,-5.280926 -12.850393,-11.795277 z"
           fill-rule="nonzero"
           id="path3780" />
        <path
           fill="#000000"
           d="m 31.829168,25.915733 v 0 c 0,-4.522646 3.99066,-8.188976 8.913385,-8.188976 v 0 c 4.922726,0 8.913387,3.66633 8.913387,8.188976 v 0 c 0,4.522648 -3.990662,8.188976 -8.913387,8.188976 v 0 c -4.922726,0 -8.913385,-3.666328 -8.913385,-8.188976 z"
           fill-rule="nonzero"
           id="path3782" />
        <path
           stroke="#000000"
           stroke-width="2"
           stroke-linejoin="round"
           stroke-linecap="butt"
           d="m 31.829168,25.915733 v 0 c 0,-4.522646 3.99066,-8.188976 8.913385,-8.188976 v 0 c 4.922726,0 8.913387,3.66633 8.913387,8.188976 v 0 c 0,4.522648 -3.990662,8.188976 -8.913387,8.188976 v 0 c -4.922726,0 -8.913385,-3.666328 -8.913385,-8.188976 z"
           fill-rule="nonzero"
           id="path3784" />
        <path
           fill="#ffffff"
           d="m 21.968487,74.173225 v 0 c 0,-9.541038 8.404354,-17.275589 18.771652,-17.275589 v 0 c 10.367298,0 18.771652,7.734551 18.771652,17.275589 v 0 c 0,9.541046 -8.404354,17.275597 -18.771652,17.275597 v 0 c -10.367298,0 -18.771652,-7.73455 -18.771652,-17.275597 z"
           fill-rule="nonzero"
           id="path3786" />
        <path
           stroke="#000000"
           stroke-width="2"
           stroke-linejoin="round"
           stroke-linecap="butt"
           d="m 21.968487,74.173225 v 0 c 0,-9.541038 8.404354,-17.275589 18.771652,-17.275589 v 0 c 10.367298,0 18.771652,7.734551 18.771652,17.275589 v 0 c 0,9.541046 -8.404354,17.275597 -18.771652,17.275597 v 0 c -10.367298,0 -18.771652,-7.73455 -18.771652,-17.275597 z"
           fill-rule="nonzero"
           id="path3788" />
        <path
           fill="#ffffff"
           d="m 27.897158,74.15933 v 0 c 0,-6.514351 5.753317,-11.795277 12.850393,-11.795277 v 0 c 7.09708,0 12.850395,5.280926 12.850395,11.795277 v 0 c 0,6.514351 -5.753315,11.795273 -12.850395,11.795273 v 0 c -7.097076,0 -12.850393,-5.280922 -12.850393,-11.795273 z"
           fill-rule="nonzero"
           id="path3790" />
        <path
           stroke="#000000"
           stroke-width="2"
           stroke-linejoin="round"
           stroke-linecap="butt"
           d="m 27.897158,74.15933 v 0 c 0,-6.514351 5.753317,-11.795277 12.850393,-11.795277 v 0 c 7.09708,0 12.850395,5.280926 12.850395,11.795277 v 0 c 0,6.514351 -5.753315,11.795273 -12.850395,11.795273 v 0 c -7.097076,0 -12.850393,-5.280922 -12.850393,-11.795273 z"
           fill-rule="nonzero"
           id="path3792" />
        <path
           fill="#000000"
           d="m 31.829168,74.1677 v 0 c 0,-4.522644 3.99066,-8.188972 8.913385,-8.188972 v 0 c 4.922726,0 8.913387,3.666328 8.913387,8.188972 v 0 c 0,4.522644 -3.990662,8.18898 -8.913387,8.18898 v 0 c -4.922726,0 -8.913385,-3.666336 -8.913385,-8.18898 z"
           fill-rule="nonzero"
           id="path3794" />
        <path
           stroke="#000000"
           stroke-width="2"
           stroke-linejoin="round"
           stroke-linecap="butt"
           d="m 31.829168,74.1677 v 0 c 0,-4.522644 3.99066,-8.188972 8.913385,-8.188972 v 0 c 4.922726,0 8.913387,3.666328 8.913387,8.188972 v 0 c 0,4.522644 -3.990662,8.18898 -8.913387,8.18898 v 0 c -4.922726,0 -8.913385,-3.666336 -8.913385,-8.18898 z"
           fill-rule="nonzero"
           id="path3796" />
      </g>
    </g>
  </g>
</svg>
