<?xml version="1.0" encoding="UTF-8" standalone="no"?>
<svg
   xmlns:dc="http://purl.org/dc/elements/1.1/"
   xmlns:cc="http://creativecommons.org/ns#"
   xmlns:rdf="http://www.w3.org/1999/02/22-rdf-syntax-ns#"
   xmlns:svg="http://www.w3.org/2000/svg"
   xmlns="http://www.w3.org/2000/svg"
   xmlns:sodipodi="http://sodipodi.sourceforge.net/DTD/sodipodi-0.dtd"
   xmlns:inkscape="http://www.inkscape.org/namespaces/inkscape"
   inkscape:version="1.0 (4035a4fb49, 2020-05-01)"
   sodipodi:docname="module.svg"
   version="1.1"
   viewBox="0.0 0.0 348.0 348.0"
   fill="none"
   stroke="none"
   stroke-linecap="square"
   stroke-miterlimit="10"
   id="svg59">
  <sodipodi:namedview
     inkscape:current-layer="g57"
     inkscape:window-maximized="1"
     inkscape:window-y="-8"
     inkscape:window-x="-8"
     inkscape:cy="214.62166"
     inkscape:cx="216.74634"
     inkscape:zoom="1.7052383"
     showgrid="false"
     id="namedview34"
     inkscape:window-height="1017"
     inkscape:window-width="1920"
     inkscape:pageshadow="2"
     inkscape:pageopacity="0"
     guidetolerance="10"
     gridtolerance="10"
     objecttolerance="10"
     borderopacity="1"
     bordercolor="#666666"
     pagecolor="#ffffff" />
  <metadata
     id="metadata65">
    <rdf:RDF>
      <cc:Work
         rdf:about="">
        <dc:format>image/svg+xml</dc:format>
        <dc:type
           rdf:resource="http://purl.org/dc/dcmitype/StillImage" />
      </cc:Work>
    </rdf:RDF>
  </metadata>
  <defs
     id="defs63" />
  <clipPath
     id="p.0">
    <path
       d="m0 0l348.0 0l0 348.0l-348.0 0l0 -348.0z"
       clip-rule="nonzero"
       id="path2" />
  </clipPath>
  <g
     clip-path="url(#p.0)"
     id="g57">
    <path
       fill="#000000"
       fill-opacity="0"
       d="M 0,0 H 348 V 348 H 0 Z"
       fill-rule="nonzero"
       id="path5" />
    <path
       fill="#000000"
       fill-opacity="0"
       d="m 5.07874,5.7758217 h 336.9134 V 343.44512 H 5.07874 Z"
       fill-rule="nonzero"
       id="path9" />
    <path
       stroke="#000000"
       stroke-width="2"
       stroke-linejoin="round"
       stroke-linecap="butt"
       d="m 5.07874,5.7758217 h 336.9134 V 343.44512 H 5.07874 Z"
       fill-rule="nonzero"
       id="path11" />
    <path
       fill="#ffffff"
       d="m 282.73444,40.553925 v 0 c 0,-8.375591 6.96603,-15.165352 15.55905,-15.165352 v 0 c 4.12653,0 8.08402,1.597773 11.00192,4.441828 2.91788,2.844057 4.55713,6.701422 4.55713,10.723524 v 0 c 0,8.375595 -6.966,15.165356 -15.55905,15.165356 v 0 c -8.59302,0 -15.55905,-6.789761 -15.55905,-15.165356 z"
       fill-rule="nonzero"
       id="path13" data-statuslight />
    <path
       stroke="#000000"
       stroke-width="2"
       stroke-linejoin="round"
       stroke-linecap="butt"
       d="m 282.73444,40.553925 v 0 c 0,-8.375591 6.96603,-15.165352 15.55905,-15.165352 v 0 c 4.12653,0 8.08402,1.597773 11.00192,4.441828 2.91788,2.844057 4.55713,6.701422 4.55713,10.723524 v 0 c 0,8.375595 -6.966,15.165356 -15.55905,15.165356 v 0 c -8.59302,0 -15.55905,-6.789761 -15.55905,-15.165356 z"
       fill-rule="nonzero"
       id="path15" />
    <path
       fill="#000000"
       fill-opacity="0"
       d="M 38.37008,95.73661 H 145.58269 V 195.92558 H 38.37008 Z"
       fill-rule="nonzero"
       id="path17" />
    <path
       stroke="#000000"
       stroke-width="1"
       stroke-linejoin="round"
       stroke-linecap="butt"
       d="M 38.37008,95.73661 H 145.58269 V 195.92558 H 38.37008 Z"
       fill-rule="nonzero"
       id="path19" data-selectable="button-0" />
    <path
       fill="#000000"
       fill-opacity="0"
       d="M 152.48032,95.73661 H 259.6929 V 195.92558 H 152.48032 Z"
       fill-rule="nonzero"
       id="path23" />
    <path
       stroke="#000000"
       stroke-width="1"
       stroke-linejoin="round"
       stroke-linecap="butt"
       d="M 152.48032,95.73661 H 259.6929 V 195.92558 H 152.48032 Z"
       fill-rule="nonzero"
       id="path25" data-selectable="button-1" />
    <path
       fill="#000000"
       fill-opacity="0"
       d="M 38.37008,206.52081 H 145.58269 V 306.70978 H 38.37008 Z"
       fill-rule="nonzero"
       id="path29" />
    <path
       stroke="#000000"
       stroke-width="1"
       stroke-linejoin="round"
       stroke-linecap="butt"
       d="M 38.37008,206.52081 H 145.58269 V 306.70978 H 38.37008 Z"
       fill-rule="nonzero"
       id="path31" data-selectable="button-2" />
    <path
       fill="#000000"
       fill-opacity="0"
       d="M 152.48032,206.52081 H 259.6929 V 306.70978 H 152.48032 Z"
       fill-rule="nonzero"
       id="path35" />
    <path
       stroke="#000000"
       stroke-width="1"
       stroke-linejoin="round"
       stroke-linecap="butt"
       d="M 152.48032,206.52081 H 259.6929 V 306.70978 H 152.48032 Z"
       fill-rule="nonzero"
       id="path37" data-selectable="button-3" />
    <path
       fill="#000000"
       d="m 82.10236,102.04987 h 19.74803 v 5.63779 H 82.10236 Z"
       fill-rule="nonzero"
       id="path41" data-light="0" />
    <path
       fill="#000000"
       d="m 196.2126,102.04987 h 19.74803 v 5.63779 H 196.2126 Z"
       fill-rule="nonzero"
       id="path45" data-light="1" />
    <path
       fill="#000000"
       d="m 82.10236,213.52493 h 19.74803 v 5.6378 H 82.10236 Z"
       fill-rule="nonzero"
       id="path49" data-light="2" />
    <path
       fill="#000000"
       d="m 196.2126,213.52493 h 19.74803 v 5.6378 H 196.2126 Z"
       fill-rule="nonzero"
       id="path53" data-light="3" />
  </g>
</svg>
